<svg id="Capa_1" enable-background="new 0 0 497.1 497.1" height="512" viewBox="0 0 497.1 497.1" width="512" xmlns="http://www.w3.org/2000/svg"><g><g><g id="XMLID_167_"><g><path d="m435.925 62.89c10.3 5.15 15.53 16.84 12.51 27.95l-49.62 182.42-1.84 81.28c-.51 22.49-7.6 44.34-20.39 62.85l-14.04 20.32v44.404c0 8.277-6.71 14.986-14.986 14.986h-144.948c-8.277 0-14.986-6.71-14.986-14.986v-52.474c-22.31-10.64-38.24-31.24-42.92-55.51l-1.42-7.36-77.98-42.8c-11.16-6.13-17.49-17.66-17.49-29.57 0-5.37 1.28-10.81 3.99-15.87 8.38-15.66 27.48-22.12 43.65-14.77l59.92 27.24 3.3-4.46c3.45-4.66 7.25-9.04 11.39-13.08 4.13-4.04 8.58-7.75 13.32-11.09l-56.54-207.86c-.69-2.53-1.02-5.08-1.02-7.59 0-11.81 7.3-22.78 18.86-27.05 15.17-5.6 31.97 2.35 37.26 17.62l61.3 176.93v-186.68c0-7.66 3.1-14.6 8.12-19.62s11.95-8.12 19.61-8.12c15.06 0 27.37 12.02 27.73 27.07l4.19 173.65 25.69-166.68c1.96-12.68 12.88-21.63 25.18-21.63 1.79 0 3.61.19 5.43.58 12.52 2.72 21.09 14.29 20.02 27.06l-13.45 160.67 36.19-123.04c3.14-10.69 12.88-17.35 23.19-17.35 3.61 0 7.29.82 10.78 2.56z" fill="#ffdfcf"/></g></g><path d="m183.38 262.373c13.733-11.202 19.59-29.443 14.938-46.544l-48.774-179.313c-.69-2.53-1.02-5.08-1.02-7.59 0-3.654.703-7.227 2.01-10.547-1.958.286-3.917.777-5.849 1.491-11.56 4.27-18.86 15.24-18.86 27.05 0 2.51.33 5.06 1.02 7.59l56.54 207.86c-.003.002-.008.006-.005.003z" fill="#ffcebf"/><path d="m242.138 243.116c-.002 0-.004.001-.005.002-.005.002.001-.001.005-.002z" fill="#ffcebf"/><g><path d="m216.257 415.787c0-5.56-2.922-10.675-7.641-13.613-18.28-11.381-31.152-29.927-35.279-51.326-.9-4.662-3.829-8.682-7.991-10.967l-71.409-39.193c-11.16-6.13-17.49-17.66-17.49-29.57 0-3.41.529-6.853 1.6-10.204-10.777 1.124-20.786 7.421-26.242 17.616-2.71 5.06-3.99 10.5-3.99 15.87 0 11.91 6.33 23.44 17.49 29.57l77.98 42.8 1.42 7.36c4.68 24.27 20.61 44.87 42.92 55.51v52.474c0 8.277 6.71 14.986 14.986 14.986h13.646z" fill="#ffcebf"/></g><g fill="#fef6ad"><path d="m391.593 323.151c-5.435 8.701-13.215 16.059-23.102 22.209-4.516 2.809-4.779 9.313-.431 12.375 9.05 6.375 16.782 13.896 22.955 22.772 2.979 4.283 9.248 4.323 12.225.04 6.572-9.456 14.347-17.255 23.305-23.424 4.29-2.955 4.374-9.197.144-12.237-9.052-6.507-16.672-13.887-22.787-22.184-3.127-4.242-9.517-4.02-12.309.449z"/><path d="m226.534 366.405c-3.91 6.259-9.506 11.552-16.618 15.976-3.248 2.021-3.438 6.699-.31 8.902 6.51 4.586 12.072 9.996 16.513 16.381 2.143 3.081 6.652 3.11 8.794.028 4.728-6.802 10.321-12.412 16.764-16.85 3.086-2.126 3.146-6.616.103-8.803-6.512-4.681-11.993-9.99-16.392-15.958-2.248-3.051-6.845-2.891-8.854.324z"/><path d="m145.35 139.178c-4.809 7.7-11.693 14.21-20.443 19.652-3.996 2.485-4.229 8.241-.382 10.951 8.008 5.641 14.85 12.296 20.313 20.151 2.636 3.79 8.183 3.826 10.818.035 5.816-8.367 12.696-15.268 20.622-20.728 3.796-2.615 3.87-8.138.127-10.828-8.01-5.758-14.752-12.288-20.163-19.63-2.767-3.755-8.422-3.559-10.892.397z"/></g></g><g fill="#ffcebf"><path d="m243.244 214.515c14.183 0 25.7-11.46 25.771-25.642l.861-172.44c.011-2.622.374-5.168 1.045-7.587.857-3.091 2.22-5.977 3.992-8.563-1.287-.184-2.601-.283-3.938-.283-7.66 0-14.59 3.1-19.61 8.12s-8.12 11.96-8.069 19.624z"/><path d="m303.015 199.942c14.961 0 27.678-10.931 29.926-25.722l23.159-152.431c.392-2.593 1.122-5.059 2.137-7.354.225-.508.488-1 .741-1.491-1.745-.358-3.496-.534-5.213-.534-12.3 0-23.22 8.95-25.18 21.63z"/><path d="m366.089 199.942c14.904 0 27.977-9.942 31.959-24.304l31.02-111.892c.276-.996.619-1.966.984-2.906-1.631-.342-3.28-.51-4.906-.51-10.31 0-20.05 6.66-23.19 17.35l-34.056 115.782z"/></g></g></svg>