<svg id="Capa_1" enable-background="new 0 0 502.72 502.72" height="512" viewBox="0 0 502.72 502.72" width="512" xmlns="http://www.w3.org/2000/svg"><g><path d="m400.233 215.025 1.113 16.997-168.576 39.693-4.45 12.25 80.53 122.652h76.792l21.898-12.702 35.65-28.28c11.02-8.75 18.85-20.89 22.26-34.54l33.101-24.405c.823-.607 1.309-1.569 1.309-2.592v-126.78z" fill="#ffeee6"/><g><path d="m309.7 436.775c.57.46 1.12.95 1.64 1.46l9.54 7.75c4.55 3.69 10.01 5.48 15.44 5.48 7.4 0 14.74-3.34 19.57-9.73 7.55-9.97 6.32-23.92-2.54-32.44 0 0-.5-.49 0 0l9.89 8.07c4.52 3.69 9.97 5.48 15.38 5.48 7.09 0 14.11-3.07 18.92-9 8.55-10.53 6.86-26.01-3.76-34.44l-114.177-90.65-47.915-30.787 30.485-47.445 45.905 29.495 9.773-13.124-66.22-39.54-6.218-3.749c-3.496-2.108-7.5-3.221-11.582-3.221h-70.4c-9.98 0-19.7 3.13-27.8 8.96l-19.28 13.87c-3.49 2.51-8.11 2.77-11.85.68l-93.164-52.082c-3.797-2.122-8.476.622-8.476 4.972v140.806c0 5.718 2.814 11.07 7.524 14.312l27.886 19.192 3.37 8.07c4.62 11.07 12.09 20.74 21.65 28l172.12 130.91c10.03 7.63 24.33 5.65 31.91-4.4 3.09-4.09 4.58-8.9 4.58-13.68 0-6.53-2.8-13-8.17-17.46l-.23-.2c.08.06.15.13.23.2l15.15 12.3c4.54 3.68 10 5.48 15.43 5.48 7.12 0 14.18-3.09 19.02-9.05 8.08-9.95 7.06-24.31-1.99-33.03" fill="#ffdfcf"/></g><path d="m255.184 477.875-172.12-130.91c-9.56-7.26-17.03-16.93-21.65-28l-.808-1.935c-1.68-4.022-4.367-7.544-7.802-10.227l-49.943-39v29.789c0 5.718 2.814 11.07 7.524 14.312l27.886 19.192 3.37 8.07c4.62 11.07 12.09 20.74 21.65 28l172.12 130.91c10.03 7.63 24.33 5.65 31.91-4.4 2.586-3.423 4.037-7.352 4.446-11.344-5.69.71-11.652-.706-16.583-4.457z" fill="#ffcebf"/><path d="m219.552 486.015 3.761-4.634c12.068-14.869 9.79-36.785-5.12-48.887-3.944-3.202-8.543-5.478-13.421-6.708-.472-10.276-5.018-20.173-13.416-26.989l-.089-.074c-3.846-3.121-8.311-5.401-13.07-6.742.493-10.786-3.96-21.672-12.999-29.009-6.245-5.07-14.109-7.862-22.145-7.862-3.109 0-6.154.415-9.08 1.192-2.274-4.172-5.37-7.978-9.274-11.147l-.118-.097c-6.714-5.449-15.167-8.45-23.803-8.45-11.483 0-22.205 5.12-29.416 14.048l-11.025 13.652c1.936 1.872 3.98 3.639 6.138 5.278z" fill="#ffcebf"/><g fill="#ffeee6"><path d="m100.736 404.347 14.584-17.968c7.933-9.773 6.441-24.127-3.333-32.06l-.044-.036c-9.791-7.947-24.173-6.434-32.095 3.377l-14.539 18.003c-8.172 10.119-6.232 25.015 4.259 32.704 9.8 7.183 23.511 5.414 31.168-4.02z"/><path d="m130.551 431.419 25.015-30.82c7.016-8.645 5.697-21.34-2.948-28.357l-.058-.047c-8.656-7.026-21.371-5.692-28.38 2.977l-24.957 30.868c-7.315 9.046-5.475 22.389 4.014 29.119 8.667 6.146 20.618 4.51 27.314-3.74z"/><path d="m167.883 456.937 13.151-16.202c8.333-10.266 7.274-24.931-2.366-32.755l-.039-.032c-9.657-7.838-24.257-5.835-32.58 4.47l-13.112 16.234c-8.57 10.611-7.095 25.788 3.242 33.352 9.688 7.091 23.647 4.859 31.704-5.067z"/><path d="m194.577 486.636 13.904-17.131c6.868-8.461 5.576-20.887-2.885-27.755l-.041-.033c-8.475-6.879-20.925-5.57-27.784 2.922l-13.864 17.164c-7.084 8.771-5.392 21.684 3.713 28.333 8.484 6.196 20.336 4.657 26.957-3.5z"/></g><path d="m231.688 257.969 30.485-47.445 45.905 29.495 9.773-13.124-66.22-39.54-6.218-3.749c-3.285-1.98-7.02-3.07-10.846-3.196l-51.467 31.047c-10.005 6.027-16.966 16.077-19.103 27.589-1.998 10.844-5.076 27.514-7.678 41.503-4.079 22.071 9.874 43.48 31.688 48.722l.696.171c3.168.759 6.419 1.145 9.662 1.145h.002c17.341 0 32.972-10.961 38.893-27.276l6.84-18.854 21.086-4.965z" fill="#ffcebf"/><path d="m495.098 151.673-96.558 52.672c-3.33 1.82-7.42 1.57-10.5-.65l-19.95-14.35c-8.1-5.83-17.82-8.96-27.8-8.96h-70.4c-4.08 0-8.08 1.11-11.58 3.22l-67.47 40.7c-6.34 3.82-10.74 10.18-12.09 17.46-2 10.85-5.08 27.53-7.68 41.51-2.63 14.23 6.33 28.02 20.52 31.43l.61.15c13.06 3.13 26.38-4.04 30.96-16.66l4.84-13.34.32-.89 4.45-12.25 21.299-5.015 245.791-57.875v-54.325c0-2.444-2.616-3.997-4.762-2.827z" fill="#ffeee6"/><g><circle cx="251.852" cy="101.24" fill="#f37c7c" r="101.24"/><path d="m196.401 101.24c0-48.04 33.46-88.264 78.346-98.64-7.357-1.701-15.021-2.6-22.895-2.6-55.913 0-101.24 45.327-101.24 101.24s45.327 101.24 101.24 101.24c7.874 0 15.538-.899 22.894-2.6-44.885-10.376-78.345-50.601-78.345-98.64z" fill="#ee6161"/><path d="m275.837 101.24 20.276-20.277c2.037-2.037 2.037-5.339 0-7.376l-16.609-16.609c-2.037-2.037-5.339-2.037-7.376 0l-20.276 20.277-20.276-20.277c-2.037-2.037-5.339-2.037-7.376 0l-16.609 16.609c-2.037 2.037-2.037 5.339 0 7.376l20.276 20.277-20.276 20.277c-2.037 2.037-2.037 5.339 0 7.375l16.609 16.609c2.037 2.037 5.339 2.037 7.376 0l20.276-20.277 20.276 20.277c2.037 2.037 5.339 2.037 7.376 0l16.609-16.609c2.037-2.037 2.037-5.339 0-7.375z" fill="#f3f0f3"/></g><path d="m83.417 382.621 14.539-18.003c4.128-5.111 10.039-7.945 16.11-8.387-.642-.666-1.343-1.313-2.08-1.91l-.044-.036c-9.791-7.947-24.173-6.434-32.095 3.377l-14.539 18.003c-8.172 10.119-6.232 25.015 4.259 32.704 4.531 3.32 9.928 4.725 15.146 4.347-7.784-8.118-8.616-21.031-1.296-30.095z" fill="#ffdfcf"/><path d="m117.332 412.997 24.957-30.866c3.368-4.166 8.082-6.613 13.001-7.277-.791-.929-1.69-1.813-2.672-2.61l-.058-.047c-8.656-7.026-21.371-5.692-28.38 2.977l-24.957 30.866c-7.315 9.046-5.475 22.389 4.014 29.119 4.335 3.075 9.492 4.202 14.401 3.528-6.105-7.198-6.53-17.993-.306-25.69z" fill="#ffdfcf"/><path d="m151.046 435.609 13.112-16.234c4.407-5.457 10.625-8.572 16.886-9.145-.716-.789-1.525-1.561-2.375-2.251l-.039-.032c-9.657-7.838-24.257-5.835-32.58 4.47l-13.112 16.234c-8.57 10.611-7.095 25.788 3.242 33.352 4.395 3.216 9.705 4.511 14.908 4.043-7.302-8.102-7.616-21.059-.042-30.437z" fill="#ffdfcf"/><path d="m182.016 468.76 13.864-17.164c3.246-4.019 7.759-6.401 12.495-7.096-.816-.985-1.748-1.913-2.779-2.749l-.041-.033c-8.475-6.879-20.925-5.57-27.784 2.922l-13.864 17.164c-7.084 8.771-5.392 21.684 3.713 28.333 4.349 3.176 9.611 4.316 14.571 3.577-5.826-7.051-6.198-17.498-.175-24.954z" fill="#ffdfcf"/></g></svg>