<svg id="Capa_1" enable-background="new 0 0 497.37 497.37" height="512" viewBox="0 0 497.37 497.37" width="512" xmlns="http://www.w3.org/2000/svg"><g><path d="m445.944 488.016v-69.281h-141.675v69.281c0 5.091 4.127 9.219 9.219 9.219h123.238c5.091 0 9.218-4.127 9.218-9.219z" fill="#ffdfcf"/><path d="m193.101 491.544v-78.809h-141.675v78.809c0 3.143 2.548 5.691 5.691 5.691h130.293c3.143 0 5.691-2.548 5.691-5.691z" fill="#ffdfcf"/><g><g id="XMLID_222_"><g><path d="m199.51 84.775c0-13.58 11.01-24.58 24.59-24.58 6.79 0 12.94 2.75 17.38 7.2 4.45 4.44 7.2 10.59 7.2 17.38v89.48 106.47c0 18.76-7 36.86-19.64 50.73l-18.66 20.48 3.13 84.28c.17 4.65-3.55 8.52-8.21 8.52h-165.51c-4.62 0-8.33-3.81-8.21-8.42l2.37-94.58-2.37-44.25 20.42-37.56v-108.56-99.04c0-6.79 2.75-12.93 7.2-17.38 4.44-4.45 10.59-7.2 17.38-7.2 13.58 0 24.59 11 24.59 24.58v-27.6c0-13.58 11.01-24.59 24.58-24.59 6.79 0 12.94 2.75 17.39 7.2s7.2 10.6 7.2 17.39v33.12c0-13.58 11.01-24.58 24.59-24.58 6.79 0 12.93 2.75 17.38 7.2s7.2 10.59 7.2 17.38z" fill="#b0e7c9"/></g></g><g><path d="m81.155 248.669h-29.155v11.256l-20.42 37.56 2.37 44.25-2.37 94.58c-.12 4.61 3.59 8.42 8.21 8.42h29.155c-4.62 0-8.33-3.81-8.21-8.42l2.37-94.58-2.37-44.25 20.42-37.56z" fill="#91deb6"/></g><path d="m52 174.259c11.505 0 20.831-9.326 20.831-20.831v-108.663c0-6.521 2.542-12.439 6.685-16.84-.963-.115-1.942-.18-2.936-.18-6.79 0-12.94 2.75-17.38 7.2-4.45 4.45-7.2 10.59-7.2 17.38v99.04z" fill="#91deb6"/><path d="m122.002 126.264v-111.663c0-5.403 1.748-10.388 4.703-14.443-.317-.012-.634-.024-.954-.024-13.567 0-24.574 11.005-24.58 24.58v99.486 22.894c11.504.002 20.831-9.325 20.831-20.83z" fill="#91deb6"/><g id="XMLID_224_"><g><path d="m396.2 52.325c0-13.58 11.01-24.58 24.59-24.58 6.79 0 12.93 2.75 17.38 7.2s7.2 10.59 7.2 17.38v99.04 82.17l20.42 64.85-2.37 43.35 2.37 94.58c.12 4.61-3.59 8.42-8.21 8.42h-165.51c-4.66 0-8.38-3.87-8.21-8.52l3.13-84.28-18.66-20.48c-12.64-13.87-19.65-31.97-19.65-50.73v-106.47-89.48c0-6.79 2.75-12.94 7.2-17.38 4.45-4.45 10.6-7.2 17.39-7.2 13.58 0 24.59 11 24.59 24.58v-26.93c0-6.79 2.75-12.93 7.2-17.38 4.44-4.45 10.59-7.2 17.38-7.2 13.58 0 24.59 11 24.59 24.58v-33.12c0-6.79 2.75-12.94 7.2-17.39s10.6-7.2 17.39-7.2c13.57 0 24.58 11.01 24.58 24.59z" fill="#b0e7c9"/></g></g><g fill="#91deb6"><path d="m305.396 335.736-10.789-11.841c-12.64-13.87-19.65-31.97-19.65-50.73v-198.95c0-4.367 1.52-9.493 3.658-13.438-1.719-.38-3.513-.582-5.346-.582-6.79 0-12.94 2.75-17.39 7.2-4.45 4.44-7.2 10.59-7.2 17.38v195.95c0 18.76 7.01 36.86 19.65 50.73l18.66 20.48-3.13 84.28c-.17 4.65 3.55 8.52 8.21 8.52h18.163l2.682-88.678c.227-7.493-2.469-14.78-7.518-20.321z"/><path d="m324.139 45.349c0-3.742 1.129-8.04 2.793-11.676-1.454-.268-2.96-.409-4.492-.409-6.79 0-12.94 2.75-17.38 7.2-4.44 4.44-7.186 10.562-7.199 17.334v89.297c14.513 0 26.278-11.765 26.278-26.278z"/><path d="m373.36 14.155c0-4.361 1.532-9.481 3.665-13.423-.936-.21-1.906-.369-2.88-.468-.036-.004-.073-.005-.109-.009-.373-.036-.748-.066-1.126-.086-.208-.01-.418-.012-.627-.017-.213-.006-.424-.016-.638-.016-6.779.007-12.92 2.755-17.364 7.199-4.45 4.44-7.2 10.59-7.2 17.38v122.186c14.513 0 26.278-11.765 26.278-26.278v-106.468z"/><path d="m422.604 38.971c0-3.466.981-7.407 2.445-10.859-1.379-.24-2.811-.368-4.26-.368-12.732 0-23.205 9.669-24.463 22.068v95.905c14.513 0 26.278-11.765 26.278-26.278z"/></g></g><g id="XMLID_221_"><g><path d="m98.415 328.035c16.874 0 30.81-13.537 30.894-30.411.001-.111.001-.222.001-.333v-1.558c0-15.056-3.66-29.977-10.584-43.152-9.257-17.613-22.412-32.797-38.417-44.442-3.535-2.572-5.629-6.677-5.629-11.049v-33.212c0-11.025-3.558-21.842-10.496-30.41-3.508-4.332-7.636-7.905-12.184-10.692v28.588 108.56l-20.42 37.56 1.636 30.55h65.199z" fill="#91deb6"/><path d="m109.31 295.733v1.558c0 26.287-22.031 47.206-48.283 45.846l-27.077-1.403-20.45-19.18c-8.61-8.08-13.5-19.36-13.5-31.17v-75.88-51.761c0-14.976 11.813-27.587 26.786-27.883 7.77-.154 14.813 2.934 19.884 8.005 4.95 4.95 8.01 11.78 8.01 19.33v52.31l5.7 3.41c17.36 10.396 31.363 25.316 40.642 42.972 5.483 10.431 8.288 22.062 8.288 33.846z" fill="#b0e7c9"/><path d="m44.319 326.885c-8.61-8.08-13.5-19.36-13.5-31.17v-75.88-51.761c0-10.763 6.111-20.304 15.103-24.93-5.004-4.637-11.744-7.43-19.135-7.283-14.974.296-26.787 12.907-26.787 27.882v51.761 75.88c0 11.81 4.89 23.09 13.5 31.17l20.45 19.18 27.077 1.403c.214.011 1.827.083 2.04.091z" fill="#91deb6"/></g></g><path d="m150.4 147.096c11.505 0 20.831-9.326 20.831-20.831v-81.96c0-3.963.943-7.7 2.609-11.012-12.531.547-22.623 10.462-23.44 22.92z" fill="#91deb6"/><path d="m199.593 147.096c11.505 0 20.831-9.326 20.831-20.831v-54.098c0-4.345 1.142-8.427 3.121-11.966-12.67.286-22.979 10.151-23.952 22.639z" fill="#91deb6"/><g id="XMLID_223_"><g><path d="m464.169 328.035 1.621-29.65-20.42-64.85v-82.17-28.595c-3.166 1.94-6.126 4.261-8.813 6.953-8.942 8.943-13.867 20.83-13.867 33.472v41.073c-23.709 15.416-41.866 38.354-51.388 65.058-2.152 6.035-3.243 12.392-3.243 18.894 0 .143 0 .286.001.43.126 21.846 18.118 39.386 39.965 39.386h56.144z" fill="#91deb6"/><path d="m497.37 215.505v75.88c0 11.81-4.89 23.09-13.5 31.17l-20.45 19.18-24.168-.738c-28.522-.87-51.192-24.243-51.192-52.778 0-4.147.688-8.271 2.081-12.177 8.496-23.825 25.017-44.054 46.849-57.128l5.7-3.41v-52.31c0-7.55 3.06-14.38 8.01-19.33 9.246-9.265 25.148-11.909 39.903-.261 4.257 3.361 6.767 8.473 6.767 13.896z" fill="#b0e7c9"/></g></g></g></svg>