<svg id="Capa_1" enable-background="new 0 0 497.117 497.117" height="512" viewBox="0 0 497.117 497.117" width="512" xmlns="http://www.w3.org/2000/svg"><g><path d="m435.887 62.89c10.3 5.15 15.53 16.84 12.51 27.95l-49.62 182.42-1.74 81.28c-.51 22.49-7.6 44.34-20.39 62.85l-2.26 3.28-11.2 5.06-.11 11.3-.47.68v44.41c0 8.27-6.71 14.98-14.99 14.98h-144.95c-8.28 0-14.98-6.71-14.98-14.98v-52.48c-22.31-10.64-38.24-31.24-42.92-55.51l-1.42-7.36-77.98-42.8c-11.16-6.13-17.49-17.66-17.49-29.57 0-5.37 1.28-10.81 3.99-15.87 5.85-10.94 16.93-17.39 28.59-17.78.93-.03 1.86-.02 2.79.03 4.1.21 8.22 1.19 12.17 2.98l59.92 27.24.03-.03.07.03 3.3-4.46c3.45-4.66 7.25-9.04 11.39-13.08 4.13-4.04 8.58-7.75 13.32-11.09l-56.54-207.86c-.69-2.53-1.02-5.08-1.02-7.59 0-11.81 7.3-22.78 18.86-27.05 2.89-1.07 5.84-1.65 8.75-1.77.76-.03 1.51-.03 2.27-.01 11.5.45 22.13 7.82 26.14 19.4l61.3 176.93v-.29l.1.29v-186.68c0-7.66 3.1-14.6 8.12-19.62 4.71-4.71 11.09-7.72 18.18-8.08.44-.03.88-.04 1.33-.04.47 0 .94.01 1.4.03 14.42.72 25.98 12.46 26.33 27.04l4.19 173.65.09-.56.01.56 25.69-166.68c1.9-12.28 12.21-21.07 24.03-21.6.8-.05 1.59-.04 2.4.01 1.35.07 2.71.25 4.08.54 12.52 2.72 21.09 14.29 20.02 27.06l-13.45 160.67.14-.48-.04.48 36.19-123.04c3.04-10.36 12.28-16.93 22.22-17.33.29-.01 1.07-.02 1.07-.02.33 0 3.25.25 3.25.25 2.47.36 4.95 1.12 7.33 2.31z" fill="#ffdfcf"/><path d="m366.145 199.96c14.904 0 27.977-9.942 31.959-24.304l31.02-111.892c.276-.996.619-1.966.984-2.906-1.631-.342-3.28-.51-4.906-.51-10.31 0-20.05 6.66-23.19 17.35l-34.055 115.782z" fill="#ffcebf"/><g><g id="XMLID_225_"><g><path d="m374.386 420.686-11.31 16.36.11-11.3z" fill="#ffdfcf"/></g></g><path d="m379.253 444.048-17.634-8.098c-24.754-11.369-40.619-36.114-40.619-63.354v-41.473c0-1.538 1.062-2.872 2.561-3.216l57.553-13.216c.486-.112.991-.112 1.477 0l57.553 13.216c1.499.344 2.561 1.678 2.561 3.216v41.473c0 27.24-15.865 51.984-40.619 63.353l-17.634 8.098c-1.65.759-3.549.759-5.199.001z" fill="#91deb6"/><g><g><path d="m381.853 407.046c-1.679 0-3.322-.564-4.656-1.621l-21.134-16.737c-3.247-2.572-3.795-7.289-1.223-10.536 2.572-3.248 7.289-3.795 10.536-1.223l14.716 11.655 26.929-40.891c2.279-3.46 6.929-4.417 10.389-2.139 3.459 2.278 4.417 6.929 2.139 10.389l-31.432 47.728c-1.157 1.756-2.998 2.946-5.074 3.28-.397.063-.795.095-1.19.095z" fill="#f3f0f3"/></g></g></g><path d="m183.436 262.39c13.733-11.202 19.59-29.443 14.938-46.544l-48.774-179.312c-.69-2.53-1.02-5.08-1.02-7.59 0-3.654.72-7.254 2.028-10.574-1.958.286-3.935.804-5.867 1.518-11.56 4.27-18.86 15.24-18.86 27.05 0 2.51.33 5.06 1.02 7.59l56.54 207.86c-.004.002-.008.005-.005.002z" fill="#ffcebf"/><g><path d="m216.312 415.805c0-5.56-2.922-10.675-7.641-13.613-18.28-11.381-31.152-29.927-35.279-51.326-.9-4.662-3.829-8.682-7.991-10.967l-71.409-39.193c-11.16-6.13-17.49-17.66-17.49-29.57 0-3.41.537-6.873 1.608-10.224-10.777 1.124-20.794 7.441-26.25 17.637-2.71 5.06-3.99 10.5-3.99 15.87 0 11.91 6.33 23.44 17.49 29.57l77.98 42.8 1.42 7.36c4.68 24.27 20.61 44.87 42.92 55.51v52.474c0 8.277 6.71 14.986 14.986 14.986h13.646z" fill="#ffcebf"/></g><g fill="#ffcebf"><path d="m243.3 214.532c14.183 0 25.7-11.46 25.771-25.642l.861-172.44c.011-2.622.374-5.168 1.045-7.587.857-3.091 2.23-5.982 4.003-8.569-1.287-.183-2.612-.277-3.949-.277-7.66 0-14.59 3.1-19.61 8.12s-8.12 11.96-8.069 19.624z"/><path d="m303.071 199.96c14.961 0 27.678-10.931 29.926-25.722l23.159-152.431c.392-2.593 1.122-5.059 2.137-7.354.225-.508.488-1 .741-1.491-1.745-.358-3.496-.534-5.213-.534-12.3 0-23.22 8.95-25.18 21.63z"/></g></g></svg>