<svg id="Capa_1" enable-background="new 0 0 496.29 496.29" height="512" viewBox="0 0 496.29 496.29" width="512" xmlns="http://www.w3.org/2000/svg"><g><circle cx="248.955" cy="171.866" fill="#91deb6" r="170.609"/><path d="m151.42 171.866c0-81.682 57.432-149.953 134.098-166.682-11.772-2.569-24.02-3.927-36.562-3.927-94.225 0-170.609 76.384-170.609 170.609s76.384 170.609 170.609 170.609c12.543 0 24.765-1.366 36.537-3.935-76.666-16.729-134.073-84.992-134.073-166.674z" fill="#6ed5a1"/><circle cx="248.145" cy="171.866" fill="#b9eacf" r="135.049"/><path d="m211.617 41.818c-56.842 15.93-98.521 68.119-98.521 130.048 0 61.924 41.679 114.108 98.513 130.044-36.822-31.291-60.189-77.934-60.189-130.044 0-52.109 23.368-98.755 60.197-130.048z" fill="#91deb6"/><path d="m305.523 146.588h-31.245v-31.245c0-4.063-3.293-7.356-7.356-7.356h-35.843c-4.063 0-7.356 3.294-7.356 7.356v31.245h-31.245c-4.063 0-7.356 3.294-7.356 7.356v35.843c0 4.063 3.294 7.356 7.356 7.356h31.245v31.245c0 4.063 3.293 7.356 7.356 7.356h35.843c4.063 0 7.356-3.294 7.356-7.356v-31.245h31.245c4.063 0 7.356-3.294 7.356-7.356v-35.843c0-4.063-3.293-7.356-7.356-7.356z" fill="#f3f0f3"/><path d="m166.661 319.38-68.407-68.407c-9.571-9.571-25.09-9.571-34.661 0-9.571 9.571-9.571 25.09 0 34.661l86.323 86.323 67.209 56.921 29.3-36.091z" fill="#ffdfcf"/><path d="m167.148 358.779-86.323-86.323c-7.633-7.633-9.158-19.04-4.617-28.205-4.622.902-9.034 3.141-12.615 6.721-9.571 9.571-9.571 25.089 0 34.661l86.323 86.323 67.209 56.921 13.36-16.457z" fill="#ffcebf"/><path d="m226.692 307.875-71.871-71.871c-9.877-9.877-25.891-9.877-35.768 0-9.877 9.877-9.877 25.891 0 35.768l49.041 49.041 49.03 48.971 35.756-37.371z" fill="#ffdfcf"/><path d="m185.445 309.246-49.041-49.041c-8.488-8.488-9.686-21.51-3.585-31.273-5.044.826-9.876 3.182-13.766 7.072-9.877 9.877-9.877 25.891 0 35.768l49.041 49.041 49.03 48.971 14.137-14.776z" fill="#ffcebf"/><path d="m407.9 318.663c-.73-.7-1.24-1.6-1.51-2.58-7.89-28.54-34.04-49.49-65.09-49.49-25.88 0-48.36 14.57-59.7 35.95-1.73 3.26-5.08 5.33-8.78 5.33h-79c-17.7 0-32.04 14.35-32.04 32.04 0 8.85 3.58 16.86 9.38 22.66s13.81 9.38 22.66 9.38h-43.9l-103.59-103.58c-10.6-10.6-27.78-10.6-38.38 0s-10.6 27.78 0 38.38l128.28 129.28c8.76 8.83 20.68 13.79 33.12 13.79h174.521c2.554 0 5.003 1.015 6.807 2.822l41.358 41.4c1.256 1.257 3.271 1.325 4.608.156l98.492-86.082c1.487-1.3 1.545-3.594.125-4.967z" fill="#ffeee6"/><path d="m272.47 364.453s-55.285-.007-75.746-.011c-4.143-.001-7.496 3.357-7.496 7.5 0 4.141 3.351 7.499 7.492 7.5 20.458.004 75.749.012 75.749.012 4.143 0 7.5-3.358 7.5-7.5s-3.357-7.501-7.499-7.501z" fill="#ffdfcf"/><g><path d="m367.504 427.967c-1.805-1.807-4.254-2.822-6.807-2.822h-174.522c-12.44 0-24.36-4.96-33.12-13.79l-128.28-129.28c-5.41-5.41-8.045-12.541-7.932-19.63-3.232 1.325-6.268 3.303-8.893 5.928-10.6 10.6-10.6 27.78 0 38.38l128.28 129.28c8.76 8.83 20.68 13.79 33.12 13.79h174.521c2.554 0 5.003 1.015 6.808 2.822l41.358 41.4c1.255 1.257 3.271 1.325 4.608.156l19.429-16.981z" fill="#ffdfcf"/></g></g></svg>