<svg id="Capa_1" enable-background="new 0 0 497.6 497.6" height="512" viewBox="0 0 497.6 497.6" width="512" xmlns="http://www.w3.org/2000/svg"><g><path d="m367.796 379.548c3.317 5.794 5.119 12.568 4.865 19.779-.69 19.609-16.946 35.523-36.565 35.822-7.324.112-14.168-1.898-19.965-5.453-3.959-2.428-9.053-1.551-12.155 1.905-5.177 5.768-12.689 9.396-21.05 9.396-12.453 0-23.026-8.046-26.804-19.224 0 0-8.902-61.352-8.576-62.327.325-.976 105.053-25.369 105.053-25.369z" fill="#f9f3f1"/><path d="m179.095 129.032c.382-1.812.583-3.69.583-5.616 0-14.954-12.122-27.076-27.076-27.076-14.286 0-25.979 11.066-26.996 25.092-2.191-.572-4.49-.879-6.86-.879-14.954 0-27.076 12.122-27.076 27.076 0 5.608 1.705 10.817 4.624 15.138l39.38 52.162 79.568-30.431 8.452-34.007z" fill="#f9f3f1"/><g id="XMLID_245_"><g><g id="XMLID_246_"><g><path d="m209.389 336.73-91.839 34.515v16.805l67.78 48.31c18.25 13.01 43.15 11.34 59.5-3.99l43.58-40.86 3.65-3.46 20.875-14.825z" fill="#ffdfcf"/></g></g></g></g><path d="m288.41 368.262-43.58 40.86c-16.35 15.33-41.25 17-59.5 3.99l-61.862-44.092-5.919 2.224v16.805l67.78 48.31c18.25 13.01 43.15 11.34 59.5-3.99l43.58-40.86 3.65-3.46 20.875-14.825-21.694-7.646z" fill="#ffcebf"/><g><path d="m220.514 414.336c-2.124 0-4.234-.897-5.718-2.643l-15.966-18.785c-.087-.103-.171-.207-.252-.314l-27.826-36.546c-2.509-3.295-1.872-8.001 1.424-10.511 3.296-2.507 8-1.871 10.511 1.424l27.704 36.385 15.836 18.631c2.682 3.156 2.298 7.89-.857 10.572-1.412 1.201-3.138 1.787-4.856 1.787z" fill="#ffcebf"/></g><g id="XMLID_380_"><g><path d="m497.6 186.645v144.401c0 6.597-5.348 11.945-11.945 11.945h-36.695l-5.35 5.62c-18.808 19.757-44.893 30.94-72.171 30.94h-56.089l-39.79-.38v-204.47l-68.8-3.8c-17.57-.97-31.31-15.5-31.31-33.09 0-2.72 1-5.23 2.66-7.17 1.67-1.94 4.01-3.29 6.7-3.69l120.45-17.97c47.59-7.1 95.25 12.36 124.27 50.73l11.34 14.99h44.785c6.597 0 11.945 5.347 11.945 11.944z" fill="#ffcebf"/></g></g><g><path d="m485.655 308.159h-28.936c-4.955 0-9.693 2.031-13.109 5.62-18.808 19.757-44.893 30.94-72.171 30.94l-95.879-.38v34.832l95.879.38c27.278 0 53.363-11.183 72.171-30.94l5.35-5.62h36.695c6.597 0 11.945-5.348 11.945-11.945v-34.832c0 6.597-5.348 11.945-11.945 11.945z" fill="#ffb09e"/></g><path d="m331.315 306.865c3.896 1.367 8.084 2.11 12.447 2.11 20.754 0 37.578-16.824 37.578-37.578 0-12.626-6.233-23.789-15.783-30.603 8.519-9.584 13.701-22.2 13.701-36.032 0-29.973-24.298-54.271-54.271-54.271-18.733 0-35.25 9.491-45.002 23.928l-28.637 55.314v76.026z" fill="#f9f3f1"/><path d="m283.77 229.51h7.689c14.465 0 26.649 11.405 26.945 25.866.154 7.519-2.834 14.343-7.734 19.244-4.78 4.78-11.38 7.74-18.68 7.74h11.7c14.478 0 26.667 11.425 26.945 25.9.144 7.506-2.842 14.307-7.735 19.2-4.78 4.78-11.39 7.74-18.68 7.74h-8.28c14.59 0 26.42 11.83 26.42 26.43 0 7.29-2.96 13.9-7.74 18.68s-11.39 7.74-18.68 7.74h-3.88-111.43-63.08l-75.28-53.65c-3.01-2.14-6.85-2.75-10.37-1.64l-17.457 5.478c-7.16 2.247-14.443-3.101-14.443-10.605v-134.705c0-5.151 3.539-9.627 8.55-10.815l70.39-16.692c3.68-.86 7.46-1.18 11.23-.97l195.1 10.79c7.2.4 13.61 3.58 18.22 8.45 4.62 4.88 7.43 11.45 7.43 18.66 0 14.999-12.15 27.159-27.15 27.159z" fill="#ffdfcf"/><g><path d="m314.62 352.832c-4.78 4.78-11.39 7.74-18.68 7.74h-3.88-111.43-63.08l-75.28-53.65c-3.01-2.14-6.85-2.75-10.37-1.64l-17.457 5.478c-7.16 2.246-14.443-3.102-14.443-10.606v27.479c0 7.504 7.283 12.852 14.443 10.605l17.457-5.478c3.52-1.11 7.36-.5 10.37 1.64l75.28 53.65h63.08 111.43 3.88c7.29 0 13.9-2.96 18.68-7.74s7.74-11.39 7.74-18.68c0-5.035-1.408-9.74-3.85-13.745-1.099 1.803-2.406 3.463-3.89 4.947z" fill="#ffcebf"/></g><g fill="#f9f3f1"><circle cx="438.797" cy="451.993" r="38.424"/><path d="m108.516 246.987c2.689-5 4.098-10.79 3.78-16.934-.834-16.118-13.79-29.314-29.892-30.413-18.805-1.284-34.458 13.59-34.458 32.12 0 15.404 10.82 28.274 25.273 31.443-.422 2.64-.417 5.422.161 8.291 2.061 10.238 10.823 18.014 21.24 18.741 13.669.954 25.054-9.852 25.054-23.317 0-8.432-4.465-15.819-11.158-19.931z"/><circle cx="151.827" cy="49.439" r="17.687"/><circle cx="54.774" cy="36.219" r="29.036"/></g></g></svg>