<svg id="Capa_1" enable-background="new 0 0 497.701 497.701" height="512" viewBox="0 0 497.701 497.701" width="512" xmlns="http://www.w3.org/2000/svg"><g><path d="m308.606 200.884c0-16.337-13.244-29.582-29.582-29.582-10.748 0-20.156 5.733-25.337 14.308-6.762-6.803-16.126-11.016-26.476-11.016-12.617 0-23.772 6.259-30.53 15.841l-50.876 66.845 54.179 103.603 120.069-16.485z" fill="#f9f3f1"/><g><path d="m375.762 435.683c-3.16-2.317-7.45-2.26-10.586.089-9.58 7.176-21.279 11.107-33.366 11.107h-52.1c-13.7 0-26.91-5.05-37.12-14.19l-15.38-13.76-10.44-27.5 10.44-97.27 2.86-27.85c1.57-15.19 13.19-27.42 28.29-29.75l11.87-1.83 7.92-14.08c6.91-12.29 20.75-18.95 34.66-16.68l25.35 4.12 12.68-10.88c12.04-10.33 29.66-10.83 42.26-1.2l10.07 7.69 11.23-4.02c13.66-4.9 28.93-.46 37.84 11.01l11.77 15.15c20.12 25.89 29.15 58.7 25.14 91.23l-3.22 26.03 8.248 6.497c2.911 2.293 4.171 6.105 3.2 9.681l-34.942 128.661c-1.232 4.535-6.63 6.423-10.42 3.645z" fill="#ffdfcf"/></g><g><path d="m375.762 435.683c-3.16-2.317-7.45-2.26-10.586.089-9.58 7.176-21.279 11.107-33.366 11.107h-52.1c-13.7 0-26.91-5.05-37.12-14.19l-15.38-13.76-10.44-27.5 10.44-97.27 2.86-27.85c1.57-15.19 13.19-27.42 28.29-29.75l11.87-1.83 7.92-14.08c6.91-12.29 20.75-18.95 34.66-16.68l25.35 4.12 12.68-10.88c12.04-10.33 29.66-10.83 42.26-1.2l10.07 7.69 11.23-4.02c13.66-4.9 28.93-.46 37.84 11.01l11.77 15.15c20.12 25.89 29.15 58.7 25.14 91.23l-3.22 26.03 8.248 6.497c2.911 2.293 4.171 6.105 3.2 9.681l-34.942 128.661c-1.232 4.535-6.63 6.423-10.42 3.645z" fill="#ffdfcf"/></g><path d="m461.539 461.884-76.254-55.901c-3.16-2.317-7.45-2.26-10.586.089-9.58 7.176-21.279 11.107-33.366 11.107h-52.1c-5.138 0-12.977-3.19-20.769-7.177-13.63-6.974-15.856-25.563-4.384-35.702 5.53-4.887 9.955-8.726 9.955-8.726l-13.464-89.224-6.525.569-25.278 2.07-1.558 15.171-10.44 97.27 10.44 27.5 15.38 13.76c10.21 9.14 23.42 14.19 37.12 14.19h52.1c12.086 0 23.785-3.931 33.365-11.107 3.136-2.349 7.426-2.405 10.586-.089l76.254 55.901c3.79 2.778 9.188.89 10.42-3.645l7.093-26.118c-2.244 1.685-5.469 1.91-7.989.062z" fill="#ffcebf"/><g><path d="m147.52 88.809c0-13.58 11.01-24.59 24.58-24.59 6.79 0 12.94 2.75 17.39 7.2s7.2 10.6 7.2 17.39v175.42c0 2.153 1.174 4.144 3.074 5.156 7.564 4.029 12.724 10.402 14.276 20.334.48 3.06 3.2 5.26 6.29 5.01l34.94-2.86 7.68-.67c6.18 18.9 8.43 38.79 6.72 58.47l-39.13 32.73c-2.12 1.99-3.33 4.77-3.33 7.68v91.498c0 8.71-7.061 15.772-15.772 15.772h-157.366c-8.71 0-15.772-7.061-15.772-15.772v-56.158l-18.66-20.48c-12.63-13.88-19.64-31.97-19.64-50.74v-232.94c0-6.79 2.75-12.94 7.2-17.39s10.6-7.2 17.39-7.2c13.58 0 24.58 11.01 24.58 24.59v-26.93c0-6.79 2.75-12.93 7.2-17.38s10.6-7.2 17.39-7.2c13.58 0 24.59 11 24.59 24.58v-33.12c0-6.79 2.75-12.94 7.2-17.39 4.543-4.553 10.876-7.327 17.853-7.196 13.487.253 24.117 11.649 24.117 25.139z" fill="#ffdfcf"/></g><g><path d="m65.873 481.578v-56.158l-18.66-20.48c-12.63-13.88-19.64-31.97-19.64-50.74v-232.94c0-6.79 2.75-12.94 7.2-17.39 1.101-1.101 2.306-2.097 3.599-2.974-3.93-2.667-8.673-4.226-13.782-4.226-6.79 0-12.94 2.75-17.39 7.2s-7.2 10.6-7.2 17.39v232.94c0 18.77 7.01 36.86 19.64 50.74l18.66 20.48v56.158c0 8.71 7.061 15.772 15.772 15.772h27.573c-8.711-.001-15.772-7.062-15.772-15.772z" fill="#ffcebf"/></g><g fill="#f9f3f1"><path d="m145.654 304.251c-1.477-15.615-14.064-28.223-29.676-29.723-16.681-1.602-31.12 9.187-35.212 24.24-.638 2.346-2.871 3.957-5.296 3.779-1.516-.111-3.072-.076-4.656.122-10.745 1.341-19.301 10.105-20.347 20.883-1.357 13.98 9.594 25.75 23.295 25.75.448 0 .893-.016 1.335-.04-.002.135-.01.268-.01.403 0 15.532 12.682 28.102 28.256 27.919 14.558-.171 26.758-11.839 27.544-26.377.2-3.703-.326-7.257-1.445-10.537-.759-2.226.165-4.64 2.098-5.979 9.431-6.538 15.305-17.846 14.114-30.44z"/><path d="m370.15 280.485c0-16.053-13.526-28.947-29.803-27.908-13.683.874-24.888 11.84-26.03 25.504-.74 8.862 2.656 16.949 8.468 22.546 3.64 3.505 5.54 8.343 5.595 13.396.004.373.019.749.046 1.127.701 10.01 9.338 17.914 19.371 17.735 10.372-.185 18.724-8.651 18.724-19.068 0-2.156-.36-4.226-1.023-6.156-1.558-4.539-1.061-9.58 1.241-13.79 2.175-3.975 3.411-8.535 3.411-13.386z"/><circle cx="363.094" cy="114.787" r="18.108"/><circle cx="280.858" cy="51.637" r="24.941"/><circle cx="404.517" cy="31.62" r="31.268"/></g><g><g><path d="m261.84 393.351c-.829 0-1.671-.138-2.498-.43-3.906-1.379-5.954-5.664-4.574-9.569 3.906-11.061 6.406-22.613 7.43-34.335 1.639-18.863-.506-37.533-6.377-55.486-1.758-5.388-3.872-10.725-6.282-15.867l-1.06-2.26c-1.759-3.75-.145-8.216 3.606-9.975 3.751-1.757 8.217-.144 9.975 3.606l1.061 2.26c2.671 5.697 5.013 11.611 6.959 17.578 6.501 19.88 8.877 40.555 7.062 61.446-1.134 12.983-3.903 25.776-8.23 38.028-1.088 3.079-3.982 5.004-7.072 5.004z" fill="#ffcebf"/></g></g><g fill="#ffcebf"><path d="m49.164 214.267c15.228 0 27.573-12.345 27.573-27.573v-93.948c0-6.79 2.75-12.94 7.2-17.39.765-.765 1.596-1.458 2.456-2.117-3.693-2.215-8.014-3.49-12.633-3.49-6.79 0-12.94 2.75-17.39 7.2s-7.2 10.59-7.2 17.38v26.93c0-.076-.005-.151-.006-.227z"/><path d="m98.354 214.267c15.228 0 27.573-12.345 27.573-27.573v-127.349c0-6.79 2.75-12.94 7.2-17.39.682-.682 1.417-1.309 2.176-1.907-3.495-2.096-7.544-3.343-11.894-3.424-6.977-.131-13.31 2.642-17.853 7.196-4.45 4.45-7.2 10.6-7.2 17.39z"/><path d="m147.634 214.267c15.228 0 27.573-12.345 27.573-27.573v-110.415c0-4.094 1.018-7.958 2.787-11.354-1.885-.462-3.866-.706-5.894-.706-12.779 0-23.284 9.765-24.58 22.328v127.72z"/></g></g></svg>