<svg id="Capa_1" enable-background="new 0 0 496.29 496.29" height="512" viewBox="0 0 496.29 496.29" width="512" xmlns="http://www.w3.org/2000/svg"><g><path d="m375.688 240.982c4.378-5.452 7.003-12.371 7.003-19.907 0-17.576-14.248-31.825-31.825-31.825-7.358 0-14.128 2.504-19.518 6.697l-49.904 45.034 16.359 53.17 63.032-15.397z" fill="#f3eae6"/><path d="m336.16 231.882c1.329-4.085 2.048-8.445 2.048-12.974 0-23.131-18.752-41.883-41.883-41.883-15.256 0-28.603 8.159-35.925 20.35-2.521-.854-5.219-1.324-8.029-1.324-9.138 0-17.128 4.9-21.496 12.213-6.938-5.538-15.725-8.856-25.292-8.856-13.04 0-24.644 6.15-32.069 15.708l-40.204 41.85 90.311 74.064 97.001-23.414z" fill="#f9f3f1"/><path d="m166.661 283.838-68.407-68.407c-9.571-9.571-25.09-9.571-34.661 0-9.571 9.571-9.571 25.09 0 34.661l86.323 86.323 67.209 56.921 29.3-36.091z" fill="#ffdfcf"/><path d="m226.692 272.334-71.871-71.871c-9.877-9.877-25.891-9.877-35.768 0-9.877 9.877-9.877 25.891 0 35.768l49.041 49.041 49.03 48.971 35.756-37.371z" fill="#ffdfcf"/><path d="m167.148 323.237-86.323-86.323c-7.633-7.633-9.158-19.04-4.617-28.205-4.622.902-9.034 3.141-12.615 6.721-9.571 9.571-9.571 25.089 0 34.661l86.323 86.323 67.209 56.921 13.36-16.457z" fill="#ffcebf"/><path d="m185.445 273.705-49.041-49.041c-8.488-8.488-9.686-21.51-3.585-31.273-5.044.826-9.876 3.182-13.766 7.072-9.877 9.877-9.877 25.891 0 35.768l49.041 49.041 49.03 48.971 14.137-14.776z" fill="#ffcebf"/><g><g><path d="m407.9 283.121c-.73-.7-1.24-1.6-1.51-2.58-7.89-28.54-34.04-49.49-65.09-49.49-25.88 0-48.36 14.57-59.7 35.95-1.73 3.26-5.08 5.33-8.78 5.33h-79c-17.7 0-32.04 14.35-32.04 32.04 0 8.85 3.58 16.86 9.38 22.66s13.81 9.38 22.66 9.38h-43.9l-103.59-103.58c-10.6-10.6-27.78-10.6-38.38 0s-10.6 27.78 0 38.38l128.28 129.28c8.76 8.83 20.68 13.79 33.12 13.79h174.521c2.554 0 5.003 1.015 6.807 2.822l41.358 41.4c1.256 1.257 3.271 1.325 4.608.156l98.492-86.082c1.487-1.3 1.545-3.594.125-4.967z" fill="#ffeee6"/></g><g fill="#f9f3f1"><path d="m452.288 306.008c-4.588-16.703-22.385-26.232-39.017-20.407-14.253 4.992-22.651 20.126-19.372 34.867 1.847 8.305 6.905 14.975 13.528 19.078 1.945 1.205 2.993 3.424 2.848 5.707-.167 2.613.133 5.305.964 7.967 3.469 11.109 15.311 17.666 26.571 14.722 11.887-3.108 18.911-15.317 15.667-27.131-.667-2.428-1.717-4.648-3.065-6.614-1.283-1.87-1.509-4.302-.46-6.312 3.392-6.5 4.431-14.248 2.336-21.877z"/><circle cx="234.837" cy="81.227" r="44.429"/><circle cx="338.208" cy="118.023" r="26.789"/></g></g><g><path d="m273.63 331.042s-55.285-.007-75.746-.011c-4.143-.001-7.496 3.357-7.496 7.5 0 4.141 3.351 7.499 7.492 7.5 20.458.004 75.749.012 75.749.012 4.143 0 7.5-3.358 7.5-7.5s-3.357-7.501-7.499-7.501z" fill="#ffdfcf"/></g><g><path d="m367.504 392.425c-1.805-1.807-4.254-2.822-6.807-2.822h-174.522c-12.44 0-24.36-4.96-33.12-13.79l-128.28-129.28c-5.41-5.41-8.045-12.541-7.932-19.63-3.232 1.325-6.268 3.303-8.893 5.928-10.6 10.6-10.6 27.78 0 38.38l128.28 129.28c8.76 8.83 20.68 13.79 33.12 13.79h174.521c2.554 0 5.003 1.015 6.808 2.822l41.358 41.4c1.255 1.257 3.271 1.325 4.608.156l19.429-16.981z" fill="#ffdfcf"/></g></g></svg>