<svg id="Capa_1" enable-background="new 0 0 499.491 499.491" height="512" viewBox="0 0 499.491 499.491" width="512" xmlns="http://www.w3.org/2000/svg"><g><circle cx="420.125" cy="256.274" fill="#f9f3f1" r="30.896"/><path d="m224.623 499.491h97.535c5.272 0 9.545-4.274 9.545-9.545v-123.429h-116.625v123.429c0 5.271 4.274 9.545 9.545 9.545z" fill="#ffdfcf"/><path d="m246.85 382.243h84.855v-15.726h-116.627v123.429c0 5.272 4.274 9.545 9.545 9.545h22.226v-117.248z" fill="#ffcebf"/><g><g><g id="XMLID_381_"><g><path d="m492.913 421.357c2.793 2.885 2.074 7.637-1.448 9.565l-119.235 65.287c-2.397 1.312-5.375.865-7.28-1.094l-112.636-115.775-85.19-57.22-23.65-24.67-131.81-83.3c-8.02-5.07-11.35-15.09-7.96-23.96 3.08-8.05 10.71-12.81 18.63-12.81 3.49 0 7.03.92 10.27 2.88l90.55 54.66-97.69-90.22c-7.76-7.17-9-18.98-2.9-27.6 4.12-5.82 10.62-8.89 17.2-8.89 4.6 0 9.25 1.51 13.14 4.63l108.49 87.05-94.2-107.93c-8.17-9.36-7.37-23.52 1.78-31.91 4.39-4.03 9.93-6.01 15.45-6.01 6.19 0 12.36 2.5 16.87 7.42l104.01 113.53-61.3-141.75c-5.29-12.23.5-26.43 12.84-31.47 2.94-1.2 5.99-1.77 8.99-1.77 8.67 0 16.96 4.76 21.16 12.89l81.42 157.91c3.78-.48 7.58-.72 11.37-.72 5.74 0 11.47.55 17.12 1.65l4.49.88 21.27-49.95c5.74-13.48 20.95-20.19 34.77-15.33 11.42 4.01 18.59 14.74 18.59 26.22 0 2.96-.48 5.96-1.48 8.92l-23.58 69.48 3.24 5.27c5.64 9.17 8.8 19.48 9.4 29.95l5.17 41.56z" fill="#ffdfcf"/></g></g></g><g><path d="m344.712 147.889 9.669-22.707c2.42-5.684 6.548-10.167 11.521-13.084-2.452-2.02-5.299-3.655-8.468-4.768-13.82-4.86-29.03 1.85-34.77 15.33l-21.27 49.95s36.546-8.817 43.318-24.721z" fill="#ffdfcf"/></g><g fill="#ffcebf"><path d="m163.144 14.25c-2.033-4.541-2.227-9.498-.841-13.983-1.836.277-3.668.771-5.459 1.502-12.34 5.04-18.13 19.24-12.84 31.47l61.3 141.75c13.755-5.348 20.246-21.105 14.244-34.587-19.074-42.847-56.404-126.152-56.404-126.152z"/><path d="m43.24 108.501c-1.153-.194-2.316-.291-3.476-.291-6.58 0-13.08 3.07-17.2 8.89-6.1 8.62-4.86 20.43 2.9 27.6l99.056 91.448c9.397-11.886 7.986-29.019-3.229-39.207l-72.91-66.241c-5.398-4.906-6.768-14.952-5.141-22.199z"/><path d="m161.394 199.89c11.662-7.532 14.044-23.601 5.067-34.191l-75.023-88.507c-4.792-5.654-4.497-15.622-1.784-22.55-1.716-.401-3.473-.603-5.23-.603-5.52 0-11.06 1.98-15.45 6.01-9.15 8.39-9.95 22.55-1.78 31.91z"/></g><path d="m383.88 252.948c14.801-4.169 23.42-19.548 19.25-34.349s-19.548-23.42-34.349-19.25c-7.126 2.007-12.812 6.617-16.335 12.505l.001-.014c-3.125-.976-9.712-2.727-13.158-2.727-18.317 0-33.166 14.849-33.166 33.166 0 6.473 1.861 12.509 5.068 17.613-7.47 4.499-12.467 12.685-12.467 22.041 0 14.201 11.512 25.713 25.713 25.713 8.185 0 15.477-3.824 20.186-9.784l.373-4.101c5.401 3.431 12.183 4.64 18.827 2.769 12.393-3.493 23.549-31.188 20.057-43.582" fill="#f9f3f1"/><path d="m397.547 275.303-22.229 22.229c-8.572 8.572-22.47 8.572-31.043 0-8.572-8.572-8.572-22.47 0-31.043l22.229-22.229c8.572-8.572 22.47-8.572 31.043 0 8.572 8.572 8.572 22.47 0 31.043z" fill="#ffeee6"/><path d="m428.59 306.345-22.229 22.229c-8.572 8.572-22.47 8.572-31.043 0-8.572-8.572-8.572-22.47 0-31.043l22.229-22.229c8.572-8.572 22.47-8.572 31.043 0 8.572 8.573 8.572 22.471 0 31.043z" fill="#ffeee6"/><path d="m464.792 372.145c-.604 0-1.331-.023-2.159-.066-1-12.238-11.242-21.859-23.738-21.859-10.532 0-19.461 6.837-22.609 16.312-.065-.009-.102-.015-.102-.015-5.752 4.425-9.46 11.378-9.46 19.197 0 9.132 5.059 17.08 12.525 21.202-1.929 3.475-3.031 7.472-3.031 11.728 0 13.368 10.837 24.205 24.205 24.205 11.801 0 21.624-8.447 23.766-19.623.146.003.292.011.439.011 6.429 0 12.27-2.51 16.604-6.6 5.412-4.638 8.845-11.518 8.845-19.204.002-13.966-11.319-25.288-25.285-25.288z" fill="#f9f3f1"/><path d="m459.632 337.388-22.229 22.229c-8.572 8.572-22.47 8.572-31.043 0-8.572-8.572-8.572-22.47 0-31.043l22.229-22.229c8.572-8.572 22.47-8.572 31.043 0 8.573 8.572 8.573 22.471 0 31.043z" fill="#ffeee6"/><path d="m490.675 368.43-22.229 22.229c-8.572 8.572-22.47 8.572-31.043 0-8.572-8.572-8.572-22.47 0-31.043l22.229-22.229c8.572-8.572 22.47-8.572 31.043 0 8.572 8.573 8.572 22.471 0 31.043z" fill="#ffeee6"/><g fill="#ffdfcf"><path d="m357.663 279.877 22.229-22.229c6.172-6.172 15.097-7.875 22.815-5.16-1.056-3.002-2.759-5.827-5.16-8.228-8.572-8.572-22.47-8.572-31.043 0l-22.229 22.229c-8.572 8.572-8.572 22.47 0 31.043 2.401 2.401 5.226 4.104 8.228 5.16-2.715-7.718-1.011-16.644 5.16-22.815z"/><path d="m388.706 310.919 22.229-22.229c6.172-6.172 15.097-7.875 22.815-5.16-1.056-3.002-2.759-5.827-5.16-8.228-8.572-8.572-22.47-8.572-31.042 0l-22.229 22.229c-8.572 8.572-8.572 22.47 0 31.043 2.401 2.401 5.226 4.104 8.228 5.16-2.716-7.718-1.013-16.643 5.159-22.815z"/><path d="m419.748 341.962 22.229-22.229c6.172-6.172 15.097-7.875 22.815-5.16-1.056-3.002-2.759-5.827-5.16-8.228-8.572-8.572-22.47-8.572-31.043 0l-22.229 22.229c-8.572 8.572-8.572 22.47 0 31.043 2.401 2.401 5.226 4.104 8.228 5.16-2.714-7.718-1.011-16.643 5.16-22.815z"/><path d="m450.791 373.004 22.229-22.229c6.172-6.172 15.097-7.875 22.815-5.16-1.056-3.002-2.759-5.827-5.16-8.228-8.572-8.572-22.47-8.572-31.042 0l-22.229 22.229c-8.572 8.572-8.572 22.47 0 31.043 2.401 2.401 5.226 4.104 8.228 5.16-2.716-7.718-1.013-16.643 5.159-22.815z"/></g><path d="m277.493 353.549 1.199-2.158c11.409-20.532 6.241-46.673-12.725-60.53-7.983-5.833-17.444-8.921-27.292-8.921-13.947 0-27.006 6.189-35.827 16.979-4.118 5.037-11.665 5.469-16.332.935l-15.421-14.983c-2.784-2.904-5.91-5.458-9.311-7.607l-126.69-80.065c-6.686-4.227-10.086-11.898-9.077-19.471-1.221-.231-2.46-.346-3.683-.346-7.92 0-15.55 4.76-18.63 12.81-3.39 8.87-.06 18.89 7.96 23.96l131.81 83.3 23.65 24.67 85.19 57.22 39.037 40.126 73.598 75.65c1.905 1.959 4.883 2.406 7.28 1.094l24.456-13.391s-92.25-91.573-117.236-115.926c-3.588-3.5-4.39-8.966-1.956-13.346z" fill="#ffcebf"/><path d="m210.035 321.724c-2.97-8.971-11.42-15.446-21.387-15.446-12.443 0-22.53 10.087-22.53 22.531v.004c-.053 0-.104-.004-.157-.004-15.631 0-28.303 12.672-28.303 28.303s12.672 28.303 28.303 28.303c5.78 0 11.154-1.737 15.633-4.711l31.821 2.042 7.735-39.707z" fill="#f9f3f1"/><path d="m271.937 429.81c0-18.684-7.001-36.69-19.622-50.467l-.595-.649c-4.119-4.496-4.899-11.122-1.938-16.452l11.83-21.29c6.532-11.754 3.127-26.544-7.886-34.259-11.258-7.888-26.694-5.757-35.395 4.885l-26.175 32.014c-6.831 8.355-10.563 18.815-10.563 29.607v42.906c0 14.315 6.556 27.843 17.792 36.713l27.173 21.451h.92c24.554 0 44.459-19.905 44.459-44.459z" fill="#ffdfcf"/><path d="m226.324 452.817c-11.236-8.87-17.792-22.397-17.792-36.713v-42.906c0-10.792 3.732-21.252 10.563-29.607l26.175-32.014c1.978-2.419 4.317-4.397 6.863-5.918-11.082-6.632-25.506-4.227-33.802 5.918l-26.175 32.014c-6.831 8.355-10.563 18.815-10.563 29.607v42.906c0 14.316 6.556 27.843 17.792 36.713l27.173 21.451h.92c7.195 0 13.984-1.72 19.997-4.754z" fill="#ffcebf"/><circle cx="447.611" cy="147.841" fill="#f9f3f1" r="21.689"/><circle cx="415.55" cy="39.791" fill="#f9f3f1" r="37.304"/><circle cx="73.093" cy="438.886" fill="#f9f3f1" r="30.937"/></g></g></svg>