<svg id="Capa_1" enable-background="new 0 0 497.315 497.315" height="512" viewBox="0 0 497.315 497.315" width="512" xmlns="http://www.w3.org/2000/svg"><g><path d="m78.246 26h30.213v61.831h-30.213z" fill="#e5e1e5"/><g><g><g><path d="m129.605 146.005h-72.506v-51.943c0-8.964 7.267-16.231 16.231-16.231h40.043c8.964 0 16.231 7.267 16.231 16.231v51.943z" fill="#efedef"/></g></g></g><path d="m184.2 467.504c0 16.464-13.347 29.811-29.811 29.811h-122.074c-16.464 0-29.811-13.347-29.811-29.811v-261.918c0-15.086 5.868-29.581 16.363-40.418l31.315-32.337c2.369-2.446 5.628-3.827 9.033-3.827h68.273c3.405 0 6.664 1.381 9.033 3.827l31.315 32.337c10.495 10.837 16.363 25.332 16.363 40.418v261.918z" fill="#c8effe"/><path d="m60.099 467.504v-261.918c0-15.086 5.868-29.581 16.363-40.418l31.315-32.337c2.369-2.446 5.628-3.827 9.033-3.827h-57.594c-3.405 0-6.665 1.381-9.033 3.827l-31.315 32.337c-10.496 10.838-16.363 25.332-16.363 40.418v261.917c0 16.464 13.347 29.811 29.811 29.811h57.594c-16.464.001-29.811-13.346-29.811-29.81z" fill="#99e6fc"/><g><path d="m222.395 324.072-57.575-57.575c-8.056-8.056-21.117-8.056-29.173 0-8.056 8.056-8.056 21.117 0 29.173l72.654 72.654 40.505 39.752 23.506-39.749z" fill="#ffdfcf"/><path d="m221.225 355.533-72.654-72.654c-5.772-5.772-7.371-14.138-4.87-21.367-2.936.981-5.716 2.647-8.053 4.985-8.056 8.056-8.056 21.117 0 29.173l72.654 72.654 40.505 39.752 9.532-16.119z" fill="#ffcebf"/><path d="m223.602 325.279-41.276-41.276c-8.313-8.313-8.313-21.791 0-30.104 8.313-8.313 21.791-8.313 30.104 0l20.315 20.315 66.529 65.629-42.281 20.984z" fill="#ffdfcf"/><path d="m270.081 352.939-33.391-35.548-41.276-41.276c-7.681-7.681-8.231-19.781-1.718-28.133-4.158.73-8.16 2.704-11.371 5.916-8.313 8.313-8.313 21.791 0 30.104l41.276 41.276 33.391 35.548 42.281-20.984-.938-.926z" fill="#ffcebf"/><g id="XMLID_382_"><path d="m327.709 314.389h-71.332c-14.933 0-27.039-12.106-27.039-27.039v-1.367c0-14.933 12.106-27.039 27.039-27.039h71.332c14.933 0 27.039 12.106 27.039 27.039v1.367c0 14.933-12.106 27.039-27.039 27.039z" fill="#f9f3f1"/><path d="m258.338 287.35v-1.366c0-14.933 12.106-27.039 27.039-27.039h-29c-14.933 0-27.039 12.106-27.039 27.039v1.366c0 14.933 12.106 27.039 27.039 27.039h29c-14.933 0-27.039-12.106-27.039-27.039z" fill="#f3eae6"/><g><path d="m245.251 368.327c-14.89 0-26.97-12.08-26.97-26.97 0-7.44 3.02-14.19 7.9-19.07s11.63-7.9 19.07-7.9h66.49c3.11 0 5.94-1.74 7.4-4.49 9.53-17.99 28.46-30.25 50.24-30.25 26.59 0 48.91 18.26 55.12 42.92l65.953 65.953c4.824 4.824 5.747 12.311 2.239 18.161l-44.545 74.296c-4.976 8.299-16.426 9.71-23.268 2.868l-49.978-49.978h-150.24c-10.47 0-20.51-4.18-27.88-11.61l-107.97-108.81c-8.92-8.92-8.92-23.39 0-32.31 4.46-4.46 10.31-6.69 16.16-6.69 5.84 0 11.69 2.23 16.15 6.69l87.18 87.19z" fill="#ffeee6"/></g><g><path d="m439.908 460.364-38.93-38.93c-7.074-7.074-16.669-11.049-26.674-11.049h-134.615c-10.47 0-20.51-4.18-27.88-11.61l-107.97-108.81c-3.95-3.95-6.158-9.012-6.61-14.174-3.077 1.103-5.955 2.883-8.418 5.346-8.92 8.92-8.92 23.39 0 32.31l107.97 108.81c7.37 7.43 17.41 11.61 27.88 11.61h150.24l49.979 49.978c6.842 6.842 18.293 5.431 23.268-2.868l11.842-19.751c-5.695 4.797-14.448 4.773-20.082-.862z" fill="#ffdfcf"/></g><g><g><path d="m311.451 375.827h-66.199c-4.143 0-7.5-3.358-7.5-7.5s3.357-7.5 7.5-7.5h66.199c4.143 0 7.5 3.358 7.5 7.5s-3.357 7.5-7.5 7.5z" fill="#ffdfcf"/></g></g></g><g><g><g><path d="m225.532 72.566h-21.138c-4.38 0-7.931-3.551-7.931-7.931v-24.323c0-1.829-1.483-3.312-3.312-3.312h-162.956c-4.83 0-8.745-3.915-8.745-8.745v-19.51c0-4.83 3.915-8.745 8.745-8.745h162.956c22.263 0 40.312 18.048 40.312 40.312v24.323c0 4.38-3.551 7.931-7.931 7.931z" fill="#efedef"/></g></g></g><path d="m329.525 224.39h-21.346c0-12.661-8.011-23.935-19.966-28.102l-12.711-4.43c-1.982-.691-4.053.781-4.053 2.879v25.564c0 2.258-1.83 4.088-4.088 4.088h-12.171c-9.668 0-17.901 7.518-18.245 17.179-.361 10.143 7.755 18.479 17.818 18.479h75.188c10.063 0 18.178-8.336 17.817-18.479-.342-9.661-8.576-17.178-18.243-17.178z" fill="#f9f3f1"/><g><path d="m252.078 251.021c.596-9.468 8.779-16.683 18.265-16.683h12.125c2.258 0 4.088-1.83 4.088-4.088v-16.175c0-6.69 6.601-11.38 12.918-9.179l2.007.699c-3.401-4.175-7.939-7.45-13.268-9.308l-12.711-4.43c-1.982-.691-4.053.781-4.053 2.879v25.564c0 2.258-1.83 4.088-4.088 4.088h-12.171c-9.559 0-17.745 7.347-18.232 16.894-.509 9.965 7.193 18.257 16.925 18.743-1.316-2.683-2.009-5.766-1.805-9.004z" fill="#f3eae6"/></g></g></g></svg>