<svg id="Capa_1" enable-background="new 0 0 498.594 498.594" height="512" viewBox="0 0 498.594 498.594" width="512" xmlns="http://www.w3.org/2000/svg"><g><g fill="#ffdfcf"><path d="m240.081 59.044c0-14.881-12.063-26.944-26.944-26.944-14.881 0-26.944 12.063-26.944 26.944v135.685h53.887v-135.685z"/><path d="m293.969 26.944c0-14.881-12.063-26.944-26.944-26.944-14.881 0-26.944 12.063-26.944 26.944v135.685h53.887v-135.685z"/><path d="m347.856 65.095c0-14.881-12.063-26.944-26.944-26.944-14.881 0-26.944 12.063-26.944 26.944v135.685h53.887v-135.685z"/><path d="m401.744 94.648c0-14.881-12.063-26.944-26.944-26.944-14.881 0-26.944 12.063-26.944 26.944v135.685h53.887v-135.685z"/></g><path d="m226.618 35.71c-3.964-2.294-8.571-3.609-13.48-3.609-14.881 0-26.944 12.063-26.944 26.944v135.685h26.944v-135.686c0-9.971 5.429-18.675 13.48-23.334z" fill="#ffcebf"/><path d="m280.509 3.611c-3.964-2.294-8.575-3.611-13.484-3.611-14.881 0-26.944 12.063-26.944 26.944v135.685h26.944v-135.685c0-9.971 5.432-18.673 13.484-23.333z" fill="#ffcebf"/><path d="m334.396 41.763c-3.964-2.294-8.575-3.612-13.484-3.612-14.881 0-26.944 12.063-26.944 26.944v135.685h26.944v-135.685c.001-9.971 5.433-18.673 13.484-23.332z" fill="#ffcebf"/><path d="m388.282 71.314c-3.964-2.294-8.573-3.61-13.482-3.61-14.881 0-26.944 12.063-26.944 26.944v135.685h26.944v-135.685c0-9.972 5.431-18.674 13.482-23.334z" fill="#ffcebf"/><path d="m194.23 248.423v43.571h207.514v-96.57h-207.06z" fill="#ffdfcf"/><path d="m429.285 139.982c0-18.071-14.517-32.751-32.524-33.016-18.202-.267-33.42 14.638-33.514 32.842-.035 6.7 1.934 12.934 5.33 18.153-5.167 5.033-8.207 12.238-7.629 20.144.918 12.558 11.18 22.706 23.747 23.493 14.802.927 27.096-10.803 27.096-25.405 0-1.639-.157-3.241-.455-4.793-.206-1.075.283-2.165 1.234-2.707 9.981-5.679 16.715-16.406 16.715-28.711z" fill="#f9f3f1"/><g><g id="XMLID_384_"><g><path d="m370.834 137.904c5.84 34 5.88 67.74.14 101.22-1.2 6.97-4.12 13.19-8.25 18.34l-19.65 12.85-49.37-2.12c-23.2-2.52-46.94-3.79-70.7-3.81l-114.09 5.93-24.92-10.57c-5.3-5.66-9.06-12.86-10.45-21.03-5.71-33.5-5.63-67.1.15-100.78 3.78-22.02 24.69-36.76 46.75-33.23 65.53 10.5 137.69 10.49 203.65-.04 22.06-3.53 42.96 11.23 46.74 33.24z" fill="#b0e7c9"/></g></g></g><path d="m248.837 264.905c-10.49-15.175-24.14-28.341-39.703-38.299v-45.467c0-27.375-21.994-50.05-49.028-50.546-.311-.006-.623-.009-.933-.009-13.334 0-25.877 5.191-35.345 14.642-.015.015-.03.03-.046.046-1.312 1.318-3.546.229-3.267-1.609.29-1.909.598-3.818.926-5.728 2.339-13.624 11.247-24.45 22.916-29.897-8.049-.959-16.035-2.07-23.914-3.333-22.06-3.53-42.97 11.21-46.75 33.23-5.78 33.68-5.86 67.28-.15 100.78 1.39 8.17 5.15 15.37 10.45 21.03l24.92 10.57 42.536-2.211 71.554-3.719c8.623.007 17.242.184 25.834.52z" fill="#91deb6"/><g><g fill="#f9f3f1"><circle cx="126.357" cy="182.795" r="32.205"/><path d="m129.214 261.816c-5.825-6.455-14.254-10.514-23.634-10.514-17.577 0-31.826 14.249-31.826 31.826 0 4.892 1.107 9.525 3.079 13.666v58.874c0 8.767 7.107 15.873 15.873 15.873 8.767 0 15.873-7.107 15.873-15.873v-40.86c8.168-.764 15.437-4.617 20.634-10.375l11.706-3.816v-25.194z"/><path d="m218.55 181.038c.887-3.178 1.169-6.609.702-10.164-1.499-11.412-10.797-20.484-22.242-21.707-15.188-1.623-28.025 10.238-28.025 25.096 0 8.424 4.13 15.88 10.472 20.466-1.41 3.566-2.011 7.54-1.546 11.704 1.303 11.648 10.997 20.822 22.697 21.512 14.103.831 25.8-10.36 25.8-24.282 0-6.344-2.431-12.117-6.41-16.446-1.524-1.66-2.054-4.009-1.448-6.179z"/></g><path d="m232.984 277.134c-9.71-14.32-22.5-26.48-37.6-35.52l-6.25-3.75v-56.725c0-16.426-12.972-30.248-29.395-30.55-8.504-.156-16.202 3.222-21.755 8.765-5.42 5.43-8.77 12.91-8.77 21.19v57.32 68.23c0 22.7 8.25 44.62 23.21 61.69l36.68 41.86v77.147c0 6.518 5.284 11.802 11.803 11.802h139.695c6.518 0 11.803-5.284 11.803-11.802v-67.927l34.72-54.57c9.55-15.02 14.62-32.44 14.62-50.23v-22.071h-168.515z" fill="#ffdfcf"/><path d="m223.061 496.125v-88.595c0-5.513-2.003-10.838-5.636-14.984l-31.044-35.428c-14.96-17.07-23.21-38.99-23.21-61.69v-68.23-57.32c0-6.598 2.142-12.688 5.748-17.637-2.878-1.013-5.967-1.592-9.181-1.651-8.504-.156-16.202 3.222-21.755 8.765-5.42 5.43-8.77 12.91-8.77 21.19v57.32 68.23c0 22.7 8.25 44.62 23.21 61.69l36.68 41.86v77.147c0 6.518 5.284 11.802 11.802 11.802h22.418c-.168-.797-.262-1.621-.262-2.469z" fill="#ffcebf"/><path d="m362.769 257.785c-1.107-10.738-9.831-19.364-20.58-20.358-9.827-.909-18.522 4.401-22.603 12.446-.698 1.377-2.224 2.103-3.745 1.843-1.886-.322-3.867-.367-5.904-.079-8.634 1.222-15.472 8.349-16.299 17.029-1.086 11.389 7.842 20.972 19.007 20.972h.029c1.557-.003 2.969.925 3.453 2.405 3.235 9.895 13.031 16.822 24.249 15.636 10.676-1.129 19.252-9.804 20.282-20.49.333-3.455-.106-6.77-1.163-9.796-.726-2.08-.414-4.348.638-6.283 2.116-3.897 3.136-8.476 2.636-13.325z" fill="#f9f3f1"/><path d="m314.14 98.649c-5.849 0-11.223 2.081-15.471 5.559-1.401 1.147-3.402 1.01-4.677-.276-3.631-3.664-8.667-5.932-14.238-5.914-10.474.034-19.324 8.422-19.883 18.881-.616 11.532 8.552 21.075 19.949 21.075 3.01 0 5.861-.671 8.418-1.866 1.682-.786 3.648-.194 4.588 1.407 4.359 7.425 12.273 12.39 21.314 12.39 13.747 0 24.89-11.474 24.89-25.628s-11.143-25.628-24.89-25.628z" fill="#f9f3f1"/></g></g></svg>