<svg id="Capa_1" enable-background="new 0 0 498.54 498.54" height="512" viewBox="0 0 498.54 498.54" width="512" xmlns="http://www.w3.org/2000/svg"><g><g fill="#f9f3f1"><circle cx="418.758" cy="372.253" r="24.362"/><path d="m224.566 337.359c-7.711-.312-14.643 3.075-19.168 8.53-4.526-5.455-11.457-8.842-19.168-8.53-11.975.484-21.855 10.134-22.598 22.096-.852 13.73 10.031 25.131 23.577 25.131 6.61 0 12.586-2.716 16.873-7.092.728-.742 1.903-.742 2.631 0 4.288 4.376 10.263 7.092 16.873 7.092 13.546 0 24.429-11.401 23.577-25.13-.742-11.962-10.622-21.613-22.597-22.097z"/><path d="m114.996 351.425c-3.897-.188-7.565.705-10.751 2.389-6.667-10.912-19.071-17.936-33.02-16.872-17.356 1.323-31.354 15.433-32.552 32.798-1.428 20.697 14.939 37.93 35.33 37.93 10.806 0 20.481-4.841 26.977-12.471 2.013-2.365 5.153-3.376 8.174-2.657 1.546.368 3.158.564 4.817.564 11.882 0 21.443-9.938 20.824-21.955-.544-10.583-9.214-19.214-19.799-19.726z"/></g><g><path d="m333.318 105.482c21.661-2.03 43.339-4.852 65.034-8.469 33.447-5.576 65.109 16.344 71.791 49.371l7.443 81.677c.087 27.139-2.203 54.17-6.888 81.092-5.907 33.942-38.181 56.601-72.16 50.914-12.492-2.091-24.987-3.913-37.486-5.473l-75.108-6.169c-60.887-2.413-121.862 1.461-182.926 11.667-33.989 5.681-66.228-17.026-72.136-50.977-8.241-47.365-9.102-94.841-2.711-142.427l8.775-67.026h82.559c40.593 6.037 81.244 9.266 121.956 9.672z" fill="#b0e7c9"/></g><path d="m419.752 318.96c-12.492-2.091-24.987-3.913-37.486-5.473l-75.108-6.169c-53.016-2.101-106.099.565-159.25 8.027-49.47 6.945-94.819-28.367-100.12-78.04-3.967-37.173-3.413-74.415 1.597-111.724l3.393-25.92h-15.832l-8.775 67.026c-6.39 47.586-5.53 95.062 2.711 142.427 5.912 33.976 38.383 56.608 72.399 50.933 60.976-10.173 121.863-14.033 182.662-11.623l75.108 6.169c12.499 1.56 24.995 3.382 37.486 5.473 33.979 5.687 66.253-16.973 72.16-50.914.28-1.608.553-3.254.815-4.862-13.68 11.938-32.457 17.901-51.76 14.67z" fill="#91deb6"/><g><path d="m305.7 80.53c-6.457-.309-12.481 1.468-17.461 4.714-3.144 2.049-7.276 2.026-10.295-.203-4.591-3.389-10.47-5.135-16.768-4.366-10.591 1.293-19.063 9.877-20.235 20.482-1.554 14.066 9.418 25.971 23.17 25.971 2.571 0 5.043-.417 7.355-1.186 3.653-1.216 7.704-.251 10.163 2.712 5.392 6.496 13.526 10.632 22.628 10.632 16.875 0 30.428-14.219 29.333-31.329-.947-14.788-13.089-26.718-27.89-27.427z" fill="#f9f3f1"/><path d="m86.316 75.169c-.01 0-.02 0-.029 0-1.719.002-3.277-.955-4.004-2.513-7.046-15.113-22.578-25.471-40.475-24.925-23.139.706-41.8 19.972-41.808 43.122-.005 13.768 6.44 26.025 16.477 33.929 3.742 2.947 5.387 7.829 4.107 12.417-.898 3.217-1.282 6.649-1.056 10.202.963 15.171 13.289 27.498 28.46 28.46 17.751 1.125 32.5-12.939 32.5-30.448 0-.437-.015-.87-.033-1.302 1.906.324 3.862.502 5.861.502 19.176 0 34.722-15.546 34.722-34.722s-15.546-34.722-34.722-34.722z" fill="#f9f3f1"/><path d="m377.568 281.178h-253.59c-11.446 0-20.725-9.279-20.725-20.725v-63.804c0-11.446 9.279-20.725 20.725-20.725h253.591c11.446 0 20.725 9.279 20.725 20.725v63.804c0 11.446-9.279 20.725-20.726 20.725z" fill="#91deb6"/><g fill="#f9f3f1"><path d="m498.258 198.837c-.844-5.634-3.417-10.534-7.08-14.279-2.312-2.364-3.003-5.94-1.597-8.932 2.139-4.551 2.635-9.932.887-15.243-2.94-8.931-11.817-14.775-21.184-13.962-12.424 1.079-20.824 12.61-18.457 24.494.442 2.222 1.229 4.287 2.291 6.152 1.68 2.948 1.543 6.615-.594 9.25-4.686 5.778-6.86 13.52-5.294 21.386 2.905 14.584 17.526 23.85 32.125 19.958 12.618-3.364 20.838-15.91 18.903-28.824z"/><path d="m323.194 317.368c-20.917 0-37.874 16.957-37.874 37.874v77.552c0 9.961 8.075 18.035 18.035 18.035 9.961 0 18.035-8.075 18.035-18.035v-39.723c.598.028 1.199.046 1.804.046 20.917 0 37.874-16.957 37.874-37.874 0-20.918-16.957-37.875-37.874-37.875z"/></g></g></g></svg>