<svg id="Capa_1" enable-background="new 0 0 495.951 495.951" height="512" viewBox="0 0 495.951 495.951" width="512" xmlns="http://www.w3.org/2000/svg"><g><path d="m383.681 364.97c-.311-8.542-6.641-15.441-14.736-17.176l9.55-18.714v-180.49h-37.284-199.1v235.32h223.3c10.1 0 18.28-8.18 18.28-18.27 0-.219 0-.449-.01-.67z" fill="#f3eae6"/><path d="m142.111 148.59h131.576v235.32h-131.576z" fill="#efe2dd"/><path d="m253.687 112.038v271.875c0 37.767-56.79 68.384-126.843 68.384s-126.844-30.617-126.844-68.384v-271.875z" fill="#f9f3f1"/><path d="m58.645 112.038h-58.645v271.875c0 24.63 24.157 46.216 60.391 58.255-1.143-3.69-1.747-7.477-1.747-11.342v-318.788z" fill="#f3eae6"/><g><ellipse cx="126.843" cy="112.038" fill="#faf7f7" rx="126.843" ry="68.384"/><path d="m30.196 127.12c0-37.767 56.79-68.384 126.843-68.384 25.856 0 49.9 4.175 69.954 11.336-23.209-16.075-59.438-26.418-100.15-26.418-70.053 0-126.843 30.617-126.843 68.384 0 23.828 22.61 44.805 56.889 57.047-16.727-11.585-26.693-26.147-26.693-41.965z" fill="#f9f3f1"/><ellipse cx="126.843" cy="112.038" fill="#fed2a4" rx="68.199" ry="29.031"/><g id="XMLID_426_"><g><path d="m350.487 282.421-8.439 36.029-.817 9.971c-.01.22-.01.44-.01.66-.01 10.1 8.18 18.28 18.27 18.28h5.48c9.91 0 18.35 7.71 18.71 17.61.01.22.01.45.01.67v-54.83-28.389h-33.204z" fill="#efe2dd"/><path d="m341.231 328.421c-.01.22-.01.44-.01.66h-.01v-180.491-54.83c0-10.09 8.19-18.27 18.28-18.27h134.52c1.07 0 1.94.86 1.94 1.94v231.44c0 1.07-.87 1.94-1.94 1.94h-110.32-23.76c-9.91.001-18.35 7.7-18.7 17.611z" fill="#f9f3f1"/></g></g><path d="m403.987 293.258c-4.143 0-7.5 3.358-7.5 7.5v10.051.002h15s0-.001 0-.002v-10.051c0-4.142-3.358-7.5-7.5-7.5z" fill="#f3eae6"/><g><path d="m403.987 280.878c-4.143 0-7.5-3.358-7.5-7.5v-10.051c0-4.142 3.357-7.5 7.5-7.5s7.5 3.358 7.5 7.5v10.051c0 4.142-3.358 7.5-7.5 7.5z" fill="#f3eae6"/></g><g><path d="m403.987 243.447c-4.143 0-7.5-3.358-7.5-7.5v-10.051c0-4.142 3.357-7.5 7.5-7.5s7.5 3.358 7.5 7.5v10.051c0 4.142-3.358 7.5-7.5 7.5z" fill="#f3eae6"/></g><g><path d="m403.987 206.016c-4.143 0-7.5-3.358-7.5-7.5v-10.051c0-4.142 3.357-7.5 7.5-7.5s7.5 3.358 7.5 7.5v10.051c0 4.142-3.358 7.5-7.5 7.5z" fill="#f3eae6"/></g><g><path d="m403.987 168.585c-4.143 0-7.5-3.358-7.5-7.5v-10.051c0-4.142 3.357-7.5 7.5-7.5s7.5 3.358 7.5 7.5v10.051c0 4.142-3.358 7.5-7.5 7.5z" fill="#f3eae6"/></g><g><path d="m403.987 131.153c-4.143 0-7.5-3.358-7.5-7.5v-10.051c0-4.142 3.357-7.5 7.5-7.5s7.5 3.358 7.5 7.5v10.051c0 4.143-3.358 7.5-7.5 7.5z" fill="#f3eae6"/></g><path d="m396.487 76.172v10.051c0 4.142 3.357 7.5 7.5 7.5s7.5-3.358 7.5-7.5v-10.051c0-.23-.014-.456-.034-.681h-14.931c-.021.224-.035.451-.035.681z" fill="#f3eae6"/></g></g></svg>