<svg id="Capa_1" enable-background="new 0 0 497.476 497.476" height="512" viewBox="0 0 497.476 497.476" width="512" xmlns="http://www.w3.org/2000/svg"><g><path d="m224.437 20h36.542v58.653h-36.542z" fill="#f3eae6"/><g><path d="m386.128 225.006-90.6-85.18-12.144-23.105h-78.357l-17.399 23.105-90.6 85.18c-10.13 9.53-15.88 22.81-15.88 36.72v200.98c0 19.2 15.57 34.77 34.76 34.77h251.34c19.19 0 34.76-15.57 34.76-34.77v-200.98c0-13.91-5.75-27.19-15.88-36.72z" fill="#f2fbff"/><path d="m154.078 462.706v-200.98c0-13.91 5.75-27.19 15.88-36.72l90.6-85.18 17.399-23.105h-72.93l-17.399 23.105-90.6 85.18c-10.13 9.53-15.88 22.81-15.88 36.72v200.98c0 19.2 15.57 34.77 34.76 34.77h72.93c-19.19 0-34.76-15.57-34.76-34.77z" fill="#dff6fd"/><g id="XMLID_433_"><g><path d="m294.408 88.986-21.49-22.92c-1.44-1.54-3.46-2.41-5.57-2.41h-51.17c-2.11 0-4.13.87-5.57 2.41l-21.5 22.92c-.95 1.02-1.48 2.36-1.48 3.76v.87l14.951 17.723h78.945l14.374-17.723v-.87c0-1.4-.53-2.74-1.49-3.76z" fill="#f9f3f1"/><path d="m225.458 163.366h31.24v120.64h-31.24z" fill="#dff6fd"/><path d="m283.384 129.829h-84.612v33.284c0 8.423 6.828 15.25 15.25 15.25h54.112c8.423 0 15.25-6.828 15.25-15.25z" fill="#dff6fd"/><path d="m198.772 129.829v33.284c0 8.423 6.828 15.25 15.25 15.25h5.546l40.99-38.537 7.528-9.997z" fill="#c8effe"/><path d="m222.038 92.746c0-1.4.53-2.74 1.48-3.76l21.5-22.92c1.44-1.54 3.46-2.41 5.57-2.41h-34.41c-2.11 0-4.13.87-5.57 2.41l-21.5 22.92c-.95 1.02-1.48 2.36-1.48 3.76v.87l14.951 17.723h34.41l-14.951-17.723z" fill="#f3eae6"/><path d="m187.628 93.616h108.27v46.21h-108.27z" fill="#f3eae6"/><path d="m187.628 93.616h34.41v46.21h-34.41z" fill="#efe2dd"/></g></g><path d="m371.46 57.134h25.985c2.982 0 5-3.041 3.84-5.789l-1.965-4.654c-11.944-28.298-39.673-46.691-70.388-46.691h-159.571c-2.325 0-4.21 1.885-4.21 4.21v23.58c0 2.325 1.885 4.21 4.21 4.21h159.573c16.343 0 31.15 8.89 38.893 22.993.727 1.324 2.122 2.141 3.633 2.141z" fill="#f9f3f1"/><path d="m416.328 131.416c0 16.477-13.358 29.835-29.835 29.835s-29.835-13.358-29.835-29.835c0-11.882 15.513-30.975 24.167-40.701 3.021-3.395 8.316-3.395 11.336 0 8.654 9.726 24.167 28.819 24.167 40.701z" fill="#c8effe"/><g id="XMLID_428_"><g><path d="m372.008 269.006v193.7c0 2.63-2.14 4.77-4.76 4.77h-251.34c-2.62 0-4.76-2.14-4.76-4.77v-193.7z" fill="#fef48b"/></g></g><path d="m154.078 462.706v-193.7h-42.93v193.7c0 2.63 2.14 4.77 4.76 4.77h38.504c-.214-1.561-.334-3.151-.334-4.77z" fill="#fef056"/><g id="XMLID_429_"><g><path d="m256.698 269.006v107.5c0 2.49-2.02 4.51-4.5 4.51h-22.24c-2.48 0-4.5-2.02-4.5-4.51v-107.5z" fill="#fef056"/></g></g></g></g></svg>