<svg id="Capa_1" enable-background="new 0 0 496.3 496.3" height="512" viewBox="0 0 496.3 496.3" width="512" xmlns="http://www.w3.org/2000/svg"><g><path d="m373.057 244.445v11.79l11.53 8.964c11.02 8.567 17.465 21.743 17.465 35.701v14.844c0 4.716-3.823 8.54-8.54 8.54h-91.172l14.774-45.62c2.904-5.149 6.82-9.743 11.607-13.464l11.53-8.964v-11.79-26.854h34.034z" fill="#ffdfcf"/><path d="m343.941 265.199 2.222-1.727c5.873-4.566 9.308-11.588 9.308-19.027v-26.854h-15.22v26.854 11.79l-11.53 8.964c-4.787 3.721-8.703 8.315-11.607 13.464l-14.774 45.62h15.22l14.774-45.62c2.904-5.148 6.821-9.742 11.607-13.464z" fill="#ffcebf"/><path d="m357.497 248.15c14.41 0 26.091-11.681 26.091-26.091v-18.059c0-14.41-11.681-26.091-26.091-26.091-14.41 0-26.091 11.681-26.091 26.091v18.059c0 14.41 11.681 26.091 26.091 26.091z" fill="#ffdfcf"/><path d="m285.585 256.236 31.127 26.979c15.27 13.235 24.042 32.447 24.042 52.655v11.829c0 4.94-4.005 8.945-8.945 8.945h-175.264-46.078v-35.649l138.183-83.045z" fill="#99e6fc"/><path d="m302.341 163.765v-20.436c0-16.893-13.695-30.588-30.588-30.588h-42.28l-8.523-12.273c-1.382-1.99-4.097-2.517-6.123-1.189-12.398 8.126-19.867 21.953-19.867 36.777v27.709l5.443 7.308 25.593 34.013s68.685-18.001 68.685-18.053c-.001-.053 7.66-23.268 7.66-23.268z" fill="#baafb9"/><path d="m226.967 171.073-5.443-7.308v-27.709c0-8.753 2.622-17.148 7.307-24.238l-7.882-11.35c-1.382-1.99-4.097-2.517-6.123-1.189-12.398 8.126-19.867 21.953-19.867 36.777v27.709l5.443 7.308 25.593 34.013s9.904-2.596 22.188-5.818z" fill="#aa9ea9"/><path d="m210.451 240.265c-9.576-9.696-15.492-23.015-15.492-37.72v-38.781c35.794-9.333 71.588-9.333 107.381 0v6.529 61.562l-61.664 29.699z" fill="#ffdfcf"/><path d="m237.063 230.995c-9.576-9.696-15.492-23.015-15.492-37.72v-34.726c-8.87 1.167-17.741 2.903-26.612 5.216v38.781c0 14.704 5.916 28.023 15.492 37.72l30.226 21.29 23.621-11.376z" fill="#ffcebf"/><g><g><path d="m172.793 268.941c-1.321-1.323-2.72-2.579-4.215-3.741l-11.53-8.964v-11.79-31.416h-32.806v31.416 11.79l-11.53 8.964c-11.02 8.567-17.465 21.743-17.465 35.701v26.384 24.083l89.111-50.811z" fill="#ffdfcf"/></g><path d="m110.467 327.284v-26.384c0-13.958 6.446-27.134 17.465-35.701l7.429-5.776c2.587-2.011 4.1-5.105 4.1-8.382v-6.596-31.416h-15.22v31.416 11.79l-11.53 8.964c-11.02 8.567-17.465 21.743-17.465 35.701v26.384 24.083l15.22-8.678v-15.405z" fill="#ffcebf"/><path d="m346.625 222.059v-18.059c0-11.762 7.784-21.703 18.481-24.96-2.408-.733-4.962-1.131-7.61-1.131-14.41 0-26.091 11.681-26.091 26.091v18.059c0 14.41 11.681 26.091 26.091 26.091 2.648 0 5.212-.397 7.62-1.13-10.696-3.257-18.491-13.199-18.491-24.961z" fill="#ffcebf"/><g><g id="XMLID_440_"><g><path d="m248.15 0c137.05 0 248.15 111.1 248.15 248.15s-111.1 248.15-248.15 248.15-248.15-111.1-248.15-248.15 111.1-248.15 248.15-248.15zm-3.38 443.42c112.04 1.9 203.28-91.79 198.49-203.74-1.2-28.06-8.32-54.58-20.14-78.36-1.84-3.69-6.57-4.81-9.85-2.31l-294.93 224.58c-3.29 2.5-3.45 7.37-.37 10.13 33.77 30.22 78.11 48.87 126.8 49.7zm133.19-330.71c3.29-2.5 3.45-7.37.37-10.13-33.77-30.22-78.11-48.87-126.8-49.7-112.04-1.9-203.28 91.79-198.49 203.75 1.2 28.05 8.32 54.57 20.14 78.35 1.84 3.69 6.57 4.81 9.85 2.31z" fill="#f37c7c"/></g></g></g><path d="m140.646 248.15c14.41 0 26.091-11.681 26.091-26.091v-18.059c0-14.41-11.681-26.091-26.091-26.091-14.41 0-26.091 11.681-26.091 26.091v18.059c-.001 14.41 11.681 26.091 26.091 26.091z" fill="#ffdfcf"/><path d="m129.774 222.059v-18.059c0-11.762 7.798-21.707 18.495-24.964-2.408-.733-4.976-1.127-7.624-1.127-14.41 0-26.091 11.681-26.091 26.091v18.059c0 14.41 11.681 26.091 26.091 26.091 2.648 0 5.216-.398 7.624-1.131-10.697-3.257-18.495-13.198-18.495-24.96z" fill="#ffcebf"/></g></g></svg>