<svg id="Capa_1" enable-background="new 0 0 496.328 496.328" height="512" viewBox="0 0 496.328 496.328" width="512" xmlns="http://www.w3.org/2000/svg"><g><path d="m264.204 219.184 46.02-16.46-42.725-56.008-38.95 26.494z" fill="#ffdfcf"/><path d="m160.334 319.464 39.19-34.54-40.147-48.762-38.003 33.225z" fill="#ffdfcf"/><path d="m408.533 352.855-104.679-148.689-149.276 105.332 29.688 40.437 7.615 9.769c17.951 23.028 43.85 38.526 72.628 43.461l6.658 1.142c2.106.361 4.002 1.495 5.316 3.181l20.042 25.711 20.767 31.325 114.089-86.886z" fill="#ffdfcf"/><path d="m316.418 418.317-20.042-25.71c-1.314-1.686-3.21-2.82-5.316-3.181l-6.658-1.142c-28.777-4.935-54.677-20.433-72.628-43.461l-7.615-9.769-29.28-39.881-20.301 14.325 29.688 40.437 7.615 9.769c17.951 23.028 43.85 38.526 72.628 43.46l6.658 1.142c2.106.361 4.002 1.495 5.316 3.181l20.042 25.711 20.766 31.325 19.775-15.06z" fill="#ffcebf"/><path d="m199.524 284.924 35.32-24.12-1.45-1.92-36.428-47.364-33.184 29.991z" fill="#ffdfcf"/><path d="m233.394 258.884 1.45 1.92 2.43 3.23 36.24-32.72-8.84-11.52-.47-.61-29.242-37.774-36.308 32.306z" fill="#ffdfcf"/><g fill="#ffcebf"><path d="m139.9 253.191-18.526 16.196 38.96 50.077 18.465-16.274z"/><path d="m218.84 269.759-36.657-44.878-18.401 16.63 35.742 43.413 35.32-24.12-.983-1.302z"/><path d="m255.909 245.4-2.431-3.23-1.449-1.92-33.824-43.93-19.551 17.396 34.74 45.168 1.45 1.92 2.43 3.23 36.24-32.72-.82-1.069z"/><path d="m282.668 211.52-38.141-49.179-15.978 10.869 35.655 45.974 46.02-16.46-.635-.833z"/><path d="m368.859 316.082 9.97-5.42-74.974-106.495-26.755 18.879 8.347 2.69c-.812 3.963-1.434 7.962-1.858 11.961-1.157 10.817-.897 21.759.735 32.495 2.713 17.855 14.513 32.977 31.134 40.041 16.905 7.186 39.158 13.591 53.401 5.849z"/></g><path d="m407.122 322.23 18.872-2.766 22.324 17.721-45.428 61.511-17.986-16.572-4.587-31.678z" fill="#ffdfcf"/><g><g><g id="XMLID_444_"><g><path d="m227.248.897c136.562-11.551 256.631 89.789 268.183 226.351s-89.789 256.631-226.351 268.183-256.631-89.788-268.183-226.351 89.789-256.631 226.351-268.183zm34.007 442.127c111.801-7.55 194.82-108.597 180.611-219.745-3.561-27.859-12.891-53.684-26.673-76.384-2.145-3.522-6.952-4.239-10.01-1.472l-274.951 248.64c-3.068 2.768-2.817 7.635.485 10.125 36.197 27.267 81.951 42.113 130.538 38.836zm104.841-340.759c3.068-2.768 2.817-7.635-.485-10.125-36.197-27.266-81.951-42.112-130.538-38.835-111.801 7.55-194.82 108.597-180.61 219.755 3.56 27.849 12.89 53.675 26.672 76.374 2.144 3.522 6.952 4.239 10.01 1.472z" fill="#f37c7c"/></g></g></g></g><g><g><g id="XMLID_460_"><g><path d="m227.248.897c136.562-11.551 256.631 89.789 268.183 226.351s-89.789 256.631-226.351 268.183-256.631-89.788-268.183-226.351 89.789-256.631 226.351-268.183zm34.007 442.127c111.801-7.55 194.82-108.597 180.611-219.745-3.561-27.859-12.891-53.684-26.673-76.384-2.145-3.522-6.952-4.239-10.01-1.472l-274.951 248.64c-3.068 2.768-2.817 7.635.485 10.125 36.197 27.267 81.951 42.113 130.538 38.836zm104.841-340.759c3.068-2.768 2.817-7.635-.485-10.125-36.197-27.266-81.951-42.112-130.538-38.835-111.801 7.55-194.82 108.597-180.61 219.755 3.56 27.849 12.89 53.675 26.672 76.374 2.144 3.522 6.952 4.239 10.01 1.472z" fill="#f37c7c"/></g></g></g></g><g id="XMLID_446_"><g><path d="m218.981 50.14c-8.394-10.757-21.037-16.926-34.687-16.926-9.728 0-19.322 3.299-27.024 9.295-2.122 1.653-4.049 3.461-5.783 5.392-.668.743-1.731.954-2.667.604-4.86-1.818-10.073-2.781-15.446-2.781-9.739 0-19.337 3.302-27.035 9.303-10.762 8.4-16.934 21.042-16.934 34.686v.017c0 .992-.573 1.877-1.48 2.278-3.278 1.449-6.388 3.294-9.237 5.513-9.262 7.221-15.158 17.615-16.604 29.268-.626 5.047-.377 10.066.686 14.889.22 1-.24 2.036-1.125 2.553-2.174 1.27-4.247 2.728-6.188 4.372-18.07 15.307-20.816 41.922-6.268 60.572l6.203 7.973c3.172-19.47 9.283-38.097 17.877-55.365l-.002-.008c13.052-26.236 31.852-49.324 54.891-67.411-4.939-2.937-10.434-4.878-16.217-5.696l28.883-18.517c-.794 4.916-.753 9.967.174 14.938 23.845-15.785 51.441-26.51 81.381-30.497z" fill="#ee6161"/><path d="m159.377 236.162-56.593-68.738c-4.74-6.08-11.8-9.24-18.92-9.24-5.47 0-10.97 1.86-15.48 5.68-9.81 8.31-11.32 22.89-3.41 33.03l56.4 72.493z" fill="#ffdfcf"/><path d="m83.573 180.792c-5.094-6.531-6.26-14.896-3.839-22.249-4.052.707-7.978 2.465-11.35 5.322-9.81 8.31-11.32 22.89-3.41 33.03l56.4 72.493 18.525-16.197z" fill="#ffcebf"/><g><path d="m196.966 211.52-72.341-94.056c-4.72-6.07-11.78-9.24-18.91-9.24-5.16 0-10.35 1.66-14.73 5.07-10.44 8.14-12.31 23.2-4.17 33.64l15.97 20.49 60.997 74.087z" fill="#ffdfcf"/></g><path d="m106.13 131.77c-5.358-6.872-6.366-15.767-3.46-23.352-4.123.53-8.171 2.14-11.685 4.876-10.44 8.14-12.31 23.2-4.17 33.64l15.97 20.49 60.997 74.087 18.401-16.63z" fill="#ffcebf"/><g><path d="m234.962 181.41-44.238-57.145s-26.15-33.45-26.52-34.02l-.03-.05-11.88-15.24c-8.14-10.44-23.21-12.3-33.65-4.16-6.06 4.73-9.24 11.79-9.24 18.92 0 5.15 1.66 10.34 5.07 14.72l10.15 13.03 74.03 96.252z" fill="#ffdfcf"/></g><path d="m133.109 85.8c-3.41-4.38-5.07-9.57-5.07-14.72 0-1.633.175-3.261.505-4.86-3.5.719-6.892 2.229-9.899 4.574-6.06 4.73-9.24 11.79-9.24 18.92 0 5.15 1.66 10.34 5.07 14.72l10.15 13.03 74.03 96.252 19.55-17.396z" fill="#ffcebf"/><path d="m228.549 173.21 38.951-26.494-64.285-84.271c-4.73-6.06-11.78-9.23-18.92-9.23-5.15 0-10.35 1.66-14.73 5.07-9.88 7.7-12.07 21.59-5.39 31.91l.03.05z" fill="#ffdfcf"/><path d="m182.668 82.58-.03-.05c-5.982-9.242-4.82-21.34 2.577-29.299-.303-.011-.617-.018-.92-.018-5.15 0-10.35 1.66-14.73 5.07-9.88 7.7-12.07 21.59-5.39 31.91l.03.05 64.344 82.965 15.978-10.868z" fill="#ffcebf"/></g></g><g id="XMLID_442_"><g><g><path d="m344.889 145.681-19.584-6.528-78.006 70.542c4.636 3.917 10.076 6.991 16.131 8.945l10.643 3.43c6.361 2.05 10.331 8.311 9.588 14.952-.025.225-.05.45-.074.675-.645 6.036-.828 12.153-.6 18.229l95.459-86.325c-8.58-11.178-20.158-19.445-33.557-23.92z" fill="#ee6161"/></g><path d="m405.644 293.364 20.35 26.1c-9.49 23.58-23.55 44.84-41.09 62.66l-63.383-77.771c-10.821-13.277-17.404-29.57-18.452-46.665-.365-5.952-.23-11.928.405-17.864.656-6.174 1.857-12.308 3.598-18.327 1.448-5.003-1.371-10.246-6.328-11.843l-31.18-10.05c-11.71-3.78-19.06-14.61-19.06-26.18 0-3.34.61-6.74 1.91-10.05 5.35-13.6 20.41-20.63 34.28-16.01l51.87 17.29c9.73 3.25 18.24 9.39 24.39 17.6l2.53 3.38 31.66 42.26c8.87 11.84 12.58 26.77 10.3 41.39l-3.03 19.33c-.26 1.69.18 3.41 1.23 4.75z" fill="#ffdfcf"/></g></g></g></svg>