<svg id="Capa_1" enable-background="new 0 0 511.854 511.854" height="512" viewBox="0 0 511.854 511.854" width="512" xmlns="http://www.w3.org/2000/svg"><g><g><path d="m430.544 334.614h-349.234c-44.834 0-81.31-36.475-81.31-81.309s36.476-81.309 81.31-81.309h349.234c44.834 0 81.31 36.475 81.31 81.309s-36.476 81.309-81.31 81.309zm-349.234-147.618c-36.563 0-66.31 29.746-66.31 66.309s29.746 66.31 66.31 66.31h349.234c36.563 0 66.31-29.746 66.31-66.309s-29.746-66.309-66.31-66.309h-349.234z" fill="#fef48b"/></g><g><g id="XMLID_463_"><g><path d="m417.337 172.88-33.83-6.23c-22.68-4.18-43.41-15.55-59.11-32.43l-7.35-7.89c-33.02-35.49-89.22-35.49-122.24 0l-7.35 7.89c-15.7 16.88-36.43 28.25-59.11 32.43l-33.83 6.23c-3.19.59-5.51 3.37-5.51 6.62v24.64l23.14 21.793 298.041 3.527 12.659-23.55v-26.41c0-3.249-2.32-6.029-5.51-6.62z" fill="#f3eae6"/><path d="m422.847 205.911v80.41c0 69.49-56.34 125.82-125.83 125.82h-82.18c-69.49 0-125.83-56.33-125.83-125.82v-82.18h2.46l42.32-7.99c28.81-5.31 55.67-20.04 75.64-41.49l7.34-7.89c10.23-11 24.14-17.05 39.16-17.05s28.93 6.05 39.16 17.05l7.34 7.89c19.97 21.45 46.83 36.18 75.64 41.49z" fill="#f9f3f1"/></g></g><g><path d="m300.008 200.471c-1.61 0-3.231-.516-4.601-1.581-7.308-5.686-14.18-11.971-20.427-18.683l-7.347-7.895c-3.147-3.382-7.086-5.097-11.707-5.097-4.62 0-8.56 1.715-11.708 5.098l-7.346 7.893c-6.239 6.705-13.112 12.991-20.427 18.682-3.267 2.543-7.98 1.956-10.524-1.314-2.544-3.269-1.956-7.981 1.313-10.525 6.685-5.201 12.961-10.941 18.657-17.062l7.346-7.893c6.015-6.463 13.86-9.879 22.688-9.879 8.829 0 16.675 3.416 22.688 9.878l7.347 7.894c5.702 6.127 11.979 11.868 18.657 17.063 3.27 2.543 3.857 7.256 1.313 10.525-1.477 1.902-3.688 2.896-5.922 2.896z" fill="#f3eae6"/></g><g id="XMLID_465_"><g><path d="m383.497 272.701v28.42c0 16.9-13.7 30.6-30.6 30.6h-27.81c-16.9 0-30.61-13.7-30.61-30.6v-28.42c0-16.9 13.71-30.6 30.61-30.6h27.81c16.9 0 30.6 13.7 30.6 30.6z" fill="#efe2dd"/></g></g><g><path d="m357.232 278.637h-36.487c-4.143 0-7.5-3.358-7.5-7.5s3.357-7.5 7.5-7.5h36.487c4.143 0 7.5 3.358 7.5 7.5s-3.357 7.5-7.5 7.5z" fill="#f3eae6"/></g><g><path d="m357.232 310.188h-36.487c-4.143 0-7.5-3.358-7.5-7.5s3.357-7.5 7.5-7.5h36.487c4.143 0 7.5 3.358 7.5 7.5s-3.357 7.5-7.5 7.5z" fill="#f3eae6"/></g></g><g><path d="m139.129 166.315v-2.255c-3.537 1.039-7.131 1.918-10.782 2.591l-33.83 6.23c-3.19.59-5.51 3.37-5.51 6.62v24.64l23.14 21.793 26.983.319v-59.938z" fill="#efe2dd"/></g><path d="m347.139 398.315h-82.18c-36.656 0-69.647-15.678-92.644-40.691-3.828-4.164-.814-10.903 4.842-10.903h10.61c25.19 0 45.61-20.42 45.61-45.61v-28.399c0-25.19-20.42-45.61-45.61-45.61h-27.81c-4.376 0-8.608.623-12.615 1.783-4.121 1.192-8.213-2.012-8.213-6.302v-27.529c-1.773.402-3.554.769-5.342 1.098l-42.32 7.99h-2.46v82.17c0 69.494 56.336 125.83 125.83 125.83h82.18c20.863 0 40.55-5.087 57.874-14.074-2.561.154-5.152.247-7.752.247z" fill="#f3eae6"/><path d="m218.377 272.701v28.42c0 16.9-13.71 30.6-30.61 30.6h-27.81c-16.9 0-30.6-13.7-30.6-30.6v-28.42c0-16.9 13.7-30.6 30.6-30.6h27.81c16.9 0 30.61 13.7 30.61 30.6z" fill="#efe2dd"/><g><path d="m192.108 278.637h-36.487c-4.143 0-7.5-3.358-7.5-7.5s3.357-7.5 7.5-7.5h36.487c4.143 0 7.5 3.358 7.5 7.5s-3.357 7.5-7.5 7.5z" fill="#f3eae6"/></g><g><path d="m192.108 310.188h-36.487c-4.143 0-7.5-3.358-7.5-7.5s3.357-7.5 7.5-7.5h36.487c4.143 0 7.5 3.358 7.5 7.5s-3.357 7.5-7.5 7.5z" fill="#f3eae6"/></g></g></svg>