<svg id="Capa_1" enable-background="new 0 0 497.13 497.13" height="512" viewBox="0 0 497.13 497.13" width="512" xmlns="http://www.w3.org/2000/svg"><g><path d="m211.194 23h32.069v75.701h-32.069z" fill="#f3eae6"/><path d="m271.379 137.787h-88.301v-43.368c0-5.367 4.351-9.719 9.719-9.719h68.864c5.367 0 9.719 4.351 9.719 9.719v43.368z" fill="#efe2dd"/><g><path d="m164.691 121.926v26.6l-27.708 21.77c-10.613 8.339-16.81 21.089-16.81 34.586v263.298c0 15.989 12.961 28.95 28.95 28.95h156.21c15.989 0 28.95-12.961 28.95-28.95v-263.298c0-13.497-6.197-26.247-16.81-34.586l-27.708-21.77v-26.6c0-2.286-1.853-4.139-4.139-4.139h-116.796c-2.286 0-4.139 1.853-4.139 4.139z" fill="#f9f3f1"/><path d="m169.954 495.904v-263.298c0-13.497 6.197-26.247 16.81-34.586l17.897-14.062c6.194-4.867 9.811-12.308 9.811-20.186 0-10.086 8.176-18.262 18.262-18.262h57.032v-23.585c0-2.286-1.853-4.139-4.139-4.139h-116.797c-2.286 0-4.139 1.853-4.139 4.139v26.6l-27.708 21.77c-10.613 8.339-16.81 21.089-16.81 34.587v263.298c0 15.989 12.961 28.95 28.95 28.95h20.861c-.016-.407-.03-.815-.03-1.226z" fill="#f3eae6"/><path d="m346.8 57.134h25.985c2.982 0 5-3.041 3.84-5.789l-1.965-4.654c-11.944-28.298-39.673-46.691-70.388-46.691h-159.571c-2.325 0-4.21 1.885-4.21 4.21v23.58c0 2.325 1.885 4.21 4.21 4.21h159.573c16.343 0 31.15 8.89 38.893 22.993.727 1.324 2.122 2.141 3.633 2.141z" fill="#f3eae6"/><circle cx="227.228" cy="327.339" fill="#91deb6" r="77.553"/><path d="m262.474 311.576h-19.483v-19.483c0-2.533-2.054-4.587-4.587-4.587h-22.35c-2.533 0-4.587 2.054-4.587 4.587v19.483h-19.483c-2.533 0-4.587 2.054-4.587 4.587v22.35c0 2.533 2.054 4.587 4.587 4.587h19.483v19.483c0 2.533 2.054 4.587 4.587 4.587h22.35c2.533 0 4.587-2.054 4.587-4.587v-19.483h19.483c2.533 0 4.587-2.054 4.587-4.587v-22.35c0-2.533-2.054-4.587-4.587-4.587z" fill="#faf7f7"/></g></g></svg>