<svg id="Capa_1" enable-background="new 0 0 495.833 495.833" height="512" viewBox="0 0 495.833 495.833" width="512" xmlns="http://www.w3.org/2000/svg"><g><g id="XMLID_545_"><g><path d="m332.667 356.803v116.96c0 12.19-9.88 22.07-22.07 22.07h-123.36c-12.19 0-22.07-9.88-22.07-22.07v-116.96z" fill="#f9f3f1"/></g></g><path d="m165.167 356.803v116.96c0 12.189 9.881 22.07 22.07 22.07h54.323c-12.19 0-22.07-9.88-22.07-22.07v-50.776c0-12.252 9.932-22.183 22.183-22.183h83.213c2.651 0 5.248-.228 7.78-.65v-43.351z" fill="#f3eae6"/><path d="m95.857 11.912v21.741l9.66 63.96 26.263 23.142 27.819 165.904-23.353 14.404h-.001l8.661 57.34c1.95 12.88 13.02 22.4 26.04 22.4h153.94c13.02 0 24.09-9.52 26.04-22.4l8.661-57.34h-.001l-20.933-17.438v-141.12l51.662-44.892 9.661-63.96 2.398-23.058z" fill="#f9f3f1"/><g><path d="m165.167 430.822h167.5v15h-167.5z" fill="#f3eae6"/><path d="m165.167 430.822h54.323v15h-54.323z" fill="#efe2dd"/><path d="m282.771 454.74h-67.709c-3.789 0-6.86-3.071-6.86-6.86v-19.118c0-3.789 3.071-6.86 6.86-6.86h67.709c3.789 0 6.86 3.071 6.86 6.86v19.118c0 3.789-3.071 6.86-6.86 6.86z" fill="#efe2dd"/><path d="m95.857 11.912v21.741l9.66 63.96 19.687 30.224 29.337 154.776-18.294 18.45h-.001l8.661 57.34c1.95 12.88 13.02 22.4 26.04 22.4h53.427c-13.02 0-24.09-9.52-26.04-22.4l-39.453-261.21c-3.461-22.917 14.283-43.542 37.46-43.542h200.616l3.02-19.998 2.374-22.828.024-.229z" fill="#f3eae6"/><g id="XMLID_544_"><g><path d="m390.316 97.613-30.729 203.45h-223.34l-30.73-203.45z" fill="#99e6fc"/></g></g><path d="m158.922 97.463-53.405.15 13.449 89.041 17.281 114.409 53.403-.15z" fill="#62dbfb"/><path d="m292.065 179.668h-24.128v-24.128c0-3.137-2.543-5.681-5.681-5.681h-27.679c-3.137 0-5.681 2.543-5.681 5.681v24.128h-24.128c-3.137 0-5.681 2.543-5.681 5.681v27.679c0 3.137 2.543 5.681 5.681 5.681h24.128v24.128c0 3.137 2.543 5.681 5.681 5.681h27.679c3.137 0 5.681-2.543 5.681-5.681v-24.128h24.128c3.137 0 5.681-2.543 5.681-5.681v-27.679c0-3.137-2.544-5.681-5.681-5.681z" fill="#f37c7c"/></g><path d="m402.424 33.651h-309.015c-4.763 0-8.625-3.861-8.625-8.625v-16.401c0-4.764 3.862-8.625 8.625-8.625h309.015c4.763 0 8.625 3.861 8.625 8.625v16.402c0 4.763-3.862 8.624-8.625 8.624z" fill="#f9f3f1"/></g></svg>