<svg id="Capa_1" enable-background="new 0 0 497.682 497.682" height="512" viewBox="0 0 497.682 497.682" width="512" xmlns="http://www.w3.org/2000/svg"><g><path d="m291.237 0h-117.5l-16.905 9.944v27.463l16.905 3.833h9.96c25.19 0 45.6 20.42 45.6 45.6v30.86h53.4l.05-45.73c0-2.87 2.33-5.19 5.19-5.19h52.34c2.53 0 4.58-2.05 4.58-4.58v-8.58c0-29.62-24.01-53.62-53.62-53.62z" fill="#f9f3f1"/><path d="m282.74 78.437h-23.388c-3.954 0-7.16-3.205-7.16-7.16 0-25.184-20.416-45.6-45.6-45.6h-36.96c-3.761 0-6.81-3.049-6.81-6.81v-12.447l-5.99 3.524v27.463l16.905 3.833h9.96c25.184 0 45.6 20.416 45.6 45.6v30.86h19.544 33.856l.017-15.563z" fill="#f3eae6"/><path d="m282.749 93.438h-50.958c-5.54 0-10.031 4.491-10.031 10.031v38.498h71.019v-38.498c.001-5.541-4.49-10.031-10.03-10.031z" fill="#efe2dd"/><g><path d="m209.483 136.197v34.99l-65.374 45.417c-8.883 6.171-14.18 16.301-14.18 27.117v202.954c0 28.17 22.837 51.007 51.007 51.007h135.81c28.17 0 51.007-22.837 51.007-51.007v-221.65c0-15.074-7.206-29.239-19.388-38.115l-43.417-31.634v-19.079c0-5.65-4.58-10.23-10.23-10.23h-75.004c-5.651-.001-10.231 4.579-10.231 10.23z" fill="#f2fbff"/><path d="m190.393 446.675v-202.954c0-10.816 5.297-20.946 14.18-27.117l49.581-34.446c9.893-6.873 15.793-18.156 15.793-30.202v-15.759c0-5.65 4.58-10.23 10.23-10.23h-60.464c-5.65 0-10.23 4.58-10.23 10.23v34.99l-65.374 45.418c-8.883 6.171-14.18 16.301-14.18 27.117v202.954c0 28.17 22.837 51.007 51.007 51.007h60.464c-28.171-.001-51.007-22.837-51.007-51.008z" fill="#dff6fd"/><g id="XMLID_549_"><g><path d="m173.737 0v41.24h-27c-3.76 0-6.81-3.04-6.81-6.8v-27.64c0-3.76 3.05-6.8 6.81-6.8z" fill="#f3eae6"/></g></g><path d="m169.633 25.678c-3.76 0-6.81-3.04-6.81-6.8v-18.878h-16.086c-3.76 0-6.81 3.04-6.81 6.8v27.64c0 3.76 3.05 6.8 6.81 6.8h27v-15.562z" fill="#efe2dd"/><path d="m242.217 145.1h30.1v206.84h-30.1z" fill="#dff6fd"/><path d="m242.217 145.1v45.351l11.936-8.292c9.893-6.873 15.793-18.156 15.793-30.202v-6.857z" fill="#c8effe"/><path d="m286.048 125.966h-57.556l8.178 34.735c.606 2.575 2.904 4.395 5.55 4.395h30.099c2.646 0 4.944-1.82 5.55-4.395z" fill="#dff6fd"/><path d="m280.174 125.966h-51.682l8.178 34.735c.606 2.575 2.904 4.395 5.55 4.395h25.295c1.584-4.14 2.431-8.585 2.431-13.14v-15.759c.001-5.65 4.579-10.229 10.228-10.231z" fill="#c8effe"/><g><path d="m337.757 338.51v103.08c0 14.409-11.681 26.09-26.09 26.09h-125.65c-14.409 0-26.09-11.681-26.09-26.09v-103.08c0-3.629 2.942-6.57 6.57-6.57h164.689c3.63 0 6.571 2.942 6.571 6.57z" fill="#fef48b"/></g><path d="m190.393 331.94h-23.895c-3.629 0-6.57 2.942-6.57 6.571v103.08c0 14.409 11.681 26.09 26.09 26.09h8.904c-2.9-6.407-4.528-13.514-4.528-21.005v-114.736z" fill="#fef056"/><g><g id="XMLID_542_"><g><path d="m272.317 331.94v94.75c0 1.95-1.58 3.52-3.52 3.52h-23.05c-1.95 0-3.53-1.57-3.53-3.52v-94.75z" fill="#fef056"/></g></g></g></g></g></svg>