<svg id="Capa_1" enable-background="new 0 0 500.625 500.625" height="512" viewBox="0 0 500.625 500.625" width="512" xmlns="http://www.w3.org/2000/svg"><g><g id="XMLID_548_"><g><path d="m464.453 137.414v278.09c-134.09 28.36-294.19 28.36-428.28 0v-278.09c20.59-4.36 54.17-8.04 74.76-11.05 0 0 129.74-21.82 277.83-.14 20.9 3.04 54.79 6.77 75.69 11.19z" fill="#99e6fc"/></g></g><path d="m114.826 375.787c-26.09-3.236-45.652-25.458-45.652-51.748v-180.376c0-3.961-.508-7.806-1.459-11.474-11.535 1.618-22.729 3.359-31.542 5.225v225.33 20.135 32.625c134.09 28.36 294.19 28.36 428.28 0v-52.76c-108.693 22.988-234.464 27.326-349.627 13.043z" fill="#62dbfb"/><path d="m496.899 435.689h-19.712c-14.213 0-25.734-11.522-25.734-25.734v-266.292c0-14.213 11.522-25.734 25.734-25.734h19.712c2.058 0 3.726 1.668 3.726 3.726v310.308c0 2.058-1.668 3.726-3.726 3.726z" fill="#dff6fd"/><path d="m3.726 435.689h19.712c14.213 0 25.734-11.522 25.734-25.734v-266.292c0-14.213-11.522-25.734-25.734-25.734h-19.712c-2.058 0-3.726 1.668-3.726 3.726v310.308c0 2.058 1.668 3.726 3.726 3.726z" fill="#dff6fd"/><path d="m364.616 218.503c13.798 0 24.983 11.185 24.983 24.983v92.226c0 13.798-11.185 24.983-24.983 24.983h-229.607c-13.798 0-24.983-11.185-24.983-24.983v-92.226c0-13.798 11.185-24.983 24.983-24.983z" fill="#f3eae6"/><path d="m359.599 252.77v73.659c0 2.356-1.91 4.266-4.266 4.266h-211.04c-2.356 0-4.266-1.91-4.266-4.266v-73.659c0-2.356 1.91-4.266 4.266-4.266h211.04c2.356 0 4.266 1.91 4.266 4.266z" fill="#f9f3f1"/><g id="XMLID_551_"><g><path d="m376.463 70.214c2.51.41 3.93 3.11 2.86 5.41l-36.25 77.44-24.78 140.54h-136.96l-24.78-140.54-36.25-77.44c-1.07-2.3.35-5 2.86-5.41l20.62-3.36c14.71-2.39 29.78-1.44 44.07 2.79l16.2 4.81 9.6-3.77c23.25-9.11 49.07-9.11 72.32 0l9.6 3.77 16.2-4.81c14.29-4.23 29.36-5.18 44.07-2.79z" fill="#f2fbff"/></g></g><path d="m290.909 142.121c.176.012.35.018.523.018 3.907 0 7.201-3.027 7.475-6.984l4.144-60.11.26-2.888-7.739 2.298-7.272-2.856-.196 2.177c-.005.053-.009.105-.013.158l-4.149 60.189c-.285 4.132 2.834 7.713 6.967 7.998z" fill="#dff6fd"/><path d="m197.368 72.469.201 2.496 4.149 60.189c.273 3.957 3.567 6.984 7.475 6.984.173 0 .348-.006.523-.018 4.132-.285 7.251-3.866 6.967-7.998l-4.156-60.276-.212-2.637-8.262 3.244z" fill="#dff6fd"/><g><path d="m323.142 266.099h-47.313c-34.812 0-64.599-24.995-70.644-59.278l-10.802-61.262-36.25-77.44c-.388-.834-.445-1.72-.245-2.531-4.714.086-9.428.505-14.106 1.266l-20.62 3.36c-2.51.41-3.93 3.11-2.86 5.41l36.25 77.44 24.78 140.54h136.96l1.323-7.504z" fill="#dff6fd"/><path d="m331.373 301.099h-159.788c-4.142 0-7.5-3.357-7.5-7.5s3.358-7.5 7.5-7.5h159.789c4.143 0 7.5 3.357 7.5 7.5s-3.358 7.5-7.501 7.5z" fill="#f3eae6"/></g></g></svg>