<svg id="Capa_1" enable-background="new 0 0 498.108 498.108" height="512" viewBox="0 0 498.108 498.108" width="512" xmlns="http://www.w3.org/2000/svg"><g><path d="m280.046 80.592v-47.873l19.466-26.933c1.745-2.413.021-5.786-2.956-5.786h-28.863c-6.342 0-12.435 2.472-16.984 6.891l-1.655 1.607-1.655-1.607c-4.549-4.419-10.642-6.891-16.984-6.891h-28.863c-2.977 0-4.701 3.373-2.957 5.786l19.466 26.933v47.873 19.742h62.486z" fill="#c9bfc8"/><g><path d="m238.801 37.679c0-3.224-1.017-6.367-2.905-8.98l-16.561-22.913c-1.744-2.413-.02-5.786 2.957-5.786h-20.74c-2.977 0-4.701 3.373-2.957 5.786l19.466 26.933v47.873 19.742h20.74v-19.742z" fill="#baafb9"/></g><g><g id="XMLID_552_"><g><path d="m369.124 166.358v128.9h-239.14v-128.9c0-41.65 33.76-75.42 75.42-75.42h88.3c41.66 0 75.42 33.77 75.42 75.42z" fill="#c9bfc8"/></g></g></g><g><g id="XMLID_554_"><g><path d="m366.423 146.358h-165.599c-12.771 0-20.161-14.547-12.567-24.815 13.732-18.566 35.778-30.606 60.649-30.606h-43.502c-41.66 0-75.42 33.77-75.42 75.42v128.9h36.86 6.642 195.638v-128.9c0-6.926-.953-13.627-2.701-19.999z" fill="#baafb9"/><path d="m402.104 166.358c6.26 0 11.13 5.43 10.46 11.66l-32.73 302.02c-1.12 10.28-9.79 18.07-20.13 18.07h-221.3c-10.34 0-19.01-7.79-20.13-18.07l-32.73-302.02c-.67-6.23 4.2-11.66 10.46-11.66z" fill="#f9f3f1"/><path d="m206.595 483.175c-10.34 0-19.01-7.79-20.13-18.07l-32.375-298.747h-58.086c-6.26 0-11.13 5.43-10.46 11.66l32.73 302.02c1.12 10.28 9.79 18.07 20.13 18.07h221.3c9.256 0 17.156-6.25 19.518-14.933z" fill="#f3eae6"/></g></g><g id="XMLID_555_"><g><path d="m409.374 207.448-3.68 33.95h-313.28l-3.65-33.63z" fill="#f3eae6"/></g><path d="m158.521 207.698-69.753.07 3.646 33.63h69.759z" fill="#efe2dd"/><g><g id="XMLID_558_"><g><path d="m133.264 287.818v162.62c0 2.44-1.98 4.43-4.43 4.43h-13.29l-15.36-141.81v-25.24c0-2.45 1.98-4.43 4.43-4.43h24.22c2.45 0 4.43 1.98 4.43 4.43z" fill="#efe2dd"/><path d="m199.934 287.818v162.62c0 2.44-1.99 4.43-4.43 4.43h-24.23c-2.45 0-4.43-1.99-4.43-4.43v-162.62c0-2.45 1.98-4.43 4.43-4.43h24.23c2.44 0 4.43 1.98 4.43 4.43z" fill="#f3eae6"/><path d="m171.274 454.868h14.033l-18.245-168.358c-.129.416-.218.849-.218 1.308v162.62c0 2.44 1.98 4.43 4.43 4.43z" fill="#efe2dd"/><g fill="#f3eae6"><path d="m265.594 287.818v162.62c0 2.44-1.98 4.43-4.43 4.43h-24.22c-2.45 0-4.43-1.99-4.43-4.43v-162.62c0-2.45 1.98-4.43 4.43-4.43h24.22c2.45 0 4.43 1.98 4.43 4.43z"/><path d="m332.264 287.818v162.62c0 2.44-1.98 4.43-4.43 4.43h-24.23c-2.44 0-4.43-1.99-4.43-4.43v-162.62c0-2.45 1.99-4.43 4.43-4.43h24.23c2.45 0 4.43 1.98 4.43 4.43z"/><path d="m398.924 303.828-16.36 151.04h-12.29c-2.45 0-4.43-1.99-4.43-4.43v-162.62c0-2.45 1.98-4.43 4.43-4.43h24.22c2.45 0 4.43 1.98 4.43 4.43z"/></g></g></g></g></g><path d="m283.001 90.943h-64.94c-8.933 0-16.175-7.242-16.175-16.175 0-8.933 7.242-16.175 16.175-16.175h64.94c8.933 0 16.175 7.242 16.175 16.175 0 8.933-7.241 16.175-16.175 16.175z" fill="#baafb9"/><path d="m226.533 74.767c0-8.933 7.242-16.175 16.175-16.175h-24.647c-8.933 0-16.175 7.242-16.175 16.175s7.242 16.175 16.175 16.175h24.647c-8.933 0-16.175-7.241-16.175-16.175z" fill="#aa9ea9"/></g></g></svg>