<svg id="Capa_1" enable-background="new 0 0 496.188 496.188" height="512" viewBox="0 0 496.188 496.188" width="512" xmlns="http://www.w3.org/2000/svg"><g><path d="m184.834 58.714-8.641-44.976c-1.532-7.974-8.509-13.738-16.629-13.738h-13.833c-8.12 0-15.097 5.764-16.629 13.738l-8.641 44.976-1.899 20.768h67.441z" fill="#f3eae6"/><path d="m207.805 134.632h-110.314v-60.228c0-8.665 7.025-15.69 15.69-15.69h78.934c8.665 0 15.69 7.025 15.69 15.69z" fill="#efe2dd"/><path d="m453.979 351.218c13.35 0 24.17 10.82 24.17 24.16 0 6.67-2.7 12.71-7.08 17.09-4.37 4.37-10.42 7.07-17.09 7.07h-24.16-186.42v-48.32h44.86z" fill="#fef48b"/><path d="m453.979 302.898c13.35 0 24.17 10.81 24.17 24.16 0 6.67-2.7 12.71-7.08 17.08-4.37 4.37-10.42 7.08-17.09 7.08h-165.72-44.86v-48.32h18.25 26.61 141.56z" fill="#dff6fd"/><path d="m463.989 413.698c8.75 8.74 14.16 20.83 14.16 34.17 0 26.69-21.64 48.32-48.33 48.32h-186.42v-96.65h186.42c13.35 0 25.43 5.41 34.17 14.16z" fill="#dff6fd"/><g id="XMLID_561_"><g><path d="m463.989 220.398c8.75 8.75 14.16 20.83 14.16 34.17 0 26.69-21.64 48.33-48.33 48.33h-141.56-26.61v-96.65h26.17 142c13.35 0 25.43 5.41 34.17 14.15z" fill="#fef48b"/></g></g><g><path d="m438.204 262.069h-180.943c-4.143 0-7.5-3.357-7.5-7.5s3.357-7.5 7.5-7.5h180.943c4.143 0 7.5 3.357 7.5 7.5s-3.358 7.5-7.5 7.5z" fill="#fef056"/></g><g><path d="m438.204 455.366h-220.749c-4.143 0-7.5-3.357-7.5-7.5s3.357-7.5 7.5-7.5h220.749c4.143 0 7.5 3.357 7.5 7.5s-3.358 7.5-7.5 7.5z" fill="#c8effe"/></g><g id="XMLID_559_"><g><path d="m186.169 94.627h-32.275c-9.112 0-16.498-7.387-16.498-16.498v-3.725c0-8.665 7.024-15.69 15.69-15.69h-39.904c-8.665 0-15.69 7.025-15.69 15.69v60.228h30.004 9.9 70.409v-38.066c-7.023-1.272-14.253-1.939-21.636-1.939z" fill="#e1d3ce"/><path d="m287.259 215.728v236.6c0 24.22-19.64 43.86-43.86 43.86h-181.5c-24.23 0-43.86-19.64-43.86-43.86v-236.6c0-55.83 45.26-101.1 101.09-101.1h67.04c55.83 0 101.09 45.27 101.09 101.1zm-38 12.66v-12.66c0-34.85-28.25-63.1-63.09-63.1-5.48 0-10.43 2.22-14.02 5.81-3.58 3.59-5.8 8.54-5.8 14.01v55.86c0 10.99 8.91 19.9 19.9 19.9h43.2c10.94 0 19.81-8.87 19.81-19.82z" fill="#c8effe"/></g></g><g><path d="m83.355 452.328v-236.6c0-55.83 45.26-101.1 101.09-101.1h-65.317c-55.83 0-101.09 45.27-101.09 101.1v236.6c0 24.22 19.63 43.86 43.86 43.86h65.317c-24.229 0-43.86-19.641-43.86-43.86z" fill="#99e6fc"/></g><g><path d="m48.035 369.78v82.547c0 7.656 6.207 13.863 13.863 13.863h181.5c7.656 0 13.862-6.206 13.862-13.862v-82.548c0-8.416-6.822-15.238-15.238-15.238h-178.749c-8.416 0-15.238 6.822-15.238 15.238z" fill="#f9f3f1"/></g><path d="m83.355 452.328v-97.786h-20.082c-8.416 0-15.238 6.822-15.238 15.238v82.547c0 7.656 6.207 13.863 13.863 13.863h23.706c-1.451-4.359-2.249-9.016-2.249-13.862z" fill="#f3eae6"/></g></svg>