<svg id="Capa_1" enable-background="new 0 0 496.249 496.249" height="512" viewBox="0 0 496.249 496.249" width="512" xmlns="http://www.w3.org/2000/svg"><g><path d="m269.236 173.272h-61.948v45.955c0 9.332 7.565 16.897 16.897 16.897h28.154c9.332 0 16.897-7.565 16.897-16.897z" fill="#f3eae6"/><g id="XMLID_562_"><g><path d="m269.236 203.27v-29.999h-34.306-7.615-20.027v45.955c0 9.332 7.565 16.897 16.897 16.897h27.642c-9.332 0-16.897-7.565-16.897-16.897v-4.507c0-6.323 5.126-11.449 11.449-11.449z" fill="#efe2dd"/><path d="m313.583 61.77h-133.355l-26.316 29.07 8.53 77.21c1.27 11.51 10.99 20.22 22.57 20.22h106.5c11.58 0 21.3-8.71 22.57-20.22l8.53-77.21z" fill="#f9f3f1"/><path d="m216.569 168.05-8.53-77.21 26.316-29.07h-54.127l-26.316 29.07 8.53 77.21c1.27 11.51 10.99 20.22 22.57 20.22h54.127c-11.58 0-21.3-8.71-22.57-20.22z" fill="#f3eae6"/><path d="m332.075 5.131-9.463 85.709h-168.7l-9.463-85.709c-.303-2.738 1.841-5.131 4.595-5.131h178.436c2.754 0 4.898 2.393 4.595 5.131z" fill="#99e6fc"/></g></g><path d="m203.171 0h-54.127c-2.754 0-4.898 2.393-4.596 5.131l9.464 85.709h54.127l-9.464-85.709c-.302-2.738 1.842-5.131 4.596-5.131z" fill="#62dbfb"/><g><path d="m149.99 402.912-77.77-77.77c-8.623-8.623-8.623-22.604 0-31.227 8.623-8.623 22.604-8.623 31.227 0l61.629 61.629 65.57 57.951-29.158 26.802z" fill="#ffcebf"/><path d="m219.16 345.18-64.75-64.75c-8.898-8.898-23.326-8.898-32.224 0-8.898 8.898-8.898 23.326 0 32.224l44.182 44.182 70.126 64.971 23.908-29.779z" fill="#ffcebf"/><path d="m164.348 391.065-77.77-77.77c-6.796-6.796-8.203-16.938-4.287-25.144-3.685.954-7.185 2.878-10.071 5.764-8.623 8.623-8.623 22.604 0 31.227l77.77 77.77 51.497 37.385 13.537-12.443z" fill="#ffb09e"/><path d="m180.726 344.99-44.182-44.182c-7.095-7.095-8.503-17.72-4.283-26.241-3.685 1.011-7.18 2.968-10.075 5.864-8.898 8.898-8.898 23.326 0 32.224l44.182 44.182 70.126 64.971 11.579-14.422z" fill="#ffb09e"/><g id="XMLID_564_"><g><path d="m189.542 402.91c-7.97 0-15.19-3.23-20.41-8.45-5.367-5.357-8.628-12.819-8.453-21.037.335-15.794 13.645-28.243 29.443-28.243h70.6c3.32 0 6.35-1.86 7.91-4.8 10.21-19.27 30.46-32.39 53.78-32.39 27.97 0 51.54 18.88 58.64 44.59.25.88.71 1.69 1.36 2.32l98.045 95.415c1.534 1.493.933 4.082-1.102 4.746l-125.792 41.047c-1.019.332-2.138.064-2.896-.693l-20.105-20.105c-1.434-1.434-3.38-2.24-5.408-2.24h-157.652c-11.21 0-21.95-4.48-29.84-12.43l-115.57-116.47c-9.437-9.438-9.549-24.666-.334-34.24 9.508-9.878 25.608-9.646 35.303.049l92.931 92.931z" fill="#ffdfcf"/></g><g><g><path d="m260.402 410.41h-70.86c-4.142 0-7.5-3.357-7.5-7.5s3.358-7.5 7.5-7.5h70.86c4.142 0 7.5 3.357 7.5 7.5s-3.358 7.5-7.5 7.5z" fill="#ffcebf"/></g></g></g><path d="m272.164 311.278c0 18.724-15.178 33.902-33.902 33.902s-33.902-15.178-33.902-33.902c0-16.167 25.276-36.824 32.179-42.164 1.018-.788 2.429-.788 3.447 0 6.902 5.339 32.178 25.997 32.178 42.164z" fill="#c8effe"/><path d="m277.273 70.289h-21.288v-21.289c0-2.768-2.244-5.012-5.012-5.012h-24.421c-2.768 0-5.012 2.244-5.012 5.012v21.288h-21.288c-2.768 0-5.012 2.244-5.012 5.012v24.421c0 2.768 2.244 5.012 5.012 5.012h21.288v21.288c0 2.768 2.244 5.012 5.012 5.012h24.421c2.768 0 5.012-2.244 5.012-5.012v-21.288h21.288c2.768 0 5.012-2.244 5.012-5.012v-24.42c0-2.768-2.244-5.012-5.012-5.012z" fill="#f37c7c"/></g><g><path d="m344.933 454.765c-.9-.901-2.122-1.406-3.395-1.406h-158.831c-11.21 0-21.95-4.48-29.84-12.43l-115.57-116.47c-5.517-5.517-7.833-13.021-6.976-20.209-3.146 1.212-6.083 3.104-8.562 5.68-9.215 9.574-9.104 24.802.334 34.24l115.57 116.47c7.89 7.95 18.63 12.43 29.84 12.43h157.652c2.028 0 3.974.806 5.408 2.24l20.105 20.105c.758.758 1.877 1.026 2.896.693l26.426-8.623z" fill="#ffcebf"/></g></g></svg>