<svg id="Capa_1" enable-background="new 0 0 497.1 497.1" height="512" viewBox="0 0 497.1 497.1" width="512" xmlns="http://www.w3.org/2000/svg"><g><g><path d="m219.586 345.38-64.75-64.75c-8.898-8.898-23.326-8.898-32.224 0-8.898 8.898-8.898 23.326 0 32.224l44.182 44.182 70.126 64.971 23.908-29.779z" fill="#ffcebf"/><path d="m150.416 403.112-77.77-77.77c-8.623-8.623-8.623-22.604 0-31.227 8.623-8.623 22.604-8.623 31.227 0l61.629 61.629 65.57 57.951-29.158 26.802z" fill="#ffcebf"/><g><path d="m164.774 391.265-77.77-77.77c-6.796-6.796-8.203-16.938-4.287-25.144-3.685.954-7.185 2.878-10.071 5.764-8.623 8.623-8.623 22.604 0 31.227l77.77 77.77 51.497 37.385 13.537-12.443z" fill="#ffb09e"/><path d="m181.152 345.189-44.182-44.182c-7.095-7.095-8.503-17.72-4.283-26.241-3.685 1.011-7.18 2.968-10.075 5.864-8.898 8.898-8.898 23.326 0 32.224l44.182 44.182 70.126 64.971 11.579-14.422z" fill="#ffb09e"/><path d="m236.171 315.992-62.697 24.352-3.272 10.969v22.003h103.819v-57.324z" fill="#c8effe"/><g><path d="m189.968 403.11c-7.97 0-15.19-3.23-20.41-8.45-5.367-5.356-8.628-12.819-8.453-21.037.335-15.794 13.645-28.243 29.443-28.243h70.6c3.32 0 6.35-1.86 7.91-4.8 10.21-19.27 30.46-32.39 53.78-32.39 27.97 0 51.54 18.88 58.64 44.59.25.88.71 1.69 1.36 2.32l98.045 95.415c1.534 1.493.933 4.082-1.102 4.746l-125.792 41.047c-1.019.332-2.138.064-2.896-.693l-20.105-20.105c-1.434-1.434-3.38-2.24-5.408-2.24h-157.652c-11.21 0-21.95-4.48-29.84-12.43l-115.57-116.47c-9.437-9.438-9.549-24.666-.334-34.24 9.508-9.878 25.608-9.646 35.303.049l92.931 92.931z" fill="#ffdfcf"/></g><g><path d="m345.359 454.965c-.9-.901-2.122-1.406-3.395-1.406h-158.831c-11.21 0-21.95-4.48-29.84-12.43l-115.57-116.47c-5.517-5.517-7.833-13.021-6.976-20.209-3.146 1.212-6.083 3.104-8.562 5.68-9.215 9.574-9.104 24.802.334 34.24l115.57 116.47c7.89 7.95 18.63 12.43 29.84 12.43h157.651c2.028 0 3.974.806 5.408 2.24l20.105 20.105c.758.758 1.877 1.026 2.896.693l26.426-8.623z" fill="#ffcebf"/></g><g id="XMLID_565_"><g><path d="m305.421 313.37v83.17c0 4.34-1.76 8.26-4.6 11.1-2.865 2.865-6.84 4.621-11.215 4.59-8.703-.062-15.585-7.46-15.585-16.164v-42.456c0-4.54-3.68-8.23-8.23-8.23h-78.34c-5.74 0-12.759 3.033-17.249 5.933l.695-44.592c-.165-7.409 2.655-14.637 8.005-19.765 6.404-6.137 15.095-9.906 24.669-9.906 1.761 0 3.502.135 5.19.383 3.45.508 6.53-2.216 6.53-5.703v-158.6h42.76v158.63c0 3.533 3.157 6.159 6.653 5.651 3.242-.471 6.614-.501 10.087-.011 17.7 2.51 30.63 18.09 30.63 35.97z" fill="#99e6fc"/></g></g><path d="m289.721 497.1c-8.67 0-15.698-7.028-15.698-15.698v-19.99c0-8.67 7.028-15.698 15.698-15.698 8.67 0 15.698 7.028 15.698 15.698v19.99c0 8.67-7.029 15.698-15.698 15.698z" fill="#99e6fc"/><g id="XMLID_567_"><g><path d="m276.355 75.731h-82.251l-7.013 12.02v32.72c0 7 5.67 12.66 12.66 12.66h72.84c6.99 0 12.66-5.66 12.66-12.66v-32.721z" fill="#efe2dd"/><path d="m285.251 23.22v64.53h-98.16v-31.444c0-2.329-1.888-4.216-4.216-4.216h-99.749c-3.045 0-5.514-2.469-5.514-5.514v-41.062c-.001-3.045 2.468-5.514 5.514-5.514h178.906c12.823 0 23.219 10.396 23.219 23.22z" fill="#f3eae6"/></g></g><g fill="#c8effe"><path d="m371.517 179.337c3.732 9.757-1.153 20.692-10.91 24.424s-34.816-6.936-34.816-6.936 11.546-24.667 21.303-28.398c9.756-3.733 20.691 1.152 24.423 10.91z"/><path d="m362.813 87.724c5.215 5.941 4.626 14.986-1.315 20.201s-26.529 4.239-26.529 4.239 1.702-20.54 7.644-25.755 14.985-4.626 20.2 1.315z"/><path d="m101.826 179.337c-3.732 9.757 1.153 20.692 10.91 24.424s34.816-6.936 34.816-6.936-11.546-24.667-21.303-28.398c-9.757-3.733-20.692 1.152-24.423 10.91z"/><path d="m110.53 87.724c-5.215 5.941-4.626 14.986 1.315 20.201s26.529 4.239 26.529 4.239-1.702-20.54-7.644-25.755-14.985-4.626-20.2 1.315z"/></g></g></g><g><g><path d="m257.542 407.949h-70.86c-4.142 0-7.5-3.357-7.5-7.5s3.358-7.5 7.5-7.5h70.86c4.142 0 7.5 3.357 7.5 7.5s-3.358 7.5-7.5 7.5z" fill="#ffcebf"/></g></g></g></svg>