<svg id="Capa_1" enable-background="new 0 0 497.1 497.1" height="512" viewBox="0 0 497.1 497.1" width="512" xmlns="http://www.w3.org/2000/svg"><g><path d="m153.555 399.879c-6.154 12.603-19.45 21.079-34.621 20.148-17.354-1.065-31.65-14.708-33.506-31.995-.15-1.395-.218-2.776-.21-4.138.017-2.881-1.97-5.323-4.751-6.071-11.634-3.132-20.197-13.749-20.197-26.373 0-9.114 4.468-17.18 11.328-22.143l54.227-29.367 56.095 51.293z" fill="#f9f3f1"/><path d="m164.629 195.295c-5.553 9.532-16.238 15.562-27.968 14.611-16.286-1.32-28.417-15.592-27.097-31.877.49-6.043 2.766-11.511 6.263-15.935-5.92-4.563-9.488-11.932-8.839-19.937 1.019-12.567 12.032-21.929 24.599-20.91 5.909.479 11.108 3.168 14.854 7.189l37.594 25.973z" fill="#f9f3f1"/><g id="XMLID_571_"><g><path d="m435.925 62.89c10.3 5.15 15.53 16.84 12.51 27.95l-49.62 182.42-1.84 81.28c-.51 22.49-7.6 44.34-20.39 62.85l-14.04 20.32v44.404c0 8.277-6.71 14.986-14.986 14.986h-144.948c-8.277 0-14.986-6.71-14.986-14.986v-52.474c-22.31-10.64-38.24-31.24-42.92-55.51l-1.42-7.36-77.98-42.8c-11.16-6.13-17.49-17.66-17.49-29.57 0-5.37 1.28-10.81 3.99-15.87 8.38-15.66 27.48-22.12 43.65-14.77l59.92 27.24 3.3-4.46c3.45-4.66 7.25-9.04 11.39-13.08 4.13-4.04 8.58-7.75 13.32-11.09l-56.54-207.86c-.69-2.53-1.02-5.08-1.02-7.59 0-11.81 7.3-22.78 18.86-27.05 15.17-5.6 31.97 2.35 37.26 17.62l61.3 176.93v-186.68c0-7.66 3.1-14.6 8.12-19.62s11.95-8.12 19.61-8.12c15.06 0 27.37 12.02 27.73 27.07l4.19 173.65 25.69-166.68c1.96-12.68 12.88-21.63 25.18-21.63 1.79 0 3.61.19 5.43.58 12.52 2.72 21.09 14.29 20.02 27.06l-13.45 160.67 36.19-123.04c3.14-10.69 12.88-17.35 23.19-17.35 3.61 0 7.29.82 10.78 2.56z" fill="#ffdfcf"/></g></g><g fill="#f9f3f1"><path d="m422.09 287.353c3.02-4.936 4.606-10.844 4.177-17.148-1.005-14.784-13.327-26.583-28.14-26.994-16.412-.455-29.859 12.713-29.859 29.023 0 5.18 1.363 10.039 3.74 14.25-11.17 1.64-19.746 11.26-19.746 22.885 0 12.777 10.358 23.135 23.135 23.135.495 0 .985-.021 1.473-.052 3.907 11.503 15.163 19.612 28.18 18.713 13.659-.944 24.721-12.015 25.654-25.674.534-7.819-2.181-15.001-6.929-20.335-4.423-4.969-5.157-12.129-1.685-17.803z"/><path d="m238.076 350.412c.792-4.398.397-9.088-1.425-13.608-4.538-11.257-16.919-17.572-28.7-14.652-13.934 3.453-21.861 17.864-17.603 31.338 1.434 4.536 4.06 8.363 7.423 11.248 3.18 2.728 4.593 6.896 3.85 11.019-.792 4.399-.397 9.088 1.425 13.608 4.539 11.257 16.92 17.571 28.701 14.651 13.933-3.454 21.861-17.864 17.603-31.338-1.434-4.536-4.06-8.363-7.423-11.248-3.181-2.727-4.593-6.895-3.851-11.018z"/></g><g><g id="XMLID_568_"><g fill="#ffdfcf"><path d="m432.072 60.409c-.19-.02-.38-.03-.56-.04.19 0 .38.02.56.04z"/><path d="m432.302 60.429c.4.02.8.07 1.2.13-.4-.05-.8-.1-1.2-.13z"/></g></g></g><path d="m183.38 262.373c13.733-11.202 19.59-29.443 14.938-46.544l-48.774-179.313c-.69-2.53-1.02-5.08-1.02-7.59 0-3.654.703-7.227 2.01-10.547-1.958.286-3.917.777-5.849 1.491-11.56 4.27-18.86 15.24-18.86 27.05 0 2.51.33 5.06 1.02 7.59l56.54 207.86c-.003.002-.008.006-.005.003z" fill="#ffcebf"/><g><path d="m216.257 415.787c0-5.56-2.922-10.675-7.641-13.613-18.28-11.381-31.152-29.927-35.279-51.326-.9-4.662-3.829-8.682-7.991-10.967l-71.409-39.193c-11.16-6.13-17.49-17.66-17.49-29.57 0-3.41.529-6.853 1.6-10.204-10.777 1.124-20.786 7.421-26.242 17.616-2.71 5.06-3.99 10.5-3.99 15.87 0 11.91 6.33 23.44 17.49 29.57l77.98 42.8 1.42 7.36c4.68 24.27 20.61 44.87 42.92 55.51v52.474c0 8.277 6.71 14.986 14.986 14.986h13.646z" fill="#ffcebf"/></g><g fill="#ffcebf"><path d="m243.244 214.515c14.183 0 25.7-11.46 25.771-25.642l.861-172.44c.011-2.622.374-5.168 1.045-7.587.857-3.091 2.22-5.977 3.992-8.563-1.287-.184-2.601-.283-3.938-.283-7.66 0-14.59 3.1-19.61 8.12s-8.12 11.96-8.069 19.624z"/><path d="m303.015 199.942c14.961 0 27.678-10.931 29.926-25.722l23.159-152.431c.392-2.593 1.122-5.059 2.137-7.354.225-.508.488-1 .741-1.491-1.745-.358-3.496-.534-5.213-.534-12.3 0-23.22 8.95-25.18 21.63z"/><path d="m366.089 199.942c14.904 0 27.977-9.942 31.959-24.304l31.02-111.892c.276-.996.619-1.966.984-2.906-1.631-.342-3.28-.51-4.906-.51-10.31 0-20.05 6.66-23.19 17.35l-34.056 115.782z"/></g></g></svg>