<svg id="Capa_1" enable-background="new 0 0 496.725 496.725" height="512" viewBox="0 0 496.725 496.725" width="512" xmlns="http://www.w3.org/2000/svg"><g><g id="XMLID_579_"><g><path d="m376.475 202.971-129.14 144.74c-7.11 6.56-15.43 11.72-24.54 15.16l-33.55 10.64c-2.1 1.51-3.93 3.42-5.37 5.63l-70.093 107.37c-3.031 4.643-9.886 4.484-12.698-.295l-90.481-153.761c-2.002-3.402-1.905-7.645.25-10.952l32.023-49.151c1.99-3.07 2.67-6.81 1.89-10.38l8-31.03 128.46-165.73z" fill="#ffdfcf"/></g></g><path d="m181.225 65.212-2.445 3.154 166.136 117.218-129.14 144.74c-7.11 6.56-15.43 11.72-24.54 15.16l-33.55 10.64c-2.1 1.51-3.93 3.42-5.37 5.63l-65.464 100.278 14.231 24.184c2.812 4.779 9.667 4.938 12.698.295l70.093-107.37c1.44-2.21 3.27-4.12 5.37-5.63l33.55-10.64c9.11-3.44 17.43-8.6 24.54-15.16l129.14-144.74z" fill="#ffcebf"/><path d="m450.97 90.484c.519.034 1.039.063 1.567.063 13.727 0 24.684-11.862 23.178-25.895-1.137-10.6-9.565-19.198-20.141-20.544-1.81-.23-3.585-.251-5.304-.084-4.239.412-8.186-1.94-10.182-5.702-4.645-8.754-13.85-14.716-24.451-14.716-15.282 0-27.671 12.389-27.671 27.671v52.62l46.351 3.445z" fill="#f9f3f1"/><g><path d="m165.648 267.168.005-.01c11.168-26.873 11.173-57.703.013-84.584l-6.176-14.878c7.216-11.425 19.806-31.294 27.197-42.614 5.022-7.718 7.678-16.643 7.678-25.81 0-12.661-5.007-24.546-13.705-33.332l-127.895 165.002-3.275 12.701 61.376 38.552c19.132 12.017 44.455 5.068 54.782-15.027z" fill="#ffcebf"/><path d="m148.266 261.992c6.663 11.272 18.901 18.532 32.49 18.532h6.299c2.145 0 3.883 1.739 3.883 3.883v115.133c0 8.796 7.131 15.927 15.927 15.927 8.796 0 15.927-7.131 15.927-15.927v-155.644-106.299h-91.499v108.49z" fill="#f9f3f1"/><path d="m131.293 137.597v108.49l16.973 15.905c3.065 5.185 7.32 9.507 12.333 12.678 1.926-2.247 3.633-4.746 5.049-7.502l.005-.01c11.168-26.873 11.173-57.703.013-84.584l-6.176-14.878c4.974-7.876 12.502-19.764 19.121-30.099z" fill="#f3eae6"/><path d="m260.403 61.616c7.412-11.377 4.199-26.609-7.178-34.021-11.377-7.412-26.609-4.199-34.021 7.178l-36.156 55.883 39.743 28.687z" fill="#ffdfcf"/><g><path d="m92.195 134.462c-2.172-1.379-4.346-2.747-6.525-4.091-19.741-12.176-25.085-38.439-11.972-57.571 15.408-22.479 32.91-43.035 52.555-61.62 16.847-15.938 43.64-14.714 58.728 2.899 19.707 23.005 41.855 45.225 65.523 65.871l98.701 96.207-93.319 99.036-27.893-25.574c-27.115-30.224-58.14-58.77-90.945-83.826l-.002-.005z" fill="#b0e7c9"/></g><path d="m165.666 182.573-2.378-5.729c-2.383-5.741-1.823-12.279 1.502-17.53 4.286-6.767 9.268-14.61 13.821-21.718h-47.318v24.174l5.753 4.018.002.005c10.877 8.308 21.552 17.007 31.961 26.017-.976-3.121-2.084-6.205-3.343-9.237z" fill="#91deb6"/><g id="XMLID_574_"><g><path d="m396.485 67.032 5.01 26.45c-.29-1.55-.43-3.09-.43-4.61 0-11.57 8.22-21.88 20.01-24.12 13.34-2.52 26.21 6.25 28.73 19.59l16.64 87.92 19.8 104.6c3.49 18.45-.03 37.52-9.86 53.51l-10.73 17.42c-2.44 3.97-3.32 8.71-2.45 13.3l23.939 126.492c.899 4.75-2.745 9.145-7.579 9.141l-163.898-.119c-3.702-.003-6.88-2.637-7.568-6.275l-19.644-103.82c-1.18-6.23-4.89-11.69-10.24-15.09l-15.27-9.71c-9.97-6.34-16.86-16.52-19.06-28.12l-14.11-74.56-9.73-51.39c-.33-1.72-.48-3.43-.48-5.12 0-12.88 9.14-24.35 22.26-26.83 10.67-2.02 21.06 2.46 27.11 10.65l-18.42-97.31c-2.53-13.34 6.24-26.2 19.58-28.73 1.54-.29 3.08-.43 4.59-.43 11.59 0 21.91 8.22 24.14 20.02l-5.13-27.12c-2.53-13.34 6.24-26.21 19.59-28.73 1.55-.29 3.09-.43 4.61-.43 11.57 0 21.88 8.22 24.11 20.01l13.62 71.93-7.45-39.38c-2.53-13.34 6.24-26.2 19.58-28.73 1.55-.29 3.09-.43 4.61-.43 11.57.001 21.88 8.221 24.12 20.021z" fill="#ffdfcf"/></g></g><g id="XMLID_582_"><g><path d="m396.485 67.032s4.58 23.36 4.58 21.84c0-11.57 8.22-21.88 20.01-24.12 13.34-2.52 26.21 6.25 28.73 19.59l16.64 87.92 19.8 104.6c3.49 18.45-.03 37.52-9.86 53.51l-10.73 17.42c-2.44 3.97-3.32 8.71-2.45 13.3l23.939 126.492c.899 4.75-2.745 9.145-7.579 9.141l-163.898-.119c-3.702-.003-6.88-2.637-7.568-6.275l-19.644-103.82c-1.18-6.23-4.89-11.69-10.24-15.09l-15.27-9.71c-9.97-6.34-16.86-16.52-19.06-28.12l-14.11-74.56-9.73-51.39c-.33-1.72-.48-3.43-.48-5.12 0-12.88 9.14-24.35 22.26-26.83 10.67-2.02 21.06 2.46 27.11 10.65l-18.42-97.31c-2.53-13.34 6.24-26.2 19.58-28.73 1.54-.29 3.08-.43 4.59-.43 11.59 0 21.91 8.22 24.14 20.02l-5.13-27.12c-2.53-13.34 6.24-26.21 19.59-28.73 1.55-.29 3.09-.43 4.61-.43 11.57 0 21.88 8.22 24.11 20.01l6.17 32.55c-2.53-13.34 6.24-26.2 19.58-28.73 1.55-.29 3.09-.43 4.61-.43 11.57.001 21.88 8.221 24.12 20.021z" fill="#ffdfcf"/></g></g><g><path d="m316.096 367.08c-1.18-6.23-4.89-11.69-10.24-15.09l-15.27-9.71c-9.97-6.34-16.86-16.52-19.06-28.12l-14.11-74.56-9.73-51.39c-.33-1.72-.48-3.43-.48-5.12 0-2.697.429-5.338 1.183-7.842-2.151-.115-4.353.024-6.564.443-13.12 2.48-22.26 13.95-22.26 26.83 0 1.69.15 3.4.48 5.12l9.73 51.39 14.11 74.56c2.2 11.6 9.09 21.78 19.06 28.12l15.27 9.71c5.35 3.4 9.06 8.86 10.24 15.09l19.644 103.82c.688 3.638 3.866 6.272 7.568 6.275l25.823.019z" fill="#ffcebf"/></g><path d="m213.315 102.156c0-16.762-13.588-30.351-30.351-30.351-16.762 0-30.351 13.588-30.351 30.351 0 6.955 2.345 13.36 6.28 18.478-5.622 3.558-9.367 9.816-9.367 16.962 0 11.09 8.99 20.079 20.079 20.079s20.079-8.99 20.079-20.079c0-1.97-.296-3.868-.824-5.667 13.94-2.744 24.455-15.028 24.455-29.773z" fill="#f9f3f1"/><g id="XMLID_576_"><g><path d="m174.365 99.272c0 5.12-1.44 10.29-4.44 14.9-10.95 16.77-32.88 51.62-32.88 51.62l10.15 24.45c9.2 22.16 9.2 47.08-.01 69.24l-10.14 24.41c-13.91 16.841-38.679 19.595-55.948 6.22l-36.332-28.14c-.02-.1-.04-.21-.07-.31l-5.26-21.49c-2.81-11.47-.74-23.6 5.71-33.49l78.95-122.47c8.21-12.63 25.12-16.21 37.74-7.98 8.13 5.29 12.53 14.08 12.53 23.04z" fill="#ffdfcf"/></g></g><g fill="#f9f3f1"><path d="m443.132 273.583c0-15.186-12.311-27.496-27.496-27.496s-27.496 12.311-27.496 27.496c0 11.362 6.892 21.112 16.722 25.303v31.774c0 8.789 7.125 15.914 15.914 15.914s15.914-7.125 15.914-15.914v-39.397c4.018-4.78 6.442-10.946 6.442-17.68z"/><path d="m363.105 350.643c-1.268-.946-1.945-2.459-1.943-4.041 0-.009 0-.018 0-.027 0-15.886-13.753-28.56-30.002-26.765-12.582 1.39-22.623 11.665-23.755 24.273-1.273 14.173 8.44 26.33 21.589 28.919 1.486.293 2.739 1.305 3.382 2.677 3.477 7.429 11.283 12.426 20.177 11.723 9.918-.784 17.971-8.865 18.724-18.786.557-7.358-2.787-13.955-8.172-17.973z"/><path d="m128.05 355.142c-.89-9.932-8.921-17.993-18.849-18.918-7.166-.668-13.66 2.283-17.893 7.231-2.661 3.11-6.412 5.187-10.503 5.328-.806.028-1.623.102-2.448.226-9.44 1.418-16.841 9.281-17.686 18.79-.989 11.133 6.746 20.639 17.133 22.507-.002.118-.018.232-.018.35 0 11.942 9.996 21.55 22.077 20.913 10.844-.572 19.594-9.644 19.804-20.501.043-2.205-.258-4.332-.852-6.333-1.341-4.522-.311-9.444 3.056-12.747 4.288-4.207 6.771-10.238 6.179-16.846z"/></g></g><g fill="#ffcebf"><path d="m317.092 177.023.108-.021c13.429-2.664 22.183-15.673 19.585-29.115-6.339-32.802-17.527-90.923-23.601-123.823-13.293 2.566-22.012 15.402-19.489 28.708z"/><path d="m365.269 166.498c13.419-2.666 22.167-15.663 19.581-29.097-5.596-29.067-12.419-64.707-17.124-89.953-12.665 2.418-21.195 14.15-19.836 26.753z"/><path d="m433.224 126.934c-4.161-21.718-8.467-44.335-11.813-62.244-11.935 2.1-20.294 12.443-20.342 24.082l12.658 67.221.153-.032c13.289-2.778 21.899-15.693 19.344-29.027z"/><path d="m287.872 158.031c-4.794-26.255-12.594-68.979-17.831-97.718-13.309 2.555-22.052 15.396-19.526 28.718l18.42 97.31c12.925-2.772 21.312-15.305 18.937-28.31z"/></g></g></svg>