<svg id="Capa_1" enable-background="new 0 0 497.683 497.683" height="512" viewBox="0 0 497.683 497.683" width="512" xmlns="http://www.w3.org/2000/svg"><g><g><g><g id="XMLID_587_"><g><path d="m190.943 131.565c0-5.78 2.34-11.02 6.14-14.81 3.79-3.79 9.02-6.14 14.81-6.14 2.87 0 5.59.58 8.08 1.62l12.87 11.82v219.75 20.09c0 18.58-6.12 36.64-17.41 51.4l-12.48 16.32v55.073c0 5.875-4.762 10.637-10.637 10.637h-157.296c-5.875 0-10.637-4.762-10.637-10.637v-62.053-104.27l31.97-51.72v-36.98l7.62-116.641c.72-11.014 9.863-19.579 20.9-19.579h1.32c11.57 0 20.95 9.38 20.95 20.95v-19.33c0-5.78 2.34-11.02 6.14-14.81 3.851-3.851 9.189-6.215 15.091-6.138 11.539.151 20.669 9.883 20.669 21.422v21.556c0-5.79 2.34-11.02 6.14-14.81 3.838-3.848 9.154-6.199 15.032-6.139 11.572.119 20.728 9.907 20.728 21.479z" fill="#ffdfcf"/></g></g></g><path d="m56.383 417.933v-104.27l31.97-51.72v-36.98l7.62-116.641c.208-3.191 1.159-6.181 2.623-8.812-3.472-2.554-7.763-4.065-12.403-4.065h-1.32c-11.037 0-20.18 8.565-20.9 19.579l-7.62 116.641v36.98l-31.97 51.72v104.27 62.053c0 5.875 4.762 10.637 10.637 10.637h21.399z" fill="#ffcebf"/><g id="XMLID_585_"><g><path d="m92.366 324.765c-2.643-2.008-4.163-5.162-4.163-8.481v-8.397l22.718-33.63c4.999-7.394 7.642-16.012 7.642-24.922 0-13.778-6.223-26.558-17.064-35.056-7.8-6.119-17.552-9.489-27.461-9.489-5.568 0-11.032 1.054-16.127 3.034l-1.557 23.841v36.98l-31.97 51.72v89.743h70.88c14.467 0 26.431-11.617 26.46-26.084 0-.094 0-.188 0-.283" fill="#ffcebf"/><path d="m101.72 383.937c0 22.478-18.222 40.7-40.7 40.7h-36.64v-.61c0-1.17-.39-2.31-1.1-3.23l-11.35-14.76c-7.74-10.061-11.93-22.391-11.93-35.081v-56.5c0-12.88 4.78-25.29 13.43-34.82l42.42-46.79c8.64-9.53 23.18-10.77 33.3-2.83 6.15 4.82 9.41 12.02 9.41 19.32 0 4.74-1.37 9.52-4.21 13.72l-26.15 38.71v26.63c0 1.96.91 3.8 2.47 4.99l9.64 7.34c13.49 10.27 21.41 26.25 21.41 43.211z" fill="#ffdfcf"/><path d="m55.298 420.795-11.35-14.76c-7.74-10.06-11.93-22.39-11.93-35.08v-56.5c0-12.88 4.78-25.29 13.43-34.82l42.42-46.79c.685-.756 1.427-1.439 2.182-2.089-.291-.25-.592-.502-.897-.741-10.12-7.94-24.66-6.7-33.3 2.83l-42.42 46.79c-8.65 9.53-13.43 21.94-13.43 34.82v56.5c0 12.69 4.19 25.02 11.93 35.08l11.35 14.76c.71.92 1.1 2.06 1.1 3.23v.61h32.003l.012-.61c0-1.17-.39-2.31-1.1-3.23z" fill="#ffcebf"/></g></g><g id="XMLID_591_"><g><path d="m391.892 116.395c0-11.57 9.38-20.95 20.95-20.95h1.32c11.037 0 20.18 8.565 20.9 19.579l7.62 116.641 27.59 133.74 4.38 58.62v58.74c0 8.041-6.519 14.56-14.56 14.56h-149.45c-8.041 0-14.56-6.519-14.56-14.56v-51.15l-12.48-16.32c-11.29-14.76-17.41-32.82-17.41-51.4v-20.09-225.7l11.87-5.4c2.75-1.32 5.82-2.09 9.08-2.09 11.57 0 20.95 9.38 20.95 20.95v-11.94c0-11.572 9.157-21.36 20.728-21.479 5.878-.061 11.193 2.29 15.032 6.139 3.8 3.79 6.14 9.02 6.14 14.81v-21.555c0-11.54 9.131-21.271 20.669-21.422 5.902-.077 11.24 2.287 15.091 6.138 3.8 3.79 6.14 9.03 6.14 14.81z" fill="#ffdfcf"/></g></g><g id="XMLID_589_"><g><path d="m405.258 324.812c-18.344 13.966-29.295 36.067-29.295 59.123 0 .094 0 .188.001.283.072 14.376 11.987 25.891 26.363 25.891h71.285l-3.34-44.703-27.59-133.74-1.52-23.269c-5.483-2.345-11.435-3.606-17.513-3.606-9.909 0-19.661 3.37-27.452 9.483-10.851 8.504-17.073 21.283-17.073 35.062 0 8.91 2.643 17.528 7.637 24.915l22.723 33.637v13.708z" fill="#ffcebf"/><path d="m497.683 314.455v56.5c0 12.69-4.19 25.02-11.93 35.08l-11.35 14.76c-.01.01-.02.02-.02.03l-42.513-.531c-19.903-.249-35.907-16.454-35.907-36.359 0-16.96 7.92-32.94 21.41-43.21l9.64-7.34c1.56-1.19 2.47-3.03 2.47-4.99v-26.63l-26.15-38.71c-2.84-4.2-4.21-8.98-4.21-13.72 0-7.3 3.26-14.5 9.41-19.32 10.12-7.94 24.66-6.7 33.3 2.83l42.42 46.79c8.65 9.53 13.43 21.94 13.43 34.82z" fill="#ffdfcf"/></g></g><g><path d="m325.773 482.765v-46.145c0-3.246-1.068-6.402-3.04-8.981l-9.44-12.344c-11.29-14.76-17.41-32.82-17.41-51.4v-20.09-223.493c0-1.464.211-2.92.628-4.323l.813-2.738c-3.014-1.679-6.487-2.636-10.181-2.636-3.26 0-6.33.77-9.08 2.09l-11.87 5.4v225.7 20.09c0 18.58 6.12 36.64 17.41 51.4l12.48 16.32v51.15c0 8.041 6.519 14.56 14.56 14.56h29.691c-8.042 0-14.561-6.518-14.561-14.56z" fill="#ffcebf"/></g><path d="m276.713 304.192v-261.257h-56.74v261.257c0 3.102 2.515 5.617 5.617 5.617h45.507c3.101 0 5.616-2.515 5.616-5.617z" fill="#c8effe"/><path d="m274.336 65.935h-51.986c-7.489 0-13.559-6.071-13.559-13.559v-32.263h79.104v32.263c0 7.488-6.071 13.559-13.559 13.559z" fill="#f3eae6"/><path d="m322.316 4.823v8.911c0 11.807-9.572 21.379-21.379 21.379h-105.189c-11.807 0-21.379-9.572-21.379-21.379v-8.911c0-2.466 1.999-4.465 4.465-4.465h139.016c2.467-.001 4.466 1.999 4.466 4.465z" fill="#f9f3f1"/><g><path d="m248.343 186.223c-4.143 0-7.5-3.357-7.5-7.5v-12.768c0-4.143 3.357-7.5 7.5-7.5s7.5 3.357 7.5 7.5v12.768c0 4.143-3.358 7.5-7.5 7.5z" fill="#99e6fc"/></g><g><path d="m248.343 283.946c-4.143 0-7.5-3.357-7.5-7.5v-60.893c0-4.143 3.357-7.5 7.5-7.5s7.5 3.357 7.5 7.5v60.893c0 4.142-3.358 7.5-7.5 7.5z" fill="#99e6fc"/></g><g fill="#c8effe"><path d="m346.141 377.797c-8.064 6.641-19.985 5.486-26.625-2.578-4.907-5.959-5.016-22.341-4.739-30.487.087-2.566 2.396-4.467 4.931-4.06 8.048 1.291 24.104 4.541 29.011 10.5 6.64 8.064 5.486 19.985-2.578 26.625z"/><path d="m364.673 305.253c-2.617 7.46-10.786 11.386-18.246 8.769-5.096-1.788-11.029-10.947-14.277-16.573-1.376-2.383-.311-5.419 2.252-6.42 6.051-2.363 16.406-5.809 21.502-4.021 7.46 2.616 11.386 10.785 8.769 18.245z"/><path d="m150.545 377.797c8.064 6.641 19.985 5.486 26.625-2.578 4.907-5.959 5.016-22.341 4.739-30.487-.087-2.566-2.396-4.467-4.931-4.06-8.048 1.291-24.104 4.541-29.011 10.5-6.641 8.064-5.486 19.985 2.578 26.625z"/><path d="m132.012 305.253c2.617 7.46 10.786 11.386 18.246 8.769 5.096-1.788 11.029-10.947 14.277-16.573 1.376-2.383.311-5.419-2.252-6.42-6.051-2.363-16.406-5.809-21.502-4.021-7.46 2.616-11.386 10.785-8.769 18.245z"/></g></g><g fill="#ffcebf"><g><path d="m333.717 190.194.215-91.476c-1.636-.391-3.35-.59-5.112-.572-11.374.117-20.395 9.581-20.699 20.894l-.029 5.607-.399 97.649c14.369-.115 25.98-14.438 26.024-32.102z"/><path d="m174.621 190.046.214-91.322c-1.484-.363-3.026-.561-4.62-.577-5.866-.06-11.151 2.301-15.006 6.116-3.533 3.496-5.786 8.225-6.096 13.451-.027.459-.07.916-.07 1.382l-.447 103.052c14.369-.116 25.981-14.439 26.025-32.102z"/><path d="m216.63 190.128.189-78.927c-1.577-.381-3.227-.586-4.926-.586-5.79 0-11.02 2.35-14.81 6.14-3.591 3.582-5.852 8.465-6.093 13.869l-.385 91.606c14.369-.115 25.981-14.438 26.025-32.102z"/><path d="m375.64 190.408.214-105.59 1.005-7.859c-1.958-.576-4.045-.87-6.198-.842-11.538.151-20.669 9.883-20.669 21.423v14.62l-.376 110.351c14.369-.116 25.98-14.439 26.024-32.103z"/></g><g><path d="m417.492 179.459.212-83.715c-1.146-.195-2.342-.299-3.542-.299h-1.32c-11.434 0-20.712 9.165-20.93 20.547l-.445 95.57c14.369-.116 25.981-14.439 26.025-32.103z"/><path d="m132.844 179.448.214-94.59 1.005-7.859c-1.958-.576-4.045-.87-6.198-.842-11.539.151-20.669 9.883-20.669 21.423l-.376 113.97c14.369-.116 25.98-14.438 26.024-32.102z"/></g></g></g></svg>