<svg id="Capa_1" enable-background="new 0 0 496.384 496.384" height="512" viewBox="0 0 496.384 496.384" width="512" xmlns="http://www.w3.org/2000/svg"><g><path d="m371.419 242.813h-26.177v-57.406h33.464c7.841 0 14.197 6.356 14.197 14.197v21.726c-.001 11.865-9.619 21.483-21.484 21.483z" fill="#ffcebf"/><path d="m361.241 146.014v-62.548c0-32.407-26.271-58.678-58.678-58.678h-99.872l-10.157-18.969c-3.666-6.847-13.075-7.854-18.108-1.939-25.48 29.95-39.472 67.989-39.472 107.312v34.822l22.985 44.882h184.513z" fill="#baafb9"/><path d="m178.196 111.192c0-30.714 8.537-60.646 24.417-86.551l-10.079-18.822c-3.666-6.847-13.075-7.854-18.108-1.938-25.48 29.95-39.472 67.989-39.472 107.312v34.822l22.985 44.882h43.243l-22.985-44.882v-34.823z" fill="#aa9ea9"/><path d="m124.776 242.813h25.177v-57.406h-32.464c-7.841 0-14.197 6.356-14.197 14.197v21.726c.001 11.865 9.619 21.483 21.484 21.483z" fill="#ffb09e"/><path d="m287.991 378.665 98.57 50.415c18 9.206 29.325 27.72 29.325 47.937v12.234c0 3.94-3.194 7.134-7.134 7.134h-321.119c-3.94 0-7.134-3.194-7.134-7.134v-12.234c0-20.217 11.325-38.731 29.325-47.937l98.57-50.415 19.704-9.469h41.126z" fill="#c8effe"/><path d="m235.553 369.196h-7.454l-19.704 9.469-98.57 50.415c-18 9.207-29.325 27.72-29.325 47.937v12.234c0 3.94 3.194 7.134 7.134 7.134h36.03c.346-19.849 11.589-37.934 29.309-46.997l82.581-42.237v-37.955z" fill="#99e6fc"/><g id="XMLID_653_"><g><path d="m287.988 378.665c0 20.76-16.83 37.59-37.59 37.59h-4.41c-20.76 0-37.59-16.83-37.59-37.59v-59.62h79.59z" fill="#ffdfcf"/></g></g><path d="m361.238 180.613v-34.597c-75.38-29.11-150.81-29.07-226.28 0v37.57l2.121 6.063v17.681l-2.121.314v40.722c0 22.97 5.92 44.71 16.4 63.67l20.61 27.88c9.82 10.16 21.29 18.78 34.02 25.39s26.73 11.23 41.61 13.41l.84-.12c29.93-4.35 56.28-18.55 75.98-39.03l18.98-25.15c11.38-19.54 17.84-42.2 17.84-66.19v-40.582l-1.802.067v-19.923z" fill="#ffdfcf"/><g><path d="m353.713 232.148c-3.407-10.261-11.71-17.98-22.226-20.654-27.578-6.979-55.668-10.517-83.49-10.517-16.298 0-32.76 1.218-49.229 3.63-10.855 1.589-20.569-6.901-20.569-17.872v-54.191c-14.413 3.434-28.827 7.919-43.243 13.471v37.57l2.121 6.063v17.681l-2.121.314v40.722c0 22.97 5.92 44.71 16.4 63.67l20.61 27.88c9.82 10.16 21.29 18.78 34.02 25.39s26.73 11.23 41.61 13.41l.84-.12c17.826-2.591 34.379-8.694 49.019-17.523.016-.003.032-.005.048-.008 9.92-5.986 18.959-13.23 26.913-21.499l18.98-25.15c9.309-15.984 15.32-34.056 17.201-53.236-1.377-9.644-3.67-19.329-6.884-29.031z" fill="#ffcebf"/><path d="m361.238 180.613-6.225 10.312-24.49 32.73-37.407 44.189c-2.676 3.161-2.283 7.894.879 10.57 1.409 1.192 3.13 1.775 4.842 1.775 2.129 0 4.245-.902 5.729-2.654l37.552-44.361c.097-.114.19-.232.28-.353l18.84-25.179z" fill="#faf7f7"/><path d="m165.735 223.738-24.776-33.111c-.098-.131-.199-.258-.305-.382l-5.696-6.66v24.058l18.84 25.179c.048.064.098.129.148.192l48.591 60.741c1.481 1.852 3.661 2.814 5.861 2.814 1.643 0 3.297-.537 4.68-1.644 3.234-2.587 3.759-7.307 1.171-10.542z" fill="#faf7f7"/><g id="XMLID_595_"><g><path d="m339.478 236.876c10.17 30.7 10.38 61.06-.06 91.08-1.74 5.03-5.83 8.93-10.93 10.44-53.9 16.04-107.8 16.05-161.7.03-5.15-1.53-9.24-5.48-10.97-10.55-10.35-30.35-10.4-60.7-.15-91.04 1.8-5.34 6.23-9.39 11.69-10.75 53.7-13.41 107.18-13.53 160.45-.05 5.47 1.389 9.89 5.48 11.67 10.84z" fill="#b0e7c9"/></g></g><g fill="#91deb6"><path d="m199.561 337.85c-10.35-36.551-10.4-73.101-.15-109.64 1.051-3.753 3.018-6.983 5.543-9.343-12.515 1.678-25.057 4.087-37.596 7.218-5.46 1.36-9.89 5.41-11.69 10.75-10.25 30.34-10.2 60.69.15 91.04 1.73 5.07 5.82 9.02 10.97 10.55 12.735 3.785 25.492 6.679 38.228 8.674-2.48-2.358-4.411-5.562-5.455-9.249z"/><path d="m343.382 302.612c-52.746 4.48-106.108 5.229-159.068 2.273v15.015c21.052 1.163 42.164 1.76 63.281 1.76 31.72 0 63.449-1.32 94.958-3.936 1.38-5.171 2.452-10.352 3.211-15.543z"/><path d="m342.751 248.097c-51.196-3.649-103.242-4.311-155.218-1.989v15.004c52.334-2.363 104.741-1.667 156.258 2.091l1.987.213c-.727-5.097-1.735-10.203-3.027-15.319z"/></g></g><g fill="#6ed5a1"><path d="m152.327 248.135c-1.295 5.109-2.293 10.219-3.004 15.329l1.989-.227c13.88-1.003 27.782-1.777 41.686-2.348.566-5.032 1.323-10.064 2.279-15.095-14.325.558-28.648 1.33-42.95 2.341z"/><path d="m193.078 305.337c-13.804-.663-27.587-1.563-41.326-2.73l-2.217-.298c.773 5.141 1.849 10.283 3.214 15.424 14.187 1.177 28.415 2.075 42.665 2.724-.975-5.039-1.751-10.08-2.336-15.12z"/></g></g></svg>