<svg id="Capa_1" enable-background="new 0 0 496.384 496.384" height="512" viewBox="0 0 496.384 496.384" width="512" xmlns="http://www.w3.org/2000/svg"><g><path d="m393.811 146.271c0-80.783-65.488-146.271-146.271-146.271-80.783 0-146.271 65.488-146.271 146.271v331.474h292.541v-331.474z" fill="#baafb9"/><g><path d="m287.991 378.665 98.57 50.415c18 9.206 29.325 27.72 29.325 47.937v10.363c0 4.973-4.032 9.005-9.005 9.005h-317.377c-4.973 0-9.005-4.032-9.005-9.005v-10.363c0-20.217 11.325-38.731 29.325-47.937l98.57-50.415 20.732-9.356h40.235z" fill="#c8effe"/><path d="m259.417 369.309h-30.292l-20.732 9.356-98.57 50.415c-18 9.207-29.325 27.72-29.325 47.937v10.363c0 4.973 4.031 9.004 9.005 9.004h45.454v-2.667c0-20.217 11.326-38.731 29.325-47.937l95.135-48.658z" fill="#99e6fc"/><path d="m287.991 378.665c0 20.76-16.83 37.59-37.59 37.59h-4.417c-20.76 0-37.59-16.83-37.59-37.59v-57.666h79.597z" fill="#ffdfcf"/></g><g><path d="m357.576 190.702 3.661-8.581v-30.347c0-3.497-2.193-6.615-5.475-7.821-15.877-5.834-31.761-10.36-47.645-13.606-3.16-.65-5.78-2.83-7.02-5.81l-8.27-19.83c-1.8-4.32-7.91-4.4-9.81-.11l-6.42 14.45c-1.67 3.74-5.49 6.04-9.57 5.78-42.181-2.712-84.38 3.651-126.58 19.126-3.289 1.206-5.49 4.323-5.49 7.826v96.589c0 22.97 5.92 44.71 16.4 63.67l20.61 27.88c19.64 20.33 45.86 34.44 75.63 38.8l.84-.12c29.93-4.35 56.28-18.55 75.98-39.03l18.98-25.15c11.38-19.54 17.84-42.2 17.84-66.19v-40.582l-2.596-.746z" fill="#ffdfcf"/><path d="m353.746 232.688c-3.408-10.261-11.711-17.979-22.226-20.653-27.578-6.979-55.668-10.517-83.49-10.517-15.623 0-31.398 1.123-47.184 3.341-12.356 1.736-23.402-7.818-23.402-20.295v-49.395c0-.874.137-1.723.394-2.525-12.469 2.983-24.938 6.739-37.407 11.313-3.283 1.204-5.474 4.323-5.474 7.82v96.589c0 22.97 5.92 44.71 16.4 63.67l20.61 27.88c19.64 20.33 45.86 34.44 75.63 38.8l.84-.12c17.301-2.515 33.414-8.32 47.73-16.728.013-.002.559-.335.559-.335 10.232-6.076 19.525-13.478 27.691-21.967l18.98-25.15c9.279-15.933 15.284-33.941 17.186-53.052-1.384-9.528-3.662-19.093-6.837-28.676z" fill="#ffcebf"/><g fill="#faf7f7"><path d="m361.238 182.12-6.064 8.59-24.675 32.977-38.186 46.017c-2.646 3.188-2.205 7.916.982 10.561 1.399 1.162 3.098 1.729 4.785 1.729 2.154 0 4.292-.923 5.775-2.711l38.308-46.164c.047-.056.085-.116.129-.173.033-.043.071-.08.104-.123l18.84-25.179v-25.524z"/><path d="m208.398 295.111c1.672 0 3.355-.557 4.75-1.699 3.204-2.626 3.672-7.352 1.046-10.556l-48.491-59.16-24.745-33.07c-.032-.044-.065-.087-.099-.13l-5.903-7.542v24.688l18.84 25.179c.028.037.061.069.089.105.04.052.074.106.116.156l48.591 59.282c1.484 1.811 3.636 2.747 5.806 2.747z"/></g></g><path d="m339.511 237.416c10.17 30.7 10.38 61.06-.06 91.08-1.74 5.03-5.83 8.93-10.93 10.44-53.9 16.04-107.8 16.05-161.7.03-5.15-1.53-9.24-5.48-10.97-10.55-10.35-30.35-10.4-60.7-.15-91.04 1.8-5.34 6.23-9.39 11.69-10.75 53.7-13.41 107.18-13.53 160.45-.05 5.47 1.39 9.89 5.48 11.67 10.84z" fill="#b0e7c9"/><g fill="#91deb6"><path d="m199.594 338.391c-10.35-36.551-10.4-73.101-.15-109.64 1.051-3.753 3.012-6.982 5.537-9.342-12.515 1.678-25.051 4.086-37.59 7.217-5.46 1.36-9.89 5.41-11.69 10.75-10.25 30.34-10.2 60.69.15 91.04 1.73 5.07 5.82 9.02 10.97 10.55 12.735 3.785 25.489 6.679 38.224 8.674-2.479-2.358-4.406-5.562-5.451-9.249z"/><path d="m343.415 303.153c-52.746 4.48-106.108 5.229-159.068 2.273v15.014c21.052 1.163 42.164 1.76 63.281 1.76 31.72 0 63.449-1.32 94.958-3.936 1.38-5.171 2.452-10.352 3.211-15.543z"/><path d="m342.784 248.638c-51.196-3.649-103.242-4.311-155.218-1.989v15.004c52.334-2.363 104.741-1.667 156.258 2.091l1.987.213c-.727-5.097-1.735-10.204-3.027-15.319z"/></g><path d="m152.36 248.676c-1.295 5.109-2.293 10.219-3.004 15.329l1.989-.227c13.88-1.003 27.782-1.777 41.686-2.348.566-5.032 1.323-10.064 2.279-15.095-14.325.558-28.648 1.33-42.95 2.341z" fill="#6ed5a1"/><path d="m193.111 305.878c-13.804-.663-27.587-1.563-41.326-2.73l-2.217-.298c.773 5.141 1.849 10.283 3.214 15.424 14.187 1.177 28.415 2.075 42.665 2.724-.975-5.039-1.751-10.08-2.336-15.12z" fill="#6ed5a1"/></g></svg>