<svg id="Capa_1" enable-background="new 0 0 497.54 497.54" height="512" viewBox="0 0 497.54 497.54" width="512" xmlns="http://www.w3.org/2000/svg"><g><g id="XMLID_661_"><g><path d="m412.68 431.02v58.69c0 4.324-3.505 7.83-7.83 7.83h-312.161c-4.324 0-7.83-3.505-7.83-7.83v-58.69c0-14.86 5.31-29.23 14.97-40.51l39.67-46.33 72.07-67.86h88.34l58.13 67.86 39.67 46.33c9.661 11.28 14.971 25.65 14.971 40.51z" fill="#f9f3f1"/></g></g><path d="m240.77 276.32h15v221.22h-15z" fill="#f3eae6"/><path d="m358.04 344.18-44.902-52.417-13.228-15.443h-31.461-56.879l-72.07 67.86-39.67 46.33c-9.66 11.28-14.97 25.65-14.97 40.51v58.69c0 4.324 3.505 7.83 7.83 7.83h46.81v-51.077c0-14.86 5.31-29.23 14.97-40.51 7.391-8.631 19.561-11.402 29.957-6.814 19.545 8.625 41.142 13.421 63.843 13.421 48.231 0 91.502-21.623 120.646-55.678z" fill="#f3eae6"/><path d="m248.27 412.559c2.515 0 5.013-.073 7.5-.189v-136.05h-15v136.054c2.486.117 4.985.185 7.5.185z" fill="#e1d3ce"/><path d="m248.27 392.559c-76.643 0-138.774-62.131-138.774-138.774v-115.011c0-76.643 62.131-138.774 138.774-138.774 76.643 0 138.774 62.131 138.774 138.774v115.012c0 76.642-62.131 138.773-138.774 138.773z" fill="#faf7f7"/><path d="m174.826 253.785v-115.011c0-65.39 45.251-120.213 106.13-134.902-10.477-2.529-21.433-3.872-32.686-3.872-76.643 0-138.774 62.131-138.774 138.774v115.012c0 76.643 62.131 138.774 138.774 138.774 11.253 0 22.22-1.346 32.696-3.874-60.878-14.69-106.14-69.51-106.14-134.901z" fill="#f9f3f1"/><g><path d="m190.507 166.645-51.007 18.185v69.04c0 60.03 48.11 109.63 108.13 109.97 60.27.35 109.41-48.58 109.41-108.77v-70.24l-21.554-16.926z" fill="#ffdfcf"/><path d="m304.703 91.031h-112.866c-5.646 0-10.224-4.577-10.224-10.224v-15.501c0-5.646 4.577-10.224 10.224-10.224h112.865c5.646 0 10.224 4.577 10.224 10.224v15.501c0 5.647-4.577 10.224-10.223 10.224z" fill="#f3eae6"/><g id="XMLID_657_"><g><path d="m357.04 205.359-4.991 4.398-40.486 36.151-38.734 32.617c-3.168 2.669-3.574 7.399-.906 10.568 1.484 1.762 3.605 2.669 5.741 2.669 1.705 0 3.42-.578 4.827-1.763l38.817-32.688c.056-.047.11-.095.164-.143l35.568-31.76z" fill="#fff8bf"/><path d="m174.826 253.785v-68.955l-5.287-7.25h-19.835l-10.204 7.25v69.04c0 52.686 37.06 97.333 86.704 107.7-31.343-25.441-51.378-64.269-51.378-107.785z" fill="#ffcebf"/><path d="m231.582 282.482-45.636-37.601-40.327-36.01-6.12-5.992v20.637l36.568 32.652c.074.065.149.131.226.193l45.75 37.695c1.397 1.151 3.086 1.712 4.766 1.712 2.163 0 4.31-.931 5.792-2.73 2.634-3.195 2.178-7.922-1.019-10.556z" fill="#fff8bf"/><path d="m174.826 253.785v-18.834l-29.206-26.079-6.12-5.992v20.637l35.344 31.56c-.004-.431-.018-.859-.018-1.292z" fill="#fef48b"/><path d="m316.48 251.57-31.51-11.75-12.11-8.89c-14.63-10.75-34.55-10.75-49.18 0l-12.11 8.89-31.51 11.75c-7.6 2.84-12.65 10.11-12.65 18.23v21.08c0 3.46.24 6.87.7 10.23h.02 160.28.02c.46-3.36.7-6.77.7-10.23v-21.08c0-8.12-5.05-15.39-12.65-18.23z" fill="#efe2dd"/><path d="m174.835 254.501c-4.602 3.625-7.425 9.227-7.425 15.299v21.08c0 3.46.24 6.87.7 10.23h.02 14.987c-5.282-14.554-8.198-30.249-8.282-46.609z" fill="#e1d3ce"/><path d="m328.41 301.11h.02c-3.76 27.1-22.26 50.29-48.53 59.69-10.23 3.66-20.93 5.49-31.63 5.49s-21.4-1.83-31.63-5.49c-26.27-9.4-44.77-32.59-48.53-59.69h.02c1.64-5.91 6-10.82 11.93-13.03l31.51-11.76 12.11-8.89c14.63-10.75 34.55-10.75 49.18 0l12.11 8.89 31.51 11.76c5.93 2.21 10.29 7.12 11.93 13.03z" fill="#f3eae6"/><path d="m179.196 288.432c-5.487 2.35-9.507 7.06-11.067 12.678h-.02c2.92 21.045 14.732 39.727 32.165 51.429 8.159 5.195 20.545 11.055 29.628 11.94-22.724-18.446-43.196-46.842-50.706-76.047z" fill="#efe2dd"/></g></g><path d="m259.128 329.09h-21.717c-5.853 0-10.599-4.745-10.599-10.599v-9.215c0-5.853 4.745-10.599 10.599-10.599h21.717c5.853 0 10.599 4.745 10.599 10.599v9.215c0 5.854-4.745 10.599-10.599 10.599z" fill="#efe2dd"/><g id="XMLID_658_"><g><path d="m357.04 167.76v17.07h-216.54-1v-17.03c0-4.06 2.09-7.85 5.55-9.99 69.03-42.6 137.86-42.85 206.49-.01 3.43 2.14 5.5 5.92 5.5 9.96z" fill="#d7d0d6"/></g></g><path d="m145.05 157.81c-3.46 2.14-5.55 5.93-5.55 9.99v17.03h1 34.326v-42.767c-9.921 4.373-19.847 9.619-29.776 15.747z" fill="#c9bfc8"/></g></g></svg>