<svg id="Capa_1" enable-background="new 0 0 496.74 496.74" height="512" viewBox="0 0 496.74 496.74" width="512" xmlns="http://www.w3.org/2000/svg"><g><g><path d="m347.584 293.881c6.78 0 13.27-2.69 18.06-7.48l15.99-15.99h33.758c4.474 0 8.102-3.627 8.102-8.102v-115.287c0-4.474-3.627-8.102-8.102-8.102h-248.408v152.903z" fill="#ffdfcf"/></g><path d="m136.488 124.982h-44.218c-10.506 0-19.023 8.517-19.023 19.023 0 10.506 8.517 19.023 19.023 19.023h60.452 77.052v-36.451z" fill="#ffdfcf"/><path d="m190.958 145.743v-19.829l-41.773-.715c-1.01 5.078-.89 10.353.391 15.442.652 2.59-1.291 5.102-3.962 5.102h-53.344c-7.391 0-13.793-4.241-16.943-10.397-1.328 2.595-2.081 5.544-2.081 8.66 0 10.506 8.517 19.023 19.023 19.023h60.453 77.052v-17.286z" fill="#ffcebf"/><path d="m150.954 93.567c0 10.446-4.102 20.474-11.422 27.925l-15.472 15.75c-3.19 3.247-8.625.204-7.524-4.213l4.982-19.976v-101.547h29.436z" fill="#f9f3f1"/><path d="m93.449 38.187h49.119v-33.11h-49.119c-6.622 0-11.99 5.368-11.99 11.99v9.129c0 6.623 5.368 11.991 11.99 11.991z" fill="#e1d3ce"/><path d="m286.824 225.287 9.141 12.122c8.69 11.523 13.39 25.562 13.39 39.995v184.026c0 19.502-15.809 35.311-35.311 35.311h-116.043c-19.502 0-35.311-15.809-35.311-35.311v-139.168c0-14.876 5.909-29.142 16.428-39.661l13.604-13.604 47.931-96.15h52.765z" fill="#c8effe"/><path d="m167.13 461.429v-139.167c0-14.876 5.909-29.142 16.428-39.661l13.604-13.604 47.931-96.15h-44.44l-47.93 96.15-13.605 13.603c-10.519 10.519-16.428 24.785-16.428 39.661v139.167c0 19.502 15.81 35.312 35.311 35.312h44.44c-19.501 0-35.311-15.809-35.311-35.311z" fill="#99e6fc"/><g><path d="m182.264 272.545h-31.644c-9.754 0-17.661-7.907-17.661-17.661v-2.366c0-9.754 7.907-17.661 17.661-17.661h31.644c9.754 0 17.661 7.907 17.661 17.661v2.366c0 9.754-7.907 17.661-17.661 17.661z" fill="#ffdfcf"/><g><path d="m266.129 85.271v-22.033c0-1.54.998-2.903 2.467-3.368l48.783-15.424c4.652-1.471 6.273-7.228 3.071-10.91l-12.136-13.956c-10.815-12.438-26.491-19.58-42.974-19.58h-141.822c-4.943 0-8.949 4.007-8.949 8.949v25.231c0 4.943 4.007 8.949 8.949 8.949h41.187c1.068 0 2.046.594 2.539 1.541l26.132 50.196-2.146 92.723 68.177.945z" fill="#f9f3f1"/></g><g id="XMLID_614_"><g><path d="m217.294 65.271c-.588 0-1.175.01-1.76.029-5.444.18-10.539-2.656-13.054-7.487l-12.873-24.728c-2.934-5.635-8.759-9.17-15.112-9.17h-32.587c-4.943 0-8.949-4.007-8.949-8.949v-14.966h-9.441c-4.943 0-8.949 4.007-8.949 8.949v25.23c0 4.943 4.007 8.949 8.949 8.949h41.187c1.067 0 2.046.594 2.539 1.541l26.132 50.196-1.872 78.627c5.167-1.784 15.46-7.891 19.581-11.666l3.028-2.775c1.724-1.58 4.248-1.923 6.332-.86l7.411 3.78c1.876.957 3.058 2.885 3.058 4.992v3.388c0 5.724 1.004 12.237 3.03 17.819h25.411l6.775-102.899v-20z" fill="#f3eae6"/><path d="m299.304 95.741 39.33 43.18-.61 61.49c-.08 7.86-3.32 14.95-8.5 20.09-5.18 5.12-12.31 8.29-20.17 8.29 0 0-58.44-26.17-58.44-58.44v-12.791c0-3.853-2.161-7.381-5.593-9.132l-31.617-16.127-16.13 14.78c-3.93 3.6-8.83 5.34-13.7 5.34-6.5 0-12.92-3.09-16.89-8.99-5.52-8.21-4.33-19.19 2.82-26.03l23.57-22.54c6.44-6.15 15.01-9.59 23.92-9.59h58.31c9.02 0 17.62 3.8 23.7 10.47z" fill="#ffdfcf"/></g></g></g><path d="m182.264 234.857h-31.644c-9.754 0-17.661-7.907-17.661-17.661v-2.366c0-9.754 7.907-17.661 17.661-17.661h31.644c9.754 0 17.661 7.907 17.661 17.661v2.366c0 9.754-7.907 17.661-17.661 17.661z" fill="#ffdfcf"/><path d="m182.806 219.382h-31.644c-7.692 0-14.226-4.943-16.649-11.806-.995 2.21-1.554 4.672-1.554 7.254v2.366c0 9.754 7.907 17.661 17.661 17.661h31.644c9.754 0 17.661-7.907 17.661-17.661v-2.366c0-2.062-.354-4.043-1.004-5.883-2.765 6.142-8.943 10.435-16.115 10.435z" fill="#ffcebf"/><path d="m182.806 257.07h-31.644c-7.692 0-14.218-4.926-16.64-11.789-.995 2.21-1.563 4.656-1.563 7.237v2.366c0 9.754 7.907 17.661 17.661 17.661h31.644c9.754 0 17.661-7.907 17.661-17.661v-2.366c0-2.062-.356-4.048-1.005-5.887-2.765 6.141-8.942 10.439-16.114 10.439z" fill="#ffcebf"/><path d="m182.264 197.169h-31.644c-9.754 0-17.661-7.907-17.661-17.661v-2.366c0-9.754 7.907-17.661 17.661-17.661h31.644c9.754 0 17.661 7.907 17.661 17.661v2.366c0 9.753-7.907 17.661-17.661 17.661z" fill="#ffdfcf"/><path d="m182.806 181.694h-31.644c-7.692 0-14.23-4.934-16.653-11.797-.995 2.211-1.55 4.663-1.55 7.245v2.366c0 9.754 7.907 17.661 17.661 17.661h31.644c9.754 0 17.661-7.907 17.661-17.661v-2.366c0-2.062-.355-4.047-1.005-5.887-2.765 6.141-8.942 10.439-16.114 10.439z" fill="#ffcebf"/></g></svg>