<svg id="Capa_1" enable-background="new 0 0 489.933 489.933" height="512" viewBox="0 0 489.933 489.933" width="512" xmlns="http://www.w3.org/2000/svg"><g><g><path d="m201.636 163.221c.71-4.87 3.01-9.21 6.37-12.47 4.042-3.939 9.614-6.315 15.731-6.163 11.892.294 21.229 10.361 21.229 22.257v95.916 65.78 24.94c0 14.52-4.91 28.63-13.94 40.01l-26.28 33.16v47.226c0 5.641-4.573 10.214-10.214 10.214h-114.775c-6.101 0-10.842-5.314-10.147-11.376l7.337-64.064 1.79-26.14-47.19-51.68 15.18-73.35 32.45-129.56c3.03-8.63 11.16-14.35 20.22-14.35.42 0 .85.01 1.28.04 12.85.77 22.13 12.61 19.81 25.27l6.13-32.84c2.31-11.79 13.79-19.43 25.56-17.01 10.14 2.09 17.22 11.03 17.22 21.12 0 .95-.06 1.91-.19 2.88l-2.39 23.59.18.02c.65-1.34 1.46-2.59 2.4-3.72 3.7-4.45 9.42-7.08 15.59-6.61 9.62.74 17.03 8.76 17.03 18.37 0 .17 0 .35-.01.53l-.371 18.01c-.12.83-.2 1.67-.22 2.53z" fill="#ffdfcf"/></g><g><path d="m96.768 475.081 7.337-64.064 1.79-26.14-47.19-51.68 15.18-73.35 32.45-129.56c1.547-4.407 4.439-8.05 8.091-10.565-3.547-3.492-8.333-5.787-13.75-6.112-.43-.03-.86-.04-1.28-.04-9.06 0-17.19 5.72-20.22 14.35l-32.45 129.56-15.18 73.35 47.19 51.68-1.79 26.14-7.337 64.064c-.694 6.062 4.046 11.375 10.147 11.375h20.641c-2.543-2.116-4.039-5.426-3.629-9.008z" fill="#ffcebf"/></g><path d="m154.692 100.611c.907-3.286 2.574-6.216 4.749-8.631-2.162-1.383-4.61-2.401-7.264-2.949-11.77-2.42-23.25 5.22-25.56 17.01l-5.961 31.936-18.354 125.309c15.621.473 29.218-10.599 31.919-25.992z" fill="#ffcebf"/><g><g id="XMLID_664_"><g><path d="m369.447 138.881c-2.32-12.66 6.96-24.5 19.81-25.27.43-.03.86-.04 1.28-.04 9.06 0 17.19 5.72 20.22 14.35l32.45 129.56 11.76 60.82-42.94 66.03.96 24.32 7.74 67.586c.479 4.185-2.794 7.854-7.006 7.854h-121.483c-3.895 0-7.052-3.157-7.052-7.052v-50.388l-26.28-33.16c-9.03-11.38-13.94-25.49-13.94-40.01v-187.12c0-6.02 2.44-11.46 6.38-15.4s9.38-6.38 15.4-6.38c10.93 0 20.02 8.07 21.55 18.64 0 0 .12.83 0 0l-.37-18.01c-.01-.18-.01-.36-.01-.53 0-9.61 7.41-17.63 17.03-18.37 7.38-.56 14.12 3.31 17.52 9.43l.55-.06-2.29-22.65c-.13-.97-.19-1.93-.19-2.88 0-10.09 7.08-19.03 17.22-21.12 11.77-2.42 23.25 5.22 25.56 17.01z" fill="#ffdfcf"/></g></g></g><g fill="#ffcebf"><path d="m317.294 164.034.22 2.53c-.02-.86-.1-1.7-.22-2.53z"/><path d="m314.184 477.852v-43.337c0-4.566-1.543-8.998-4.379-12.577l-21.901-27.634c-9.03-11.38-13.94-25.49-13.94-40.01v-187.12c0-6.02 2.44-11.46 6.38-15.4.429-.429.884-.86 1.347-1.252-3.905-3.691-9.163-5.941-14.945-5.941-6.02 0-11.46 2.44-15.4 6.38s-6.38 9.38-6.38 15.4v187.12c0 14.52 4.91 28.63 13.94 40.01l26.28 33.16v50.388c0 3.895 3.157 7.052 7.052 7.052h25.715c-2.24-1.181-3.769-3.53-3.769-6.239z"/><path d="m312.583 140.944c-.107-4.528.934-8.766 2.804-12.319-3.076-1.734-6.671-2.6-10.44-2.314-9.62.74-17.03 8.76-17.03 18.37 0 .17 2.278 137.743 2.278 137.743 13.68-.323 24.509-11.675 24.185-25.355z"/></g><g><path d="m412.175 388.09-.148-3.759 42.94-66.03-11.76-60.82-4.439-17.722c-10.39 5.004-19.496 12.631-26.289 22.351l-27.562 39.467-5.076.767c-22.938 3.45-42.128 19.139-50.079 40.93-.041.149-.081.299-.12.448-5.929 22.441 11.227 44.369 34.438 44.369h48.095z" fill="#ffcebf"/><path d="m418.676 398.261c-3.88 1.53-6.25 5.47-5.78 9.61l.001.78-15.021-.087c-21.214-.122-39.313-13.011-47.153-31.277-4.854-11.31-2.853-24.44 4.978-33.935 7.405-8.978 18.066-19.871 27.115-21.232l13.58-2.05 32.48-46.51c9.12-13.05 23.93-20.55 39.42-20.55 3.51 0 7.06.38 10.58 1.18 7.93 1.79 12.74 9.88 10.51 17.7l-23.05 81.1c-5.35 18.82-19.17 34.06-37.37 41.22z" fill="#ffdfcf"/></g><g><path d="m118.709 383.62c26.941 0 44.377-29.2 30.839-52.493-.81-1.395-1.67-2.635-2.58-3.685-13.12-15.13-25.183-23.341-36.868-25.099l-5.086-.768-27.564-39.47c-6.79-9.717-15.895-17.343-26.285-22.347l-4.439 17.723-15.18 73.35 47.19 51.68-.076 1.109z" fill="#ffcebf"/><path d="m142.365 371.495c-1.281 20.878-18.587 37.156-39.504 37.156h-25.915l.09-.78c.47-4.14-1.9-8.08-5.78-9.61l-10.29-4.05c-18.2-7.16-32.02-22.4-37.37-41.22l-23.05-81.1c-2.23-7.82 2.58-15.91 10.51-17.7 3.52-.8 7.07-1.18 10.58-1.18 15.49 0 30.3 7.5 39.42 20.55l32.48 46.51 13.58 2.05c8.121 1.222 17.542 10.122 24.741 18.424 7.408 8.544 11.202 19.632 10.509 30.92z" fill="#ffdfcf"/><path d="m104.346 407.871c.47-4.14-1.9-8.08-5.78-9.61l-10.29-4.05c-18.2-7.16-32.02-22.4-37.37-41.22l-23.05-81.1c-1.961-6.878 1.526-13.961 7.791-16.786-4.507-1.374-9.226-2.094-14.01-2.094-3.51 0-7.06.38-10.58 1.18-7.93 1.79-12.74 9.88-10.51 17.7l23.05 81.1c5.35 18.82 19.17 34.06 37.37 41.22l10.29 4.05c3.88 1.53 6.25 5.47 5.78 9.61l-.09.78h25.915c.469 0 .934-.018 1.399-.034z" fill="#ffcebf"/><g fill="#99e6fc"><path d="m272.126 301.377c0 15-12.16 27.159-27.159 27.159s-27.159-12.16-27.159-27.159c0-11.315 15.456-28.901 23.048-36.857 2.239-2.346 5.983-2.346 8.222 0 7.592 7.956 23.048 25.542 23.048 36.857z"/><path d="m284.414 58.708c0 21.786-17.661 39.448-39.448 39.448s-39.448-17.661-39.448-39.448c0-17.219 24.642-41.64 34.974-51.122 2.533-2.325 6.415-2.325 8.948 0 10.332 9.482 34.974 33.903 34.974 51.122z"/></g></g><g fill="#ffcebf"><path d="m184.892 239.318 9.771-109.353c-2.724-2.052-6.042-3.375-9.677-3.654-6.17-.47-11.89 2.16-15.59 6.61-.933 1.121-1.736 2.361-2.384 3.689l-3.845 30.963-8.483 98.727c15.468 0 28.469-11.613 30.208-26.982z"/><path d="m223.177 256.303 7.323-110.437c-2.117-.775-4.388-1.219-6.763-1.278-6.117-.151-11.689 2.225-15.731 6.163-3.208 3.113-5.433 7.216-6.247 11.819l-.272 2.364-8.261 118.366c15.425 0 28.356-11.656 29.951-26.997z"/><path d="m331.723 269.51c15.218-3.557 25.514-17.751 24.168-33.321l-10.199-147.026c.001-.092.017-.188.019-.28-2.563-.433-5.254-.408-7.954.147-9.771 2.014-16.681 10.393-17.172 20.028z"/><path d="m381.743 262.812c15.039-4.251 24.672-18.903 22.613-34.395l-11.238-114.691c-.865-.107-1.748-.118-2.635-.118-.42 0-.85.01-1.28.04-11.957.717-20.817 11.019-20.123 22.646z"/></g></g></svg>