<svg id="Capa_1" enable-background="new 0 0 497.538 497.538" height="512" viewBox="0 0 497.538 497.538" width="512" xmlns="http://www.w3.org/2000/svg"><g><g><g><g><g id="XMLID_669_"><g><path d="m57.08 231.229c-15.35 0-27.8-12.45-27.8-27.8 0-7.67 3.11-14.62 8.14-19.65 5.04-5.03 11.98-8.14 19.66-8.14h204.08c5.53 0 8.37-6.62 4.56-10.63l-36.96-38.92c-11.87-12.49-11.09-32.32 1.72-43.85 5.83-5.24 13.16-7.86 20.49-7.86 7.45 0 14.9 2.71 20.76 8.12l85.39 78.77h57.515c4.786 0 8.665 3.88 8.665 8.665v185c0 4.786-3.879 8.665-8.665 8.665h-36.085l-12.15 12.28c-14.005 14.155-33.09 22.12-53.003 22.12h-238.037c-7.68 0-14.62-3.11-19.66-8.14-5.03-5.03-8.14-11.98-8.14-19.65 0-15.35 12.45-27.8 27.8-27.8h-30.17c-7.68 0-14.63-3.11-19.66-8.14s-8.14-11.98-8.14-19.66c0-15.35 12.44-27.79 27.8-27.79h-17.39c-7.68 0-14.62-3.11-19.66-8.14-5.145-5.155-8.281-12.298-8.135-20.187.282-15.233 13.104-27.263 28.339-27.263z" fill="#ffcebf"/></g></g></g><path d="m418.602 99.297c.32-1.508.496-3.057.496-4.639 0-14.952-14.89-27.074-33.257-27.074s-33.257 12.122-33.257 27.074c0 .203.013.404.019.606-15.802 2.759-27.44 14.65-26.156 28.56 1.234 13.364 14.663 24.119 31.096 24.929 8.387.413 16.149-1.711 22.251-5.512 6.086 3.791 13.823 5.914 22.185 5.515 16.475-.786 29.963-11.59 31.167-24.989.914-10.167-5.076-19.252-14.544-24.47z" fill="#f9f3f1"/><g><g id="XMLID_667_"><g><path d="m423.3 354.934v-185c0-4.786-3.879-8.665-8.665-8.665h-57.515l-79.576-73.406c-1.721 4.809-2.721 9.907-2.926 15.17-.537 13.769 4.394 26.85 13.877 36.828 5.652 5.952 1.433 15.777-6.775 15.777h-24.899l8.899 9.371c3.81 4.01.97 10.63-4.56 10.63h-168.729c-5.783 8.054-8.913 17.679-8.913 27.79 0 3.847.457 7.589 1.319 11.175-17.571 6.941-30.226 23.833-30.59 43.519-.242 13.095 4.721 25.413 14.003 34.713 1.968 1.964 4.077 3.735 6.303 5.307-1.891 5.136-2.925 10.685-2.925 16.468 0 12.771 4.971 24.774 14 33.804 5.003 5.002 10.919 8.758 17.374 11.113-.787 3.436-1.203 7.012-1.203 10.683 0 10.107 3.128 19.729 8.915 27.79h202.682c19.913 0 38.999-7.965 53.004-22.12l12.15-12.28h36.085c4.786-.002 8.665-3.882 8.665-8.667z" fill="#ffb09e"/><path d="m131.318 231.229c-15.35 0-27.8-12.45-27.8-27.8 0-7.67 3.11-14.62 8.14-19.65 5.04-5.03 11.98-8.14 19.66-8.14h204.08c5.53 0 8.37-6.62 4.56-10.63l-36.96-38.92c-11.87-12.49-11.09-32.32 1.72-43.85 5.83-5.24 13.16-7.86 20.49-7.86 7.45 0 14.9 2.71 20.76 8.12l85.39 78.77h57.515c4.786 0 8.665 3.88 8.665 8.665v185c0 4.786-3.88 8.665-8.665 8.665h-36.085l-12.15 12.28c-14.005 14.155-33.09 22.12-53.003 22.12h-238.037c-7.68 0-14.62-3.11-19.66-8.14-5.03-5.03-8.14-11.98-8.14-19.65 0-15.35 12.45-27.8 27.8-27.8h-30.17c-7.68 0-14.63-3.11-19.66-8.14s-8.14-11.98-8.14-19.66c0-15.35 12.44-27.79 27.8-27.79h-17.39c-7.68 0-14.62-3.11-19.66-8.14-5.145-5.155-8.281-12.298-8.135-20.187.282-15.233 13.104-27.263 28.339-27.263z" fill="#ffdfcf"/></g></g></g><g><path d="m492.507 330.841h-26.539c-6.109 0-11.964 2.443-16.26 6.786l-5.437 5.495c-14.005 14.155-33.09 22.119-53.002 22.119h-238.037c-7.68 0-14.62-3.11-19.66-8.14-1.706-1.706-3.182-3.646-4.4-5.746-4.574 4.955-7.374 11.582-7.374 18.855 0 7.67 3.11 14.62 8.14 19.65 5.04 5.03 11.98 8.14 19.66 8.14h238.036c19.913 0 38.998-7.965 53.004-22.12l12.15-12.28h36.085c4.786 0 8.665-3.879 8.665-8.665v-25.713c-1.419 1.015-3.153 1.619-5.031 1.619z" fill="#ffcebf"/></g></g><path d="m411.386 232.185c.261-1.508.404-3.057.404-4.639 0-14.952-12.121-27.074-27.073-27.074s-27.073 12.122-27.073 27.074c0 .203.011.404.015.606-12.864 2.759-22.338 14.65-21.293 28.56 1.004 13.364 11.937 24.119 25.314 24.929 6.828.413 13.146-1.711 18.114-5.512 4.955 3.791 11.253 5.914 18.06 5.515 13.411-.786 24.392-11.59 25.372-24.989.744-10.167-4.132-19.252-11.84-24.47z" fill="#f9f3f1"/></g><g fill="#ffcebf"><path d="m217.121 342.409c0-18.092-14.666-32.758-32.758-32.758h-70.769c-7.355 0-14.027-2.857-19.006-7.518-1.889 3.752-2.959 7.987-2.959 12.476 0 7.68 3.11 14.63 8.14 19.66s11.98 8.14 19.66 8.14h30.17c-.007 0-.014 0-.022 0z"/><path d="m100.646 286.784h113.905c0-18.092-14.666-32.758-32.758-32.758h-89.77c-5.915 0-11.387-1.851-15.893-4.999-1.161 2.939-1.826 6.125-1.887 9.464-.146 7.89 2.99 15.032 8.135 20.188 4.734 4.724 11.144 7.754 18.268 8.105z"/><path d="m104.282 196.932c-.498 2.082-.764 4.263-.764 6.497 0 14.671 11.375 26.685 25.784 27.719h106.339c0-18.092-14.666-32.758-32.758-32.758h-89.769c-3.09 0-6.059-.527-8.832-1.458z"/></g><path d="m312.454 354.554c-8.64 0-16.595 2.913-22.952 7.801-4.633-3.198-10.248-5.075-16.303-5.075-15.873 0-28.741 12.868-28.741 28.741 0 15.874 12.868 28.742 28.741 28.742 2.839 0 5.579-.418 8.169-1.185 6.796 9.888 18.181 16.375 31.086 16.375 20.821 0 37.7-16.879 37.7-37.7 0-20.82-16.879-37.699-37.7-37.699z" fill="#f9f3f1"/><path d="m112.866 97.169c-8.814 0-16.804 3.494-22.688 9.16-.305-.065-.613-.124-.921-.182-5.15-13.425-18.15-22.961-33.387-22.961-19.749 0-35.759 16.01-35.759 35.759 0 18.14 13.51 33.115 31.016 35.437 5.409 12.143 17.575 20.614 31.727 20.614 10.748 0 20.353-4.885 26.722-12.553 1.084.108 2.178.184 3.291.184 18.076 0 32.729-14.653 32.729-32.729s-14.654-32.729-32.73-32.729z" fill="#f9f3f1"/></g></svg>