<svg id="Capa_1" enable-background="new 0 0 499.125 499.125" height="512" viewBox="0 0 499.125 499.125" width="512" xmlns="http://www.w3.org/2000/svg"><g><g><path d="m468.351 63.978h-438.882v-55.37c0-3.942 3.196-7.138 7.138-7.138h424.607c3.942 0 7.138 3.196 7.138 7.138v55.37z" fill="#fef48b"/><g fill="#fef056"><path d="m248.91 52.477c4.143 0 7.5-3.357 7.5-7.5v-43.507h-15v43.507c0 4.143 3.358 7.5 7.5 7.5z"/><path d="m212.334 52.477c4.142 0 7.5-3.357 7.5-7.5v-43.507h-15v43.507c0 4.143 3.357 7.5 7.5 7.5z"/><path d="m175.756 52.477c4.142 0 7.5-3.357 7.5-7.5v-43.507h-15v43.507c0 4.143 3.358 7.5 7.5 7.5z"/><path d="m139.18 52.477c4.142 0 7.5-3.357 7.5-7.5v-43.507h-15v43.507c0 4.143 3.358 7.5 7.5 7.5z"/><path d="m102.603 52.477c4.142 0 7.5-3.357 7.5-7.5v-43.507h-15v43.507c0 4.143 3.358 7.5 7.5 7.5z"/><path d="m73.526 44.977v-43.507h-15v43.507.001h15z"/><path d="m285.487 52.477c4.143 0 7.5-3.357 7.5-7.5v-43.507h-15v43.507c0 4.143 3.358 7.5 7.5 7.5z"/><path d="m322.065 52.477c4.143 0 7.5-3.357 7.5-7.5v-43.507h-15v43.507c0 4.143 3.357 7.5 7.5 7.5z"/><path d="m358.641 52.477c4.143 0 7.5-3.357 7.5-7.5v-43.507h-15v43.507c0 4.143 3.357 7.5 7.5 7.5z"/><path d="m395.218 52.477c4.143 0 7.5-3.357 7.5-7.5v-43.507h-15v43.507c0 4.143 3.357 7.5 7.5 7.5z"/><path d="m431.795 52.477c4.143 0 7.5-3.357 7.5-7.5v-43.507h-15v43.507c0 4.143 3.357 7.5 7.5 7.5z"/></g><path d="m273.755 484.27v-296.718h-49.689v296.718c0 7.392 5.993 13.385 13.385 13.385h22.92c7.391 0 13.384-5.993 13.384-13.385z" fill="#f3eae6"/></g><g id="XMLID_672_"><g><path d="m302.438 159.926v39.94c0 15.84-12.84 28.69-28.68 28.69h-49.69c-15.85 0-28.69-12.85-28.69-28.69v-39.94z" fill="#e1d3ce"/><path d="m453.638 88.756v51.2c0 20.42-16.55 36.97-36.96 36.97h-114.24-107.06-114.23c-20.42 0-36.97-16.55-36.97-36.97v-51.2z" fill="#b0e7c9"/></g></g><path d="m453.638 130.76v-42.004h-336.958-6.577-65.925v51.2c0 20.418 16.552 36.97 36.97 36.97h72.502c-20.42 0-36.97-16.55-36.97-36.97 0-5.078 4.117-9.195 9.195-9.195h327.763z" fill="#91deb6"/><path d="m483.874 110.76h-468.623c-8.423 0-15.251-6.828-15.251-15.251v-42.057c0-4.68 3.794-8.474 8.474-8.474h482.176c4.68 0 8.474 3.794 8.474 8.474v42.057c.001 8.423-6.827 15.251-15.25 15.251z" fill="#b0e7c9"/><path d="m72.502 95.509v-42.057c0-4.68 3.794-8.474 8.474-8.474h-72.502c-4.68 0-8.474 3.794-8.474 8.474v42.057c0 8.423 6.828 15.251 15.251 15.251h72.502c-8.423 0-15.251-6.828-15.251-15.251z" fill="#91deb6"/></g></svg>