<svg id="Capa_1" enable-background="new 0 0 488.571 488.571" height="512" viewBox="0 0 488.571 488.571" width="512" xmlns="http://www.w3.org/2000/svg"><g><g><g id="XMLID_678_"><g><path d="m475.223 45.225-7.913 128.327-17.19 253.382c-1.11 16.43-14.83 29.202-31.38 29.202h-166.57-106.48v-20.286l-11.43-124.877-9.26-136.318v-128.317z" fill="#99e6fc"/></g></g></g><g><path d="m179.58 46.338h-54.58v44.366 83.95l9.26 136.317 11.43 124.877v20.286h54.58v-20.284l-11.43-124.877-9.26-136.317v-5.215c0-43.484 35.466-78.736 79.216-78.736h215.788c.238-.215.402-.364.641-.579l-.003-44.901z" fill="#62dbfb"/><g><path d="m295.967 297.762c-99.601 0-180.631-81.03-180.631-180.63v-65.156h30v65.156c0 83.058 67.572 150.63 150.631 150.63 83.058 0 150.63-67.572 150.63-150.63v-65.156h30v65.156c0 99.599-81.031 180.63-180.63 180.63z" fill="#f9f3f1"/></g><path d="m223.65 388.075v-22.06c0-23.944-19.48-43.425-43.425-43.425h-44.902l10.366 113.258v20.286h96.693c.234-1.41.361-2.854.361-4.33v-26.463c.001-15.319-7.538-28.905-19.093-37.266z" fill="#62dbfb"/><path d="m203.65 417.358h-184.556v-51.343c0-12.937 10.488-23.425 23.425-23.425h137.707c12.937 0 23.425 10.488 23.425 23.425v51.343z" fill="#d7d0d6"/><path d="m93.673 342.59h-51.155c-12.937 0-23.425 10.488-23.425 23.425v51.343h51.154v-51.343c.001-12.937 10.488-23.425 23.426-23.425z" fill="#c9bfc8"/><path d="m216.362 458.187h-209.98c-3.524 0-6.382-2.857-6.382-6.382v-26.463c0-14.351 11.634-25.984 25.984-25.984h170.776c14.351 0 25.984 11.634 25.984 25.984v26.463c0 3.525-2.857 6.382-6.382 6.382z" fill="#f9f3f1"/><path d="m51.154 451.806v-26.463c0-14.351 11.634-25.984 25.984-25.984h-51.154c-14.35-.001-25.984 11.633-25.984 25.983v26.463c0 3.524 2.857 6.382 6.382 6.382h51.154c-3.525 0-6.382-2.857-6.382-6.381z" fill="#f3eae6"/><path d="m47.022 458.187v-20.376c0-4.143-3.357-7.5-7.5-7.5s-7.5 3.357-7.5 7.5v20.376z" fill="#e1d3ce"/><g fill="#f3eae6"><path d="m82.412 458.187v-20.376c0-4.143-3.357-7.5-7.5-7.5s-7.5 3.357-7.5 7.5v20.376z"/><path d="m117.802 458.187v-20.376c0-4.143-3.357-7.5-7.5-7.5s-7.5 3.357-7.5 7.5v20.376z"/><path d="m153.599 458.187v-20.376c0-4.143-3.357-7.5-7.5-7.5s-7.5 3.357-7.5 7.5v20.376z"/><path d="m188.581 458.187v-20.376c0-4.143-3.357-7.5-7.5-7.5s-7.5 3.357-7.5 7.5v20.376z"/></g></g><path d="m474.585 70.975h-356.94c-7.724 0-13.986-6.262-13.986-13.986v-12.619c0-7.724 6.262-13.986 13.986-13.986h356.94c7.724 0 13.986 6.262 13.986 13.986v12.619c0 7.724-6.261 13.986-13.986 13.986z" fill="#f3eae6"/></g></svg>