<svg id="Capa_1" enable-background="new 0 0 500.387 500.387" height="512" viewBox="0 0 500.387 500.387" width="512" xmlns="http://www.w3.org/2000/svg"><g><g><path d="m330.588 0c.901 0 1.785.239 2.563.691l45.932 26.722 58.13 33.828 19.92 11.597c1.89 1.103 3.06 3.127 3.06 5.332v82.966c0 3.397-2.753 6.15-6.15 6.15h-69.562c-2.246 0-4.065 1.822-4.061 4.068l.234 148.204h-260.68v-109.733-38.486c0-2.238-1.814-4.052-4.052-4.052h-69.579c-3.397 0-6.15-2.753-6.15-6.15v-82.966c0-2.205 1.17-4.23 3.06-5.332l123.982-72.147c.778-.453 1.663-.692 2.564-.692z" fill="#f9b1b1"/><g><path d="m165.185 288.386v-109.48-10.362c0-17.716-14.362-32.078-32.078-32.078h-17.858c-16.483 0-29.845-13.362-29.845-29.845v-57.685l-42.151 24.472c-1.89 1.1-3.06 3.12-3.06 5.32v82.76c0 3.396 2.753 6.15 6.15 6.15h69.578c2.238 0 4.052 1.814 4.052 4.052v38.388 109.48h260.68l-.049-31.172z" fill="#f79595"/></g><path d="m153.185 222.05c-5.009 0-9.681 1.432-13.638 3.903-5.191-8.24-14.363-13.719-24.821-13.719-16.194 0-29.321 13.127-29.321 29.321s13.128 29.321 29.321 29.321c7.041 0 13.501-2.484 18.556-6.621 4.731 5.732 11.891 9.386 19.904 9.386 14.247 0 25.796-11.549 25.796-25.796-.001-14.246-11.55-25.795-25.797-25.795z" fill="#99e6fc"/><path d="m460.693 294.041-24.254 171.281c-2.848 20.114-20.065 35.065-40.38 35.065h-290.732c-20.315 0-37.532-14.951-40.38-35.065l-24.254-171.281-6.109-29.048h439.97z" fill="#f9f3f1"/><path d="m307.71 139.163c-3.91 6.259-9.506 11.552-16.618 15.976-3.248 2.02-3.438 6.699-.31 8.902 6.51 4.586 12.072 9.996 16.513 16.381 2.143 3.081 6.652 3.11 8.794.028 4.728-6.802 10.321-12.412 16.764-16.85 3.086-2.126 3.146-6.616.103-8.803-6.512-4.681-11.993-9.99-16.392-15.958-2.249-3.051-6.845-2.891-8.854.324z" fill="#fef48b"/><circle cx="129.849" cy="108.923" fill="#c8effe" r="19.603"/><path d="m419.68 32.503c-4.546-.56-8.944.238-12.796 2.068-2.418-4.574-6.951-7.936-12.476-8.617-8.977-1.106-17.15 5.275-18.256 14.252s5.275 17.151 14.252 18.256c1.141.141 2.268.157 3.37.066 1.31 10.296 9.448 18.795 20.222 20.122 12.743 1.57 24.346-7.488 25.916-20.231 1.569-12.743-7.489-24.346-20.232-25.916z" fill="#c8effe"/><path d="m284.244 430.258c-8.707 0-15.765-7.058-15.765-15.765v-42.47c0-8.707 7.058-15.765 15.765-15.765 8.707 0 15.765 7.058 15.765 15.765v42.47c0 8.707-7.058 15.765-15.765 15.765z" fill="#99e6fc"/><g id="XMLID_682_"><g><path d="m106.22 264.993h-.446-71.19l6.109 29.048 24.254 171.281c2.848 20.114 20.065 35.065 40.38 35.065h71.636c-20.315 0-37.532-14.951-40.38-35.065l-10.264-72.487c-5.892-41.607 26.404-78.799 68.427-78.799h263.117l2.831-19.995 13.861-29.048z" fill="#f3eae6"/><path d="m483.813 263.616v20.06c0 5.72-4.64 10.36-10.37 10.36h-79.7-30.95-335.85c-5.73 0-10.37-4.64-10.37-10.36v-20.06c0-5.73 4.64-10.37 10.37-10.37h315.89 53.69 76.92c5.73 0 10.37 4.64 10.37 10.37z" fill="#f9f3f1"/></g></g><path d="m400.487 238.141c0-17.739-14.993-31.976-32.998-30.731-15.554 1.076-27.996 13.94-28.593 29.52-.582 15.18 9.826 28.024 23.902 31.238v101.541c0 8.547 6.928 15.475 15.475 15.475 8.547 0 15.475-6.928 15.475-15.475v-112.348c4.213-5.269 6.739-11.948 6.739-19.22z" fill="#99e6fc"/></g></g><path d="m326.203 0c0 21.114-8.45 40.233-22.12 54.066-13.66 13.843-32.54 22.4-53.39 22.4-41.7 0-75.51-34.238-75.51-76.466h151.02z" fill="#f79595"/></svg>