<svg id="Capa_1" enable-background="new 0 0 497.04 497.04" height="512" viewBox="0 0 497.04 497.04" width="512" xmlns="http://www.w3.org/2000/svg"><g><path d="m419.46 0h-341.88c-22.86 0-41.39 18.53-41.39 41.39v53.32l41.022 46.483h362.242l21.396-46.483v-53.32c0-22.86-18.53-41.39-41.39-41.39z" fill="#e1d3ce"/><path d="m439.623 349.149h-369.442l-33.991 32.691v73.81c0 2.44.21 4.83.62 7.16l31.63 19.06h362.045l29.745-19.06c.41-2.33.62-4.72.62-7.16v-73.81z" fill="#f3eae6"/><path d="m118.76 41.39c0-22.86 18.53-41.39 41.39-41.39h-82.57c-22.86 0-41.39 18.53-41.39 41.39v53.32l41.022 46.483h82.57l-41.022-46.483z" fill="#cdbfba"/><path d="m118.76 455.65v-73.81l33.991-32.69h-82.57l-33.991 32.69v73.81c0 2.44.21 4.83.62 7.16l31.63 19.06h82.57l-31.63-19.06c-.41-2.33-.62-4.72-.62-7.16z" fill="#e1d3ce"/><path d="m36.19 94.71h424.66v287.13h-424.66z" fill="#f9f3f1"/><g><g fill="#f3eae6"><circle cx="248.02" cy="48.091" r="18.033"/><circle cx="178.332" cy="48.091" r="18.033"/><circle cx="108.644" cy="48.091" r="18.033"/><circle cx="317.708" cy="48.091" r="18.033"/><circle cx="387.396" cy="48.091" r="18.033"/><path d="m36.19 94.71h82.57v287.13h-82.57z"/></g><circle cx="248.02" cy="275.143" fill="#e1d3ce" r="144.784"/><g><path d="m359.484 304.543c-4.142 0-7.5-3.357-7.5-7.5v-42.783c0-4.143 3.358-7.5 7.5-7.5s7.5 3.357 7.5 7.5v42.783c0 4.143-3.358 7.5-7.5 7.5z" fill="#f3eae6"/></g><g id="XMLID_691_"><g><path d="m348.65 219.96c-20.21-36.7-59.92-61.23-105.08-59.52-59.6 2.27-107.91 50.52-110.24 110.12-.18 4.65-.09 9.25.28 13.78l42.706 38.754h142.209l9.085-53.194v-27.49c0-5.34 3.46-10.06 8.56-11.67l9.35-2.94c3.28-1.04 4.79-4.82 3.13-7.84z" fill="#f2fbff"/><path d="m196.365 275.143c0-46.685 22.113-88.212 56.417-114.689-3.039-.125-6.117-.131-9.212-.014-59.6 2.27-107.91 50.52-110.24 110.12-.18 4.65-.09 9.25.28 13.78l42.706 38.754h28.19c-5.267-15.009-8.141-31.143-8.141-47.951z" fill="#dff6fd"/><path d="m345.52 322.49c3.27 1.03 4.79 4.81 3.13 7.81-19.54 35.51-57.32 59.63-100.63 59.63-60.2 0-109.72-46.58-114.41-105.59l51.56-21.28c21.3-8.78 45.15-9.07 66.66-.81l14.67 5.64c18.82 7.23 39.52 7.94 58.79 2.01h2.32v37.98c0 5.34 3.46 10.06 8.56 11.66z" fill="#99e6fc"/><path d="m196.365 275.143c0-5.439.31-10.806.895-16.09-4.097 1.044-8.138 2.378-12.09 4.007l-51.56 21.28c4.69 59.01 54.21 105.59 114.41 105.59 1.593 0 3.176-.042 4.754-.107-34.306-26.476-56.409-67.994-56.409-114.68z" fill="#62dbfb"/></g></g><path d="m422.484 157.353h-34.11c-3.436 0-6.221-2.785-6.221-6.221v-19.878c0-3.436 2.785-6.221 6.221-6.221h34.11c3.436 0 6.221 2.785 6.221 6.221v19.878c0 3.436-2.785 6.221-6.221 6.221z" fill="#f3eae6"/><g id="XMLID_689_"><g><path d="m36.81 462.81h423.42c-3.39 19.45-20.35 34.23-40.77 34.23h-341.88c-20.42 0-37.38-14.78-40.77-34.23z" fill="#e1d3ce"/></g></g><path d="m119.38 462.81h-82.57c3.39 19.45 20.35 34.23 40.77 34.23h82.57c-20.42 0-37.38-14.78-40.77-34.23z" fill="#cdbfba"/></g></g></svg>