<svg id="Capa_1" enable-background="new 0 0 497.147 497.147" height="512" viewBox="0 0 497.147 497.147" width="512" xmlns="http://www.w3.org/2000/svg"><g><path d="m405.376 220.752c-3.078-7.5-10.443-12.785-19.052-12.785-11.374 0-20.594 9.22-20.594 20.594v86.996 46.716l44.366-39.29z" fill="#ffcebf"/><g><path d="m91.771 220.752c3.078-7.5 10.443-12.785 19.052-12.785 11.374 0 20.594 9.22 20.594 20.594v86.996 52.013l-41.56-39.542z" fill="#ffcebf"/><g id="XMLID_712_"><g><path d="m348.214 334.977 57.16-59.22v-67.79c0-13.62 11.04-24.66 24.67-24.66 6.81 0 12.97 2.76 17.44 7.22 4.46 4.46 7.22 10.63 7.22 17.44v83.95c0 3.35-1.13 6.59-3.2 9.22l-89.18 112.88v72.826c0 5.691-4.613 10.304-10.304 10.304h-103.446v-47.1-74.31c0-8.63 3.34-16.94 9.33-23.16l51.76-53.87c5.19-5.4 12.13-8.12 19.09-8.12 6.4 0 12.81 2.31 17.89 6.97 10.779 9.89 11.48 26.66 1.57 37.42z" fill="#ffdfcf"/><g><path d="m277.665 459.076v-74.31c0-8.63 3.34-16.94 9.33-23.16l51.76-53.87c3.137-3.264 6.928-5.54 10.962-6.836-.911-1.178-1.939-2.302-3.073-3.343-5.08-4.66-11.49-6.97-17.89-6.97-6.96 0-13.9 2.72-19.09 8.12l-51.76 53.87c-5.99 6.22-9.33 14.53-9.33 23.16v74.31 47.1h29.091z" fill="#ffcebf"/></g><path d="m148.934 334.977c-4.68-5.09-7-11.51-7-17.92 0-7.15 2.88-14.28 8.57-19.5 10.6-9.73 27.01-9.21 36.98 1.15l51.76 53.87c5.99 6.22 9.33 14.53 9.33 23.16v74.31 47.1h-103.446c-5.691 0-10.304-4.613-10.304-10.304v-72.826l-89.18-112.88c-2.07-2.63-3.2-5.87-3.2-9.22v-83.95c0-6.81 2.76-12.98 7.22-17.44 4.47-4.46 10.63-7.22 17.44-7.22 13.63 0 24.67 11.04 24.67 24.66v67.79z" fill="#ffdfcf"/><g><path d="m165.689 490.611v-84.825l-89.18-112.88c-2.07-2.63-3.2-5.87-3.2-9.22v-83.95c0-5.219 1.625-10.058 4.39-14.043-3.21-1.528-6.802-2.386-10.595-2.386-6.81 0-12.97 2.76-17.44 7.22-4.46 4.46-7.22 10.63-7.22 17.44v83.95c0 3.35 1.13 6.59 3.2 9.22l89.18 112.88v72.826c0 5.691 4.614 10.305 10.304 10.305h22.9c-1.461-1.78-2.339-4.055-2.339-6.537z" fill="#ffcebf"/></g></g></g><circle cx="248.574" cy="124.536" fill="#b9eacf" r="124.536"/><path d="m185.389 124.536c0-58.193 39.916-107.059 93.86-120.725-9.813-2.485-20.089-3.811-30.675-3.811-68.779 0-124.536 55.757-124.536 124.536s55.757 124.536 124.536 124.536c10.586 0 20.863-1.326 30.676-3.812-53.945-13.665-93.861-62.531-93.861-120.724z" fill="#91deb6"/><circle cx="248.574" cy="124.536" fill="#91deb6" r="94.536"/><path d="m225.705 32.802c-41.114 10.253-71.667 47.49-71.667 91.733s30.553 81.479 71.666 91.733c-24.781-22.762-40.314-55.432-40.314-91.732-.001-36.301 15.533-68.972 40.315-91.734z" fill="#6ed5a1"/><path d="m288.455 106.636h-21.737v-21.737c0-2.826-2.291-5.118-5.118-5.118h-24.936c-2.826 0-5.118 2.291-5.118 5.118v21.737h-21.737c-2.826 0-5.118 2.291-5.118 5.118v24.936c0 2.826 2.291 5.118 5.118 5.118h21.737v21.737c0 2.826 2.291 5.118 5.118 5.118h24.936c2.826 0 5.118-2.291 5.118-5.118v-21.737h21.737c2.826 0 5.118-2.291 5.118-5.118v-24.936c-.001-2.827-2.292-5.118-5.118-5.118z" fill="#f9f7f8"/></g></g></svg>