<svg id="Capa_1" enable-background="new 0 0 497.1 497.1" height="512" viewBox="0 0 497.1 497.1" width="512" xmlns="http://www.w3.org/2000/svg"><g><g><g id="XMLID_713_"><g><path d="m388.721 62.89c10.3 5.15 15.53 16.84 12.51 27.95l-49.62 182.42-1.84 81.28c-.51 22.49-7.6 44.34-20.39 62.85l-14.04 20.32v44.404c0 8.277-6.71 14.986-14.986 14.986h-144.948c-8.277 0-14.986-6.71-14.986-14.986v-52.474c-22.31-10.64-38.24-31.24-42.92-55.51l-1.42-7.36-77.98-42.8c-11.16-6.13-17.49-17.66-17.49-29.57 0-5.37 1.28-10.81 3.99-15.87 8.38-15.66 27.48-22.12 43.65-14.77l59.92 27.24 3.3-4.46c3.45-4.66 7.25-9.04 11.39-13.08 4.13-4.04 8.58-7.75 13.32-11.09l-56.54-207.86c-.69-2.53-1.02-5.08-1.02-7.59 0-11.81 7.3-22.78 18.86-27.05 15.17-5.6 31.97 2.35 37.26 17.62l61.3 176.93v-186.68c0-7.66 3.1-14.6 8.12-19.62s11.95-8.12 19.61-8.12c15.06 0 27.37 12.02 27.73 27.07l4.19 173.65 25.69-166.68c1.96-12.68 12.88-21.63 25.18-21.63 1.79 0 3.61.19 5.43.58 12.52 2.72 21.09 14.29 20.02 27.06l-13.45 160.67 36.19-123.04c3.14-10.69 12.88-17.35 23.19-17.35 3.61 0 7.29.82 10.78 2.56z" fill="#ffdfcf"/></g></g><ellipse cx="362.555" cy="352.249" fill="#c8effe" rx="133.934" ry="131.741"/><path d="m288.54 352.248c0-62.514 44.498-114.996 103.975-128.415-9.636-2.174-19.663-3.325-29.96-3.325-73.851 0-133.934 59.099-133.934 131.74 0 72.643 60.083 131.741 133.934 131.741 10.296 0 20.324-1.151 29.96-3.325-59.477-13.419-103.975-65.901-103.975-128.416z" fill="#99e6fc"/><ellipse cx="362.555" cy="352.249" fill="#dff6fd" rx="101.644" ry="99.98"/><path d="m329.224 257.769c-39.764 13.572-68.313 50.747-68.313 94.48 0 43.732 28.554 80.91 68.318 94.481-25.078-23.955-40.689-57.462-40.689-94.482 0-37.019 15.606-70.525 40.684-94.479z" fill="#c8effe"/><path d="m428.473 318.928h-12.586l8.793-8.649c2.953-2.904 2.993-7.653.088-10.606-2.906-2.954-7.654-2.991-10.606-.087l-9.095 8.946v-1.084-11.419c0-4.143-3.357-7.5-7.5-7.5s-7.5 3.357-7.5 7.5v11.419 1.084l-9.095-8.946c-2.953-2.903-7.701-2.866-10.606.087s-2.865 7.702.088 10.606l8.793 8.649h-12.587c-4.143 0-7.5 3.357-7.5 7.5s3.357 7.5 7.5 7.5h12.587l-8.793 8.649c-2.953 2.904-2.993 7.653-.088 10.606 1.468 1.492 3.407 2.24 5.347 2.24 1.899 0 3.799-.717 5.26-2.153l9.095-8.946v12.503c0 4.143 3.357 7.5 7.5 7.5s7.5-3.357 7.5-7.5v-12.503l9.095 8.946c1.461 1.437 3.36 2.153 5.26 2.153 1.939 0 3.879-.748 5.347-2.24 2.905-2.953 2.865-7.702-.088-10.606l-8.793-8.649h12.586c4.143 0 7.5-3.357 7.5-7.5s-3.36-7.5-7.502-7.5z" fill="#ee6161"/><ellipse cx="397.566" cy="326.428" fill="#f79595" rx="19.298" ry="18.982"/><path d="m361.595 376.201c0-4.143-3.357-7.5-7.5-7.5h-6.705l4.635-4.559c2.952-2.904 2.992-7.653.087-10.606-2.906-2.954-7.654-2.99-10.606-.087l-4.935 4.854v-6.717c0-4.143-3.357-7.5-7.5-7.5s-7.5 3.357-7.5 7.5v6.718l-4.936-4.854c-2.953-2.903-7.701-2.866-10.606.087s-2.865 7.702.087 10.606l4.635 4.559h-6.704c-4.143 0-7.5 3.357-7.5 7.5s3.357 7.5 7.5 7.5h6.703l-4.634 4.558c-2.952 2.904-2.992 7.653-.087 10.606 1.468 1.492 3.407 2.24 5.347 2.24 1.899 0 3.799-.717 5.26-2.153l4.936-4.854v6.718c0 4.143 3.357 7.5 7.5 7.5s7.5-3.357 7.5-7.5v-6.717l4.935 4.854c1.461 1.437 3.36 2.153 5.26 2.153 1.939 0 3.879-.748 5.347-2.24 2.905-2.953 2.865-7.702-.087-10.606l-4.634-4.558h6.704c4.14-.002 7.498-3.359 7.498-7.502z" fill="#8ebac5"/><ellipse cx="329.07" cy="376.201" fill="#a8d3d8" rx="15.625" ry="15.369"/><g><path d="m352.449 299.218c-1.028 0-2.071-.212-3.069-.661-3.778-1.697-5.466-6.136-3.768-9.914l3.861-8.595c1.697-3.779 6.137-5.469 9.914-3.768 3.778 1.697 5.466 6.136 3.768 9.914l-3.861 8.595c-1.249 2.781-3.983 4.429-6.845 4.429z" fill="#b0e7c9"/></g><g><path d="m318.333 331.43c-1.177 0-2.37-.278-3.484-.864l-12.096-6.362c-3.666-1.928-5.075-6.463-3.146-10.129 1.928-3.665 6.463-5.073 10.129-3.146l12.096 6.362c3.666 1.928 5.075 6.463 3.146 10.129-1.342 2.551-3.949 4.01-6.645 4.01z" fill="#b0e7c9"/></g><g><path d="m419.424 385.178c-2.096 0-4.179-.873-5.662-2.578-2.718-3.126-2.388-7.863.737-10.581l6.106-5.311c3.125-2.719 7.862-2.388 10.581.737 2.718 3.126 2.388 7.863-.737 10.581l-6.106 5.311c-1.42 1.235-3.174 1.841-4.919 1.841z" fill="#b0e7c9"/></g><g><path d="m381.205 422.237c-.414 0-.834-.034-1.256-.105-4.085-.688-6.837-4.559-6.148-8.643l1.537-9.113c.688-4.084 4.558-6.843 8.643-6.148 4.085.688 6.837 4.559 6.148 8.643l-1.537 9.113c-.618 3.661-3.793 6.253-7.387 6.253z" fill="#b0e7c9"/></g></g><g><g><g><path d="m136.176 262.373c13.733-11.202 19.59-29.443 14.938-46.544l-48.774-179.313c-.69-2.53-1.02-5.08-1.02-7.59 0-3.654.703-7.227 2.01-10.547-1.958.286-3.917.777-5.849 1.491-11.56 4.27-18.86 15.24-18.86 27.05 0 2.51.33 5.06 1.02 7.59l56.54 207.86c-.004.002-.009.006-.005.003z" fill="#ffcebf"/></g></g></g><g><path d="m169.052 415.787c0-5.56-2.922-10.675-7.641-13.613-18.28-11.381-31.152-29.927-35.279-51.326-.9-4.662-3.829-8.682-7.991-10.967l-71.409-39.193c-11.16-6.13-17.49-17.66-17.49-29.57 0-3.41.529-6.853 1.6-10.204-10.777 1.124-20.786 7.421-26.242 17.616-2.71 5.06-3.99 10.5-3.99 15.87 0 11.91 6.33 23.44 17.49 29.57l77.98 42.8 1.42 7.36c4.68 24.27 20.61 44.87 42.92 55.51v52.474c0 8.277 6.71 14.986 14.986 14.986h13.646z" fill="#ffcebf"/></g><g fill="#ffcebf"><path d="m196.04 214.515c14.183 0 25.7-11.46 25.771-25.642l.861-172.44c.011-2.622.374-5.168 1.045-7.587.857-3.091 2.22-5.977 3.992-8.563-1.287-.184-2.601-.283-3.938-.283-7.66 0-14.59 3.1-19.61 8.12s-8.12 11.96-8.069 19.624z"/><path d="m255.811 199.942c14.961 0 27.678-10.931 29.926-25.722l23.159-152.431c.392-2.593 1.122-5.059 2.137-7.354.225-.508.488-1 .741-1.491-1.745-.358-3.496-.534-5.213-.534-12.3 0-23.22 8.95-25.18 21.63z"/><path d="m318.885 199.942c14.904 0 27.977-9.942 31.959-24.304l31.02-111.892c.276-.996.619-1.966.984-2.906-1.631-.342-3.28-.51-4.906-.51-10.31 0-20.05 6.66-23.19 17.35l-34.055 115.782z"/></g></g></svg>