<svg id="Capa_1" enable-background="new 0 0 497.262 497.262" height="512" viewBox="0 0 497.262 497.262" width="512" xmlns="http://www.w3.org/2000/svg"><g><g><path d="m415.839 401.261-.148-3.759 42.94-66.03-11.76-60.82-4.439-17.722c-10.39 5.004-19.496 12.631-26.289 22.351l-27.562 39.467-5.076.767c-22.938 3.45-42.128 19.139-50.079 40.93-.041.149-.081.299-.12.448-5.929 22.441 11.227 44.369 34.438 44.369h48.095z" fill="#ffcebf"/></g><g><path d="m122.374 396.792c26.941 0 44.377-29.2 30.839-52.493-.81-1.395-1.67-2.635-2.58-3.685-13.12-15.13-25.183-23.341-36.868-25.099l-5.086-.768-27.565-39.472c-6.79-9.717-15.895-17.343-26.285-22.347l-4.439 17.723-15.18 73.35 47.19 51.68-.076 1.109h40.05z" fill="#ffcebf"/></g><g><g><path d="m205.301 176.392c.71-4.87 3.01-9.21 6.37-12.47 4.042-3.939 9.614-6.315 15.731-6.163 11.892.294 21.229 10.361 21.229 22.257v95.916 65.78 24.94c0 14.52-4.91 28.63-13.94 40.01l-26.28 33.16v47.226c0 5.641-4.573 10.214-10.214 10.214h-114.776c-6.101 0-10.842-5.314-10.147-11.376l7.337-64.064 1.79-26.14-47.19-51.68 15.18-73.35 32.45-129.56c3.03-8.63 11.16-14.35 20.22-14.35.42 0 .85.01 1.28.04 12.85.77 22.13 12.61 19.81 25.27l6.13-32.84c2.31-11.79 13.79-19.43 25.56-17.01 10.14 2.09 17.22 11.03 17.22 21.12 0 .95-.06 1.91-.19 2.88l-2.39 23.59.18.02c.65-1.34 1.46-2.59 2.4-3.72 3.7-4.45 9.42-7.08 15.59-6.61 9.62.74 17.03 8.76 17.03 18.37 0 .17 0 .35-.01.53l-.37 18.01c-.12.83-.2 1.67-.22 2.53z" fill="#ffdfcf"/></g><g fill="#ffcebf"><path d="m158.356 113.782c.907-3.286 2.574-6.216 4.749-8.631-2.162-1.383-4.61-2.401-7.264-2.949-11.77-2.42-23.25 5.22-25.56 17.01l-5.961 31.936-18.354 125.309c15.621.473 29.218-10.599 31.919-25.992z"/><path d="m188.557 256.49 9.771-113.353c-2.724-2.052-6.042-3.375-9.677-3.654-6.17-.47-11.89 2.16-15.59 6.61-.933 1.121-1.736 2.361-2.384 3.689l-3.845 30.963-8.483 102.727c15.468-.001 28.469-11.614 30.208-26.982z"/><path d="m226.842 269.474 7.323-110.437c-2.117-.775-4.388-1.219-6.763-1.278-6.117-.151-11.689 2.225-15.731 6.163-3.208 3.113-5.433 7.216-6.247 11.819l-.272 2.364-8.261 118.366c15.425 0 28.355-11.655 29.951-26.997z"/></g><g><g id="XMLID_721_"><g><path d="m373.111 152.052c-2.32-12.66 6.96-24.5 19.81-25.27.43-.03.86-.04 1.28-.04 9.06 0 17.19 5.72 20.22 14.35l32.45 129.56 11.76 60.82-42.94 66.03.96 24.32 7.74 67.586c.479 4.185-2.794 7.854-7.006 7.854h-121.482c-3.895 0-7.052-3.157-7.052-7.052v-50.388l-26.28-33.16c-9.03-11.38-13.94-25.49-13.94-40.01v-187.12c0-6.02 2.44-11.46 6.38-15.4s9.38-6.38 15.4-6.38c10.93 0 20.02 8.07 21.55 18.64 0 0 .12.83 0 0l-.37-18.01c-.01-.18-.01-.36-.01-.53 0-9.61 7.41-17.63 17.03-18.37 7.38-.56 14.12 3.31 17.52 9.43l.55-.06-2.29-22.65c-.13-.97-.19-1.93-.19-2.88 0-10.09 7.08-19.03 17.22-21.12 11.77-2.42 23.25 5.22 25.56 17.01z" fill="#ffdfcf"/></g></g></g><path d="m422.341 411.432c-3.88 1.53-6.25 5.47-5.78 9.61l.001.78-15.021-.087c-21.214-.122-39.313-13.011-47.153-31.277-4.854-11.31-2.853-24.44 4.978-33.935 7.405-8.978 18.066-19.871 27.115-21.232l13.58-2.05 32.48-46.51c9.12-13.05 23.93-20.55 39.42-20.55 3.51 0 7.06.38 10.58 1.18 7.93 1.79 12.74 9.88 10.51 17.7l-23.05 81.1c-5.35 18.82-19.17 34.06-37.37 41.22z" fill="#ffdfcf"/><path d="m317.848 491.024v-43.337c0-4.566-1.543-8.998-4.379-12.577l-21.901-27.634c-9.03-11.38-13.94-25.49-13.94-40.01v-187.12c0-6.02 2.44-11.46 6.38-15.4.429-.429.884-.86 1.347-1.252-3.905-3.691-9.163-5.941-14.945-5.941-6.02 0-11.46 2.44-15.4 6.38s-6.38 9.38-6.38 15.4v187.12c0 14.52 4.91 28.63 13.94 40.01l26.28 33.16v50.388c0 3.895 3.157 7.052 7.052 7.052h25.715c-2.24-1.182-3.769-3.531-3.769-6.239z" fill="#ffcebf"/><g><path d="m100.433 488.253 7.337-64.064 1.79-26.14-47.19-51.68 15.18-73.35 32.45-129.56c1.547-4.407 4.439-8.05 8.091-10.565-3.547-3.492-8.333-5.787-13.75-6.112-.43-.03-.86-.04-1.28-.04-9.06 0-17.19 5.72-20.22 14.35l-32.45 129.56-15.18 73.35 47.19 51.68-1.79 26.14-7.337 64.064c-.694 6.062 4.046 11.375 10.147 11.375h20.641c-2.544-2.117-4.039-5.427-3.629-9.008z" fill="#ffcebf"/></g><path d="m316.247 154.115c-.107-4.528.934-8.766 2.804-12.319-3.076-1.734-6.671-2.6-10.44-2.314-9.62.74-17.03 8.76-17.03 18.37 0 .17 2.278 137.743 2.278 137.743 13.68-.323 24.509-11.675 24.185-25.355z" fill="#ffcebf"/><path d="m335.387 281.681c15.218-3.557 25.514-17.751 24.168-33.321l-10.199-146.025c.001-.092.017-.188.019-.28-2.563-.433-5.254-.408-7.954.147-9.771 2.014-16.681 10.393-17.172 20.028z" fill="#ffcebf"/><path d="m385.408 278.984c15.039-4.251 24.672-18.903 22.613-34.395l-11.238-117.691c-.865-.107-1.748-.118-2.635-.118-.42 0-.85.01-1.28.04-11.957.717-20.817 11.019-20.123 22.646z" fill="#ffcebf"/></g><g><circle cx="248.631" cy="111.622" fill="#b9eacf" r="111.622"/><path d="m187.488 111.622c0-52.967 36.893-97.316 86.383-108.756-8.111-1.875-16.56-2.866-25.24-2.866-61.647 0-111.621 49.975-111.621 111.622s49.975 111.622 111.622 111.622c8.68 0 17.129-.991 25.239-2.866-49.491-11.44-86.383-55.79-86.383-108.756z" fill="#91deb6"/><circle cx="248.631" cy="111.622" fill="#91deb6" r="81.622"/><path d="m216.48 186.634c-18.004-19.82-28.993-46.127-28.993-75.012s10.958-55.188 28.961-75.008c-29.064 12.505-49.439 41.413-49.439 75.008s20.407 62.506 49.471 75.012z" fill="#6ed5a1"/><path d="m284.376 95.578h-19.483v-19.483c0-2.533-2.054-4.587-4.587-4.587h-22.35c-2.533 0-4.587 2.054-4.587 4.587v19.483h-19.483c-2.533 0-4.587 2.054-4.587 4.587v22.35c0 2.533 2.054 4.587 4.587 4.587h19.483v19.483c0 2.533 2.054 4.587 4.587 4.587h22.35c2.533 0 4.587-2.054 4.587-4.587v-19.483h19.483c2.533 0 4.587-2.054 4.587-4.587v-22.35c.001-2.533-2.053-4.587-4.587-4.587z" fill="#f9f7f8"/></g><path d="m146.03 384.667c-1.281 20.878-18.587 37.156-39.504 37.156h-25.915l.09-.78c.47-4.14-1.9-8.08-5.78-9.61l-10.29-4.05c-18.2-7.16-32.02-22.4-37.37-41.22l-23.05-81.1c-2.23-7.82 2.58-15.91 10.51-17.7 3.52-.8 7.07-1.18 10.58-1.18 15.49 0 30.3 7.5 39.42 20.55l32.48 46.51 13.58 2.05c8.121 1.222 17.542 10.122 24.741 18.424 7.408 8.544 11.202 19.632 10.509 30.92z" fill="#ffdfcf"/><path d="m108.011 421.042c.47-4.14-1.9-8.08-5.78-9.61l-10.29-4.05c-18.2-7.16-32.02-22.4-37.37-41.22l-23.05-81.1c-1.961-6.878 1.526-13.961 7.791-16.786-4.507-1.374-9.226-2.094-14.01-2.094-3.51 0-7.06.38-10.58 1.18-7.93 1.79-12.74 9.88-10.51 17.7l23.05 81.1c5.35 18.82 19.17 34.06 37.37 41.22l10.29 4.05c3.88 1.53 6.25 5.47 5.78 9.61l-.09.78h25.915c.469 0 .934-.018 1.399-.034z" fill="#ffcebf"/><path d="m146.03 384.667c-1.281 20.878-18.587 37.156-39.504 37.156h-25.915l.09-.78c.47-4.14-1.9-8.08-5.78-9.61l-10.29-4.05c-18.2-7.16-32.02-22.4-37.37-41.22l-23.05-81.1c-2.23-7.82 2.58-15.91 10.51-17.7 3.52-.8 7.07-1.18 10.58-1.18 15.49 0 30.3 7.5 39.42 20.55l32.48 46.51 13.58 2.05c8.121 1.222 17.542 10.122 24.741 18.424 7.408 8.544 11.202 19.632 10.509 30.92z" fill="#ffdfcf"/><path d="m108.011 421.042c.47-4.14-1.9-8.08-5.78-9.61l-10.29-4.05c-18.2-7.16-32.02-22.4-37.37-41.22l-23.05-81.1c-1.961-6.878 1.526-13.961 7.791-16.786-4.507-1.374-9.226-2.094-14.01-2.094-3.51 0-7.06.38-10.58 1.18-7.93 1.79-12.74 9.88-10.51 17.7l23.05 81.1c5.35 18.82 19.17 34.06 37.37 41.22l10.29 4.05c3.88 1.53 6.25 5.47 5.78 9.61l-.09.78h25.915c.469 0 .934-.018 1.399-.034z" fill="#ffcebf"/></g></svg>